G04 EAGLE Gerber RS-274X export*
G75*
%MOMM*%
%FSLAX34Y34*%
%LPD*%
%INBottom Copper*%
%IPPOS*%
%AMOC8*
5,1,8,0,0,1.08239X$1,22.5*%
G01*
%ADD10C,0.152400*%
%ADD11C,1.524000*%
%ADD12C,1.270000*%

G36*
X950003Y93651D02*
X950003Y93651D01*
X950006Y93651D01*
X950353Y93671D01*
X950711Y93691D01*
X950714Y93691D01*
X950717Y93691D01*
X951057Y93750D01*
X951414Y93810D01*
X951416Y93811D01*
X951419Y93811D01*
X951764Y93911D01*
X952098Y94007D01*
X952101Y94009D01*
X952104Y94009D01*
X952428Y94144D01*
X952756Y94280D01*
X952759Y94282D01*
X952761Y94283D01*
X953073Y94455D01*
X953380Y94625D01*
X953382Y94627D01*
X953385Y94628D01*
X953682Y94839D01*
X953961Y95038D01*
X953963Y95039D01*
X953965Y95041D01*
X954233Y95281D01*
X954492Y95512D01*
X954494Y95515D01*
X954496Y95516D01*
X954734Y95784D01*
X954966Y96044D01*
X954968Y96046D01*
X954970Y96048D01*
X955168Y96329D01*
X955378Y96625D01*
X955380Y96628D01*
X955381Y96630D01*
X955544Y96926D01*
X955722Y97249D01*
X955723Y97252D01*
X955725Y97254D01*
X955856Y97572D01*
X955994Y97907D01*
X955995Y97910D01*
X955996Y97913D01*
X956091Y98242D01*
X956191Y98592D01*
X956192Y98595D01*
X956192Y98598D01*
X956252Y98951D01*
X956310Y99294D01*
X956310Y99297D01*
X956311Y99300D01*
X956349Y100000D01*
X956349Y660000D01*
X956349Y660003D01*
X956349Y660006D01*
X956329Y660353D01*
X956309Y660711D01*
X956309Y660714D01*
X956309Y660717D01*
X956250Y661057D01*
X956190Y661414D01*
X956189Y661416D01*
X956189Y661419D01*
X956089Y661764D01*
X955993Y662098D01*
X955991Y662101D01*
X955991Y662104D01*
X955856Y662428D01*
X955720Y662756D01*
X955718Y662759D01*
X955717Y662761D01*
X955545Y663073D01*
X955375Y663380D01*
X955373Y663382D01*
X955372Y663385D01*
X955161Y663682D01*
X954963Y663961D01*
X954961Y663963D01*
X954959Y663965D01*
X954719Y664233D01*
X954488Y664492D01*
X954485Y664494D01*
X954484Y664496D01*
X954220Y664730D01*
X953956Y664966D01*
X953954Y664968D01*
X953952Y664970D01*
X953671Y665168D01*
X953375Y665378D01*
X953372Y665380D01*
X953370Y665381D01*
X953074Y665544D01*
X952751Y665722D01*
X952748Y665723D01*
X952746Y665725D01*
X952428Y665856D01*
X952093Y665994D01*
X952090Y665995D01*
X952087Y665996D01*
X951758Y666091D01*
X951408Y666191D01*
X951405Y666192D01*
X951403Y666192D01*
X951049Y666252D01*
X950706Y666310D01*
X950703Y666310D01*
X950700Y666311D01*
X950000Y666349D01*
X80000Y666349D01*
X79997Y666349D01*
X79994Y666349D01*
X79647Y666329D01*
X79289Y666309D01*
X79286Y666309D01*
X79283Y666309D01*
X78943Y666250D01*
X78586Y666190D01*
X78584Y666189D01*
X78581Y666189D01*
X78236Y666089D01*
X77902Y665993D01*
X77899Y665991D01*
X77896Y665991D01*
X77572Y665856D01*
X77244Y665720D01*
X77241Y665718D01*
X77239Y665717D01*
X76927Y665545D01*
X76620Y665375D01*
X76618Y665373D01*
X76615Y665372D01*
X76318Y665161D01*
X76039Y664963D01*
X76037Y664961D01*
X76035Y664959D01*
X75767Y664719D01*
X75508Y664488D01*
X75507Y664485D01*
X75504Y664484D01*
X75266Y664216D01*
X75034Y663956D01*
X75032Y663954D01*
X75030Y663952D01*
X74832Y663671D01*
X74622Y663375D01*
X74621Y663372D01*
X74619Y663370D01*
X74456Y663074D01*
X74278Y662751D01*
X74277Y662748D01*
X74275Y662746D01*
X74144Y662428D01*
X74006Y662093D01*
X74005Y662090D01*
X74004Y662087D01*
X73910Y661758D01*
X73809Y661408D01*
X73808Y661405D01*
X73808Y661403D01*
X73748Y661049D01*
X73690Y660706D01*
X73690Y660703D01*
X73689Y660700D01*
X73651Y660000D01*
X73651Y100000D01*
X73651Y99997D01*
X73651Y99994D01*
X73671Y99647D01*
X73691Y99289D01*
X73691Y99286D01*
X73691Y99283D01*
X73750Y98943D01*
X73810Y98586D01*
X73811Y98584D01*
X73811Y98581D01*
X73911Y98236D01*
X74007Y97902D01*
X74009Y97899D01*
X74009Y97896D01*
X74144Y97572D01*
X74280Y97244D01*
X74282Y97241D01*
X74283Y97239D01*
X74455Y96927D01*
X74625Y96620D01*
X74627Y96618D01*
X74628Y96615D01*
X74839Y96318D01*
X75038Y96039D01*
X75039Y96037D01*
X75041Y96035D01*
X75281Y95767D01*
X75512Y95508D01*
X75515Y95507D01*
X75516Y95504D01*
X75784Y95266D01*
X76044Y95034D01*
X76046Y95032D01*
X76048Y95030D01*
X76329Y94832D01*
X76625Y94622D01*
X76628Y94621D01*
X76630Y94619D01*
X76926Y94456D01*
X77249Y94278D01*
X77252Y94277D01*
X77254Y94275D01*
X77572Y94144D01*
X77907Y94006D01*
X77910Y94005D01*
X77913Y94004D01*
X78242Y93910D01*
X78592Y93809D01*
X78595Y93808D01*
X78598Y93808D01*
X78951Y93748D01*
X79294Y93690D01*
X79297Y93690D01*
X79300Y93689D01*
X80000Y93651D01*
X950000Y93651D01*
X950003Y93651D01*
G37*
%LPC*%
G36*
X583914Y216839D02*
X583914Y216839D01*
X582593Y217013D01*
X581307Y217358D01*
X580076Y217868D01*
X578923Y218534D01*
X577866Y219344D01*
X576924Y220286D01*
X576645Y220651D01*
X579034Y220651D01*
X579306Y220666D01*
X579579Y220674D01*
X579662Y220686D01*
X579746Y220691D01*
X580014Y220736D01*
X580284Y220775D01*
X580365Y220796D01*
X580448Y220810D01*
X580709Y220885D01*
X580973Y220954D01*
X581052Y220984D01*
X581133Y221007D01*
X581384Y221112D01*
X581638Y221209D01*
X581713Y221248D01*
X581791Y221280D01*
X582029Y221412D01*
X582271Y221537D01*
X582341Y221584D01*
X582414Y221625D01*
X582636Y221782D01*
X582862Y221934D01*
X582927Y221989D01*
X582995Y222037D01*
X583198Y222218D01*
X583406Y222395D01*
X583463Y222456D01*
X583526Y222512D01*
X583707Y222715D01*
X583894Y222914D01*
X583945Y222981D01*
X584001Y223044D01*
X584158Y223266D01*
X584321Y223484D01*
X584364Y223556D01*
X584413Y223625D01*
X584545Y223864D01*
X584682Y224098D01*
X584716Y224175D01*
X584757Y224249D01*
X584861Y224501D01*
X584971Y224749D01*
X584997Y224829D01*
X585029Y224907D01*
X585104Y225169D01*
X585186Y225428D01*
X585202Y225511D01*
X585226Y225592D01*
X585271Y225860D01*
X585324Y226127D01*
X585330Y226211D01*
X585344Y226294D01*
X585359Y226566D01*
X585382Y226837D01*
X585379Y226922D01*
X585384Y227006D01*
X585368Y227277D01*
X585360Y227550D01*
X585348Y227633D01*
X585343Y227717D01*
X585297Y227985D01*
X585258Y228255D01*
X585237Y228336D01*
X585223Y228419D01*
X585148Y228680D01*
X585079Y228944D01*
X585048Y229023D01*
X585025Y229103D01*
X584921Y229355D01*
X584823Y229609D01*
X584784Y229684D01*
X584752Y229761D01*
X584620Y229999D01*
X584494Y230241D01*
X584447Y230311D01*
X584406Y230384D01*
X584249Y230606D01*
X584097Y230832D01*
X584042Y230896D01*
X583993Y230965D01*
X583812Y231167D01*
X583635Y231375D01*
X583574Y231433D01*
X583518Y231495D01*
X583315Y231677D01*
X583116Y231863D01*
X583049Y231913D01*
X582986Y231969D01*
X582764Y232127D01*
X582546Y232290D01*
X582473Y232332D01*
X582405Y232381D01*
X582166Y232512D01*
X581931Y232650D01*
X581854Y232684D01*
X581780Y232725D01*
X581529Y232828D01*
X581280Y232939D01*
X581199Y232964D01*
X581122Y232996D01*
X580874Y233067D01*
X580611Y233150D01*
X580610Y233150D01*
X580523Y233168D01*
X580437Y233192D01*
X580436Y233193D01*
X580173Y233237D01*
X579911Y233288D01*
X579822Y233296D01*
X579733Y233311D01*
X579458Y233326D01*
X579201Y233347D01*
X579118Y233345D01*
X579033Y233349D01*
X570953Y233349D01*
X570821Y233422D01*
X570818Y233423D01*
X570816Y233425D01*
X570498Y233556D01*
X570163Y233694D01*
X570160Y233695D01*
X570157Y233696D01*
X569828Y233791D01*
X569478Y233891D01*
X569475Y233892D01*
X569473Y233892D01*
X569119Y233952D01*
X568776Y234010D01*
X568773Y234010D01*
X568770Y234011D01*
X568070Y234049D01*
X513950Y234049D01*
X507205Y236843D01*
X432359Y311690D01*
X432355Y311692D01*
X432352Y311696D01*
X432090Y311930D01*
X431827Y312164D01*
X431824Y312167D01*
X431821Y312170D01*
X431536Y312371D01*
X431246Y312577D01*
X431242Y312579D01*
X431239Y312581D01*
X430928Y312752D01*
X430623Y312921D01*
X430619Y312923D01*
X430615Y312925D01*
X430290Y313059D01*
X429964Y313194D01*
X429960Y313195D01*
X429956Y313196D01*
X429618Y313293D01*
X429280Y313391D01*
X429276Y313391D01*
X429271Y313392D01*
X428915Y313452D01*
X428577Y313510D01*
X428573Y313510D01*
X428569Y313511D01*
X427869Y313549D01*
X336890Y313549D01*
X336887Y313549D01*
X336884Y313549D01*
X336537Y313529D01*
X336179Y313509D01*
X336176Y313509D01*
X336173Y313509D01*
X335833Y313450D01*
X335476Y313390D01*
X335474Y313389D01*
X335471Y313389D01*
X335126Y313289D01*
X334792Y313193D01*
X334789Y313191D01*
X334786Y313191D01*
X334462Y313056D01*
X334134Y312920D01*
X334131Y312918D01*
X334129Y312917D01*
X333817Y312745D01*
X333510Y312575D01*
X333508Y312573D01*
X333505Y312572D01*
X333208Y312361D01*
X332929Y312163D01*
X332927Y312161D01*
X332925Y312159D01*
X332646Y311909D01*
X332398Y311688D01*
X332396Y311685D01*
X332394Y311684D01*
X332156Y311416D01*
X331924Y311156D01*
X331922Y311154D01*
X331920Y311152D01*
X331722Y310871D01*
X331512Y310575D01*
X331510Y310572D01*
X331509Y310570D01*
X331346Y310274D01*
X331168Y309951D01*
X331167Y309948D01*
X331165Y309946D01*
X331034Y309628D01*
X330896Y309293D01*
X330895Y309290D01*
X330894Y309287D01*
X330799Y308958D01*
X330699Y308608D01*
X330698Y308605D01*
X330698Y308603D01*
X330636Y308237D01*
X330580Y307906D01*
X330580Y307903D01*
X330579Y307900D01*
X330541Y307200D01*
X330541Y303917D01*
X329204Y298927D01*
X326620Y294453D01*
X322679Y290511D01*
X322640Y290481D01*
X322557Y290401D01*
X322469Y290328D01*
X322302Y290154D01*
X322127Y289986D01*
X322054Y289898D01*
X321975Y289815D01*
X321828Y289624D01*
X321674Y289437D01*
X321611Y289341D01*
X321541Y289250D01*
X321416Y289043D01*
X321284Y288840D01*
X321232Y288738D01*
X321173Y288640D01*
X321073Y288420D01*
X320964Y288204D01*
X320924Y288097D01*
X320876Y287992D01*
X320801Y287762D01*
X320717Y287536D01*
X320696Y287449D01*
X316467Y287449D01*
X316377Y287444D01*
X316287Y287447D01*
X316021Y287424D01*
X315755Y287409D01*
X315667Y287394D01*
X315577Y287387D01*
X315307Y287333D01*
X315053Y287290D01*
X315052Y287290D01*
X314973Y287267D01*
X314890Y287250D01*
X314889Y287250D01*
X314629Y287168D01*
X314367Y287092D01*
X314290Y287060D01*
X314209Y287035D01*
X313961Y286924D01*
X313709Y286820D01*
X313636Y286779D01*
X313559Y286745D01*
X313324Y286606D01*
X313086Y286475D01*
X313017Y286426D01*
X312945Y286383D01*
X312726Y286219D01*
X312505Y286062D01*
X312442Y286006D01*
X312375Y285956D01*
X312176Y285769D01*
X311974Y285587D01*
X311918Y285525D01*
X311857Y285467D01*
X311681Y285259D01*
X311499Y285056D01*
X311451Y284987D01*
X311396Y284923D01*
X311245Y284697D01*
X311087Y284475D01*
X311047Y284401D01*
X311000Y284331D01*
X310875Y284090D01*
X310743Y283851D01*
X310711Y283773D01*
X310672Y283699D01*
X310575Y283445D01*
X310471Y283193D01*
X310448Y283112D01*
X310418Y283033D01*
X310350Y282770D01*
X310274Y282508D01*
X310260Y282425D01*
X310239Y282344D01*
X310201Y282074D01*
X310156Y281805D01*
X310151Y281721D01*
X310139Y281638D01*
X310131Y281366D01*
X310116Y281094D01*
X310121Y281010D01*
X310119Y280926D01*
X310141Y280654D01*
X310157Y280383D01*
X310171Y280300D01*
X310178Y280216D01*
X310231Y279949D01*
X310277Y279681D01*
X310300Y279600D01*
X310317Y279517D01*
X310399Y279258D01*
X310475Y278996D01*
X310507Y278919D01*
X310533Y278838D01*
X310644Y278590D01*
X310748Y278338D01*
X310789Y278265D01*
X310823Y278188D01*
X310962Y277953D01*
X311094Y277715D01*
X311142Y277647D01*
X311185Y277574D01*
X311349Y277356D01*
X311507Y277135D01*
X311563Y277072D01*
X311613Y277005D01*
X311801Y276807D01*
X311982Y276604D01*
X312045Y276548D01*
X312103Y276487D01*
X312310Y276312D01*
X312514Y276130D01*
X312583Y276082D01*
X312647Y276027D01*
X312873Y275876D01*
X313095Y275719D01*
X313169Y275678D01*
X313239Y275631D01*
X313481Y275507D01*
X313720Y275375D01*
X313797Y275343D01*
X313872Y275304D01*
X314127Y275207D01*
X314378Y275104D01*
X314459Y275080D01*
X314538Y275050D01*
X314801Y274982D01*
X315063Y274907D01*
X315146Y274893D01*
X315227Y274872D01*
X315497Y274834D01*
X315766Y274789D01*
X315851Y274785D01*
X315933Y274773D01*
X316191Y274766D01*
X316466Y274751D01*
X318855Y274751D01*
X318576Y274386D01*
X317634Y273444D01*
X316577Y272634D01*
X315424Y271968D01*
X314193Y271458D01*
X312907Y271113D01*
X311586Y270939D01*
X309649Y270939D01*
X309649Y280530D01*
X309649Y280533D01*
X309649Y280536D01*
X309630Y280883D01*
X309609Y281241D01*
X309609Y281244D01*
X309609Y281247D01*
X309551Y281587D01*
X309490Y281944D01*
X309489Y281946D01*
X309489Y281949D01*
X309389Y282294D01*
X309293Y282628D01*
X309292Y282631D01*
X309291Y282634D01*
X309156Y282958D01*
X309020Y283286D01*
X309018Y283289D01*
X309017Y283291D01*
X308849Y283596D01*
X308675Y283910D01*
X308674Y283912D01*
X308672Y283915D01*
X308461Y284212D01*
X308263Y284491D01*
X308261Y284493D01*
X308259Y284495D01*
X308024Y284758D01*
X307788Y285022D01*
X307786Y285024D01*
X307784Y285026D01*
X307516Y285264D01*
X307256Y285496D01*
X307254Y285498D01*
X307252Y285500D01*
X306971Y285698D01*
X306675Y285908D01*
X306672Y285910D01*
X306670Y285911D01*
X306383Y286069D01*
X306051Y286252D01*
X306049Y286253D01*
X306046Y286255D01*
X305734Y286383D01*
X305393Y286524D01*
X305390Y286525D01*
X305388Y286526D01*
X305059Y286621D01*
X304708Y286721D01*
X304705Y286722D01*
X304703Y286722D01*
X304349Y286782D01*
X304006Y286840D01*
X304003Y286840D01*
X304000Y286841D01*
X303300Y286879D01*
X303297Y286879D01*
X303294Y286879D01*
X302947Y286859D01*
X302589Y286839D01*
X302586Y286839D01*
X302583Y286839D01*
X302242Y286780D01*
X301886Y286720D01*
X301883Y286719D01*
X301881Y286719D01*
X301535Y286619D01*
X301202Y286523D01*
X301199Y286521D01*
X301196Y286521D01*
X300872Y286386D01*
X300544Y286250D01*
X300541Y286248D01*
X300538Y286247D01*
X300227Y286075D01*
X299920Y285905D01*
X299918Y285903D01*
X299915Y285902D01*
X299614Y285688D01*
X299339Y285493D01*
X299337Y285491D01*
X299335Y285489D01*
X299067Y285249D01*
X298808Y285018D01*
X298806Y285015D01*
X298804Y285014D01*
X298566Y284746D01*
X298334Y284486D01*
X298332Y284484D01*
X298330Y284482D01*
X298130Y284198D01*
X297922Y283905D01*
X297920Y283902D01*
X297919Y283900D01*
X297751Y283596D01*
X297578Y283281D01*
X297576Y283278D01*
X297575Y283276D01*
X297439Y282947D01*
X297305Y282623D01*
X297305Y282620D01*
X297304Y282617D01*
X297209Y282288D01*
X297109Y281938D01*
X297108Y281935D01*
X297107Y281933D01*
X297048Y281577D01*
X296990Y281236D01*
X296990Y281233D01*
X296989Y281230D01*
X296951Y280530D01*
X296951Y270939D01*
X295014Y270939D01*
X293693Y271113D01*
X292407Y271458D01*
X291176Y271968D01*
X290023Y272634D01*
X288966Y273444D01*
X288024Y274386D01*
X287745Y274751D01*
X290134Y274751D01*
X290406Y274766D01*
X290679Y274774D01*
X290762Y274786D01*
X290846Y274791D01*
X291114Y274836D01*
X291384Y274875D01*
X291465Y274896D01*
X291548Y274910D01*
X291809Y274985D01*
X292073Y275054D01*
X292152Y275084D01*
X292233Y275107D01*
X292484Y275212D01*
X292738Y275309D01*
X292813Y275348D01*
X292891Y275380D01*
X293129Y275512D01*
X293371Y275637D01*
X293441Y275684D01*
X293514Y275725D01*
X293736Y275882D01*
X293962Y276034D01*
X294027Y276089D01*
X294095Y276137D01*
X294298Y276318D01*
X294506Y276495D01*
X294563Y276556D01*
X294626Y276612D01*
X294807Y276815D01*
X294994Y277014D01*
X295045Y277081D01*
X295101Y277144D01*
X295258Y277366D01*
X295421Y277584D01*
X295464Y277656D01*
X295513Y277725D01*
X295645Y277964D01*
X295782Y278198D01*
X295816Y278275D01*
X295857Y278349D01*
X295961Y278601D01*
X296071Y278849D01*
X296097Y278929D01*
X296129Y279007D01*
X296204Y279269D01*
X296286Y279528D01*
X296302Y279611D01*
X296326Y279692D01*
X296371Y279960D01*
X296424Y280227D01*
X296430Y280311D01*
X296444Y280394D01*
X296459Y280666D01*
X296482Y280937D01*
X296479Y281022D01*
X296484Y281106D01*
X296468Y281377D01*
X296460Y281650D01*
X296448Y281733D01*
X296443Y281817D01*
X296397Y282085D01*
X296358Y282355D01*
X296337Y282436D01*
X296323Y282519D01*
X296248Y282780D01*
X296179Y283044D01*
X296148Y283123D01*
X296125Y283203D01*
X296021Y283455D01*
X295923Y283709D01*
X295884Y283784D01*
X295852Y283861D01*
X295720Y284099D01*
X295594Y284341D01*
X295547Y284411D01*
X295506Y284484D01*
X295349Y284706D01*
X295197Y284932D01*
X295142Y284996D01*
X295093Y285065D01*
X294912Y285267D01*
X294735Y285475D01*
X294674Y285533D01*
X294618Y285595D01*
X294415Y285777D01*
X294216Y285963D01*
X294149Y286013D01*
X294086Y286069D01*
X293864Y286227D01*
X293646Y286390D01*
X293573Y286432D01*
X293505Y286481D01*
X293266Y286612D01*
X293031Y286750D01*
X292954Y286784D01*
X292880Y286825D01*
X292629Y286928D01*
X292380Y287039D01*
X292299Y287064D01*
X292222Y287096D01*
X291974Y287167D01*
X291711Y287250D01*
X291710Y287250D01*
X291623Y287268D01*
X291537Y287292D01*
X291536Y287293D01*
X291273Y287337D01*
X291011Y287388D01*
X290922Y287396D01*
X290833Y287411D01*
X290558Y287426D01*
X290301Y287447D01*
X290218Y287445D01*
X290133Y287449D01*
X282053Y287449D01*
X281921Y287522D01*
X281918Y287523D01*
X281916Y287525D01*
X281598Y287656D01*
X281263Y287794D01*
X281260Y287795D01*
X281257Y287796D01*
X280928Y287891D01*
X280578Y287991D01*
X280575Y287992D01*
X280573Y287992D01*
X280219Y288052D01*
X279876Y288110D01*
X279873Y288110D01*
X279870Y288111D01*
X279170Y288149D01*
X269850Y288149D01*
X263105Y290943D01*
X234443Y319605D01*
X231649Y326350D01*
X231649Y523650D01*
X234443Y530395D01*
X279605Y575557D01*
X286350Y578351D01*
X580668Y578351D01*
X580850Y578361D01*
X581031Y578361D01*
X581205Y578381D01*
X581379Y578391D01*
X581558Y578421D01*
X581739Y578442D01*
X581910Y578481D01*
X582081Y578510D01*
X582256Y578560D01*
X582434Y578601D01*
X582599Y578659D01*
X582766Y578707D01*
X582934Y578777D01*
X583106Y578837D01*
X583263Y578913D01*
X583424Y578980D01*
X583583Y579068D01*
X583747Y579147D01*
X583895Y579241D01*
X584048Y579325D01*
X584196Y579430D01*
X584350Y579527D01*
X584486Y579637D01*
X584628Y579737D01*
X584764Y579859D01*
X584906Y579972D01*
X585030Y580096D01*
X585159Y580212D01*
X585281Y580348D01*
X585409Y580477D01*
X585518Y580614D01*
X585634Y580744D01*
X585739Y580892D01*
X585852Y581035D01*
X585945Y581182D01*
X586046Y581325D01*
X586134Y581485D01*
X586230Y581639D01*
X586307Y581798D01*
X586390Y581949D01*
X586456Y582109D01*
X586534Y582271D01*
X586548Y582304D01*
X587214Y583457D01*
X588024Y584514D01*
X588966Y585456D01*
X590023Y586266D01*
X591176Y586932D01*
X592407Y587442D01*
X593693Y587787D01*
X595014Y587961D01*
X596951Y587961D01*
X596951Y583587D01*
X596963Y583367D01*
X596966Y583147D01*
X596983Y583012D01*
X596991Y582876D01*
X597027Y582659D01*
X597055Y582440D01*
X597087Y582307D01*
X597110Y582173D01*
X597171Y581962D01*
X597223Y581747D01*
X597270Y581620D01*
X597307Y581489D01*
X597392Y581285D01*
X597467Y581078D01*
X597528Y580957D01*
X597580Y580831D01*
X597687Y580638D01*
X597785Y580441D01*
X597859Y580326D01*
X597925Y580207D01*
X598052Y580028D01*
X598172Y579843D01*
X598259Y579737D01*
X598337Y579627D01*
X598484Y579463D01*
X598624Y579292D01*
X598722Y579197D01*
X598812Y579095D01*
X598977Y578949D01*
X599135Y578795D01*
X599242Y578712D01*
X599344Y578621D01*
X599524Y578493D01*
X599698Y578358D01*
X599814Y578288D01*
X599925Y578209D01*
X600118Y578102D01*
X600306Y577988D01*
X600431Y577930D01*
X600549Y577865D01*
X600743Y577784D01*
X600942Y577692D01*
X601076Y577647D01*
X601207Y577593D01*
X601414Y577533D01*
X601617Y577465D01*
X601756Y577435D01*
X601892Y577396D01*
X602104Y577360D01*
X602314Y577315D01*
X602455Y577301D01*
X602595Y577277D01*
X602809Y577265D01*
X603023Y577244D01*
X603164Y577246D01*
X603306Y577238D01*
X603520Y577250D01*
X603735Y577253D01*
X603876Y577270D01*
X604017Y577278D01*
X604228Y577314D01*
X604442Y577341D01*
X604580Y577375D01*
X604719Y577398D01*
X604926Y577458D01*
X605134Y577508D01*
X605268Y577557D01*
X605404Y577596D01*
X605602Y577679D01*
X605804Y577752D01*
X605931Y577815D01*
X606062Y577870D01*
X606250Y577974D01*
X606442Y578069D01*
X606561Y578146D01*
X606685Y578215D01*
X606860Y578340D01*
X607040Y578456D01*
X607150Y578546D01*
X607265Y578628D01*
X607425Y578771D01*
X607591Y578907D01*
X607690Y579009D01*
X607796Y579103D01*
X607939Y579264D01*
X608089Y579418D01*
X608175Y579529D01*
X608270Y579635D01*
X608394Y579811D01*
X608526Y579980D01*
X608599Y580101D01*
X608681Y580217D01*
X608785Y580405D01*
X608897Y580588D01*
X608957Y580717D01*
X609025Y580841D01*
X609107Y581039D01*
X609197Y581234D01*
X609242Y581369D01*
X609296Y581500D01*
X609356Y581706D01*
X609424Y581910D01*
X609454Y582048D01*
X609493Y582184D01*
X609528Y582396D01*
X609573Y582606D01*
X609587Y582747D01*
X609611Y582887D01*
X609623Y583106D01*
X609644Y583315D01*
X609642Y583449D01*
X609649Y583587D01*
X609649Y587961D01*
X611586Y587961D01*
X612907Y587787D01*
X614193Y587442D01*
X615424Y586932D01*
X616577Y586266D01*
X617634Y585456D01*
X618576Y584514D01*
X618855Y584149D01*
X616466Y584149D01*
X616157Y584132D01*
X615847Y584119D01*
X615801Y584112D01*
X615754Y584109D01*
X615450Y584058D01*
X615143Y584010D01*
X615098Y583998D01*
X615052Y583990D01*
X614755Y583904D01*
X614456Y583823D01*
X614412Y583806D01*
X614367Y583793D01*
X614082Y583674D01*
X613794Y583560D01*
X613752Y583538D01*
X613709Y583520D01*
X613439Y583370D01*
X613165Y583224D01*
X613127Y583198D01*
X613086Y583175D01*
X612835Y582997D01*
X612578Y582820D01*
X612543Y582790D01*
X612505Y582763D01*
X612275Y582557D01*
X612040Y582353D01*
X612009Y582319D01*
X611974Y582288D01*
X611768Y582057D01*
X611558Y581829D01*
X611531Y581791D01*
X611499Y581756D01*
X611320Y581503D01*
X611138Y581254D01*
X611115Y581213D01*
X611088Y581175D01*
X610937Y580903D01*
X610784Y580635D01*
X610766Y580592D01*
X610743Y580551D01*
X610625Y580266D01*
X610503Y579981D01*
X610489Y579936D01*
X610471Y579893D01*
X610386Y579596D01*
X610296Y579299D01*
X610287Y579253D01*
X610274Y579208D01*
X610223Y578902D01*
X610167Y578598D01*
X610163Y578552D01*
X610156Y578506D01*
X610139Y578198D01*
X610117Y577888D01*
X610119Y577841D01*
X610116Y577794D01*
X610134Y577486D01*
X610147Y577176D01*
X610154Y577130D01*
X610157Y577083D01*
X610209Y576779D01*
X610257Y576472D01*
X610269Y576427D01*
X610277Y576381D01*
X610363Y576084D01*
X610445Y575785D01*
X610462Y575741D01*
X610475Y575697D01*
X610593Y575411D01*
X610708Y575123D01*
X610730Y575082D01*
X610748Y575039D01*
X610898Y574768D01*
X611044Y574495D01*
X611071Y574456D01*
X611094Y574416D01*
X611272Y574164D01*
X611449Y573908D01*
X611480Y573873D01*
X611507Y573835D01*
X611712Y573606D01*
X611916Y573371D01*
X611951Y573339D01*
X611982Y573304D01*
X612213Y573099D01*
X612441Y572889D01*
X612479Y572862D01*
X612514Y572830D01*
X612766Y572652D01*
X613017Y572469D01*
X613058Y572446D01*
X613096Y572419D01*
X613366Y572270D01*
X613636Y572116D01*
X613679Y572098D01*
X613720Y572075D01*
X614006Y571957D01*
X614290Y571835D01*
X614335Y571821D01*
X614378Y571804D01*
X614653Y571725D01*
X614961Y571632D01*
X614962Y571631D01*
X615014Y571622D01*
X615063Y571608D01*
X615064Y571608D01*
X615064Y571607D01*
X615363Y571557D01*
X615663Y571502D01*
X615715Y571498D01*
X615767Y571489D01*
X616088Y571472D01*
X616374Y571451D01*
X616420Y571453D01*
X616467Y571451D01*
X620696Y571451D01*
X620720Y571353D01*
X620804Y571127D01*
X620881Y570897D01*
X620929Y570793D01*
X620968Y570685D01*
X621077Y570470D01*
X621179Y570250D01*
X621238Y570152D01*
X621290Y570050D01*
X621422Y569847D01*
X621548Y569640D01*
X621617Y569550D01*
X621680Y569454D01*
X621835Y569268D01*
X621982Y569076D01*
X622062Y568994D01*
X622135Y568905D01*
X622309Y568738D01*
X622478Y568564D01*
X622566Y568491D01*
X622649Y568412D01*
X622682Y568386D01*
X626620Y564447D01*
X629204Y559973D01*
X630541Y554983D01*
X630541Y551700D01*
X630541Y551697D01*
X630541Y551694D01*
X630561Y551347D01*
X630581Y550989D01*
X630581Y550986D01*
X630581Y550983D01*
X630640Y550643D01*
X630700Y550286D01*
X630701Y550284D01*
X630701Y550281D01*
X630802Y549934D01*
X630897Y549602D01*
X630899Y549599D01*
X630899Y549596D01*
X631034Y549272D01*
X631170Y548944D01*
X631172Y548941D01*
X631173Y548939D01*
X631349Y548621D01*
X631515Y548320D01*
X631517Y548318D01*
X631518Y548315D01*
X631730Y548018D01*
X631927Y547739D01*
X631929Y547737D01*
X631931Y547735D01*
X632176Y547462D01*
X632402Y547208D01*
X632405Y547206D01*
X632406Y547204D01*
X632674Y546966D01*
X632934Y546734D01*
X632936Y546732D01*
X632938Y546730D01*
X633219Y546532D01*
X633515Y546322D01*
X633518Y546320D01*
X633520Y546319D01*
X633816Y546156D01*
X634139Y545978D01*
X634142Y545977D01*
X634144Y545975D01*
X634462Y545844D01*
X634797Y545706D01*
X634800Y545705D01*
X634803Y545704D01*
X635132Y545609D01*
X635482Y545509D01*
X635485Y545508D01*
X635487Y545508D01*
X635841Y545448D01*
X636184Y545390D01*
X636187Y545390D01*
X636190Y545389D01*
X636890Y545351D01*
X773150Y545351D01*
X779895Y542557D01*
X828571Y493880D01*
X828575Y493878D01*
X828578Y493874D01*
X828840Y493640D01*
X829103Y493406D01*
X829106Y493403D01*
X829109Y493400D01*
X829394Y493199D01*
X829684Y492993D01*
X829688Y492991D01*
X829691Y492989D01*
X830002Y492818D01*
X830307Y492649D01*
X830311Y492647D01*
X830315Y492645D01*
X830640Y492511D01*
X830966Y492376D01*
X830970Y492375D01*
X830974Y492374D01*
X831312Y492277D01*
X831650Y492179D01*
X831654Y492179D01*
X831659Y492178D01*
X832015Y492118D01*
X832353Y492060D01*
X832357Y492060D01*
X832361Y492059D01*
X833061Y492021D01*
X834303Y492021D01*
X838235Y490967D01*
X838357Y490942D01*
X838476Y490908D01*
X838705Y490869D01*
X838933Y490822D01*
X839056Y490810D01*
X839179Y490789D01*
X839416Y490776D01*
X839642Y490755D01*
X839759Y490757D01*
X839879Y490751D01*
X871250Y490751D01*
X877995Y487957D01*
X905557Y460395D01*
X908351Y453650D01*
X908351Y296350D01*
X905557Y289605D01*
X878195Y262243D01*
X871450Y259449D01*
X625790Y259449D01*
X625787Y259449D01*
X625784Y259449D01*
X625437Y259429D01*
X625079Y259409D01*
X625076Y259409D01*
X625073Y259409D01*
X624733Y259350D01*
X624376Y259290D01*
X624374Y259289D01*
X624371Y259289D01*
X624026Y259189D01*
X623692Y259093D01*
X623689Y259091D01*
X623686Y259091D01*
X623362Y258956D01*
X623034Y258820D01*
X623031Y258818D01*
X623029Y258817D01*
X622717Y258645D01*
X622410Y258475D01*
X622408Y258473D01*
X622405Y258472D01*
X622108Y258261D01*
X621829Y258063D01*
X621827Y258061D01*
X621825Y258059D01*
X621557Y257819D01*
X621298Y257588D01*
X621296Y257585D01*
X621294Y257584D01*
X621052Y257312D01*
X620824Y257056D01*
X620822Y257054D01*
X620820Y257052D01*
X620622Y256771D01*
X620412Y256475D01*
X620410Y256472D01*
X620409Y256470D01*
X620243Y256169D01*
X620068Y255851D01*
X620067Y255848D01*
X620065Y255846D01*
X619934Y255527D01*
X619796Y255193D01*
X619795Y255190D01*
X619794Y255187D01*
X619698Y254855D01*
X619599Y254508D01*
X619598Y254505D01*
X619598Y254503D01*
X619538Y254149D01*
X619480Y253806D01*
X619480Y253803D01*
X619479Y253800D01*
X619441Y253100D01*
X619441Y249817D01*
X618104Y244827D01*
X615520Y240353D01*
X611579Y236411D01*
X611540Y236381D01*
X611457Y236301D01*
X611369Y236228D01*
X611202Y236054D01*
X611027Y235886D01*
X610954Y235798D01*
X610875Y235715D01*
X610728Y235524D01*
X610574Y235337D01*
X610511Y235241D01*
X610441Y235150D01*
X610316Y234943D01*
X610184Y234740D01*
X610132Y234638D01*
X610073Y234540D01*
X609973Y234320D01*
X609864Y234104D01*
X609824Y233997D01*
X609776Y233892D01*
X609701Y233662D01*
X609617Y233436D01*
X609596Y233349D01*
X605367Y233349D01*
X605277Y233344D01*
X605187Y233347D01*
X604921Y233324D01*
X604655Y233309D01*
X604567Y233294D01*
X604477Y233287D01*
X604207Y233233D01*
X603953Y233190D01*
X603952Y233190D01*
X603873Y233167D01*
X603790Y233150D01*
X603789Y233150D01*
X603529Y233068D01*
X603267Y232992D01*
X603190Y232960D01*
X603109Y232935D01*
X602861Y232824D01*
X602609Y232720D01*
X602536Y232679D01*
X602459Y232645D01*
X602224Y232506D01*
X601986Y232375D01*
X601917Y232326D01*
X601845Y232283D01*
X601626Y232119D01*
X601405Y231962D01*
X601342Y231906D01*
X601275Y231856D01*
X601076Y231669D01*
X600874Y231487D01*
X600818Y231425D01*
X600757Y231367D01*
X600581Y231159D01*
X600399Y230956D01*
X600351Y230887D01*
X600296Y230823D01*
X600145Y230597D01*
X599987Y230375D01*
X599947Y230301D01*
X599900Y230231D01*
X599775Y229990D01*
X599643Y229751D01*
X599611Y229673D01*
X599572Y229599D01*
X599475Y229345D01*
X599371Y229093D01*
X599348Y229012D01*
X599318Y228933D01*
X599250Y228670D01*
X599174Y228408D01*
X599160Y228325D01*
X599139Y228244D01*
X599101Y227974D01*
X599056Y227705D01*
X599051Y227621D01*
X599039Y227538D01*
X599031Y227266D01*
X599016Y226994D01*
X599021Y226910D01*
X599019Y226826D01*
X599041Y226554D01*
X599057Y226283D01*
X599071Y226200D01*
X599078Y226116D01*
X599131Y225849D01*
X599177Y225581D01*
X599200Y225500D01*
X599217Y225417D01*
X599299Y225158D01*
X599375Y224896D01*
X599407Y224819D01*
X599433Y224738D01*
X599544Y224490D01*
X599648Y224238D01*
X599689Y224165D01*
X599723Y224088D01*
X599862Y223853D01*
X599994Y223615D01*
X600042Y223547D01*
X600085Y223474D01*
X600249Y223256D01*
X600407Y223035D01*
X600463Y222972D01*
X600513Y222905D01*
X600701Y222707D01*
X600882Y222504D01*
X600945Y222448D01*
X601003Y222387D01*
X601210Y222212D01*
X601414Y222030D01*
X601483Y221982D01*
X601547Y221927D01*
X601773Y221776D01*
X601995Y221619D01*
X602069Y221578D01*
X602139Y221531D01*
X602381Y221407D01*
X602620Y221275D01*
X602697Y221243D01*
X602772Y221204D01*
X603027Y221107D01*
X603278Y221004D01*
X603359Y220980D01*
X603438Y220950D01*
X603701Y220882D01*
X603963Y220807D01*
X604046Y220793D01*
X604127Y220772D01*
X604397Y220734D01*
X604666Y220689D01*
X604751Y220685D01*
X604833Y220673D01*
X605091Y220666D01*
X605366Y220651D01*
X607755Y220651D01*
X607476Y220286D01*
X606534Y219344D01*
X605477Y218534D01*
X604324Y217868D01*
X603093Y217358D01*
X601807Y217013D01*
X600486Y216839D01*
X598549Y216839D01*
X598549Y226430D01*
X598549Y226433D01*
X598549Y226436D01*
X598530Y226783D01*
X598509Y227141D01*
X598509Y227144D01*
X598509Y227147D01*
X598451Y227487D01*
X598390Y227844D01*
X598389Y227846D01*
X598389Y227849D01*
X598289Y228194D01*
X598193Y228528D01*
X598192Y228531D01*
X598191Y228534D01*
X598061Y228847D01*
X597920Y229186D01*
X597918Y229189D01*
X597917Y229191D01*
X597749Y229496D01*
X597575Y229810D01*
X597574Y229812D01*
X597572Y229815D01*
X597361Y230112D01*
X597163Y230391D01*
X597161Y230393D01*
X597159Y230395D01*
X596919Y230663D01*
X596688Y230922D01*
X596686Y230924D01*
X596684Y230926D01*
X596416Y231164D01*
X596156Y231396D01*
X596154Y231398D01*
X596152Y231400D01*
X595871Y231598D01*
X595575Y231808D01*
X595572Y231810D01*
X595570Y231811D01*
X595283Y231969D01*
X594951Y232152D01*
X594949Y232153D01*
X594946Y232155D01*
X594634Y232283D01*
X594293Y232424D01*
X594290Y232425D01*
X594288Y232426D01*
X593959Y232521D01*
X593608Y232621D01*
X593605Y232622D01*
X593603Y232622D01*
X593249Y232682D01*
X592906Y232740D01*
X592903Y232740D01*
X592900Y232741D01*
X592200Y232779D01*
X592197Y232779D01*
X592194Y232779D01*
X591847Y232759D01*
X591489Y232739D01*
X591486Y232739D01*
X591483Y232739D01*
X591142Y232680D01*
X590786Y232620D01*
X590783Y232619D01*
X590781Y232619D01*
X590435Y232519D01*
X590102Y232423D01*
X590099Y232421D01*
X590096Y232421D01*
X589772Y232286D01*
X589444Y232150D01*
X589441Y232148D01*
X589438Y232147D01*
X589127Y231975D01*
X588820Y231805D01*
X588818Y231803D01*
X588815Y231802D01*
X588514Y231588D01*
X588239Y231393D01*
X588237Y231391D01*
X588235Y231389D01*
X587967Y231149D01*
X587708Y230918D01*
X587706Y230915D01*
X587704Y230914D01*
X587466Y230646D01*
X587234Y230386D01*
X587232Y230384D01*
X587230Y230382D01*
X587030Y230098D01*
X586822Y229805D01*
X586820Y229802D01*
X586819Y229800D01*
X586651Y229496D01*
X586478Y229181D01*
X586476Y229178D01*
X586475Y229176D01*
X586339Y228847D01*
X586205Y228523D01*
X586205Y228520D01*
X586204Y228517D01*
X586109Y228188D01*
X586009Y227838D01*
X586008Y227835D01*
X586007Y227833D01*
X585948Y227477D01*
X585890Y227136D01*
X585890Y227133D01*
X585889Y227130D01*
X585851Y226430D01*
X585851Y216839D01*
X583914Y216839D01*
G37*
%LPD*%
G36*
X558613Y270751D02*
X558613Y270751D01*
X558616Y270751D01*
X558963Y270771D01*
X559321Y270791D01*
X559324Y270791D01*
X559327Y270791D01*
X559667Y270850D01*
X560024Y270910D01*
X560026Y270911D01*
X560029Y270911D01*
X560374Y271011D01*
X560708Y271107D01*
X560711Y271109D01*
X560714Y271109D01*
X561038Y271244D01*
X561366Y271380D01*
X561369Y271382D01*
X561371Y271383D01*
X561676Y271551D01*
X561990Y271725D01*
X561992Y271727D01*
X561995Y271728D01*
X562281Y271932D01*
X562571Y272137D01*
X562573Y272139D01*
X562575Y272141D01*
X562842Y272380D01*
X563102Y272612D01*
X563104Y272615D01*
X563106Y272616D01*
X563344Y272884D01*
X563576Y273144D01*
X563578Y273146D01*
X563580Y273148D01*
X563775Y273425D01*
X563988Y273725D01*
X563990Y273728D01*
X563991Y273730D01*
X564153Y274023D01*
X564332Y274349D01*
X564333Y274352D01*
X564335Y274354D01*
X564466Y274672D01*
X564604Y275007D01*
X564605Y275010D01*
X564606Y275013D01*
X564694Y275317D01*
X564801Y275692D01*
X564802Y275695D01*
X564802Y275697D01*
X564862Y276051D01*
X564920Y276394D01*
X564920Y276397D01*
X564921Y276400D01*
X564959Y277100D01*
X564959Y280383D01*
X566296Y285373D01*
X568880Y289847D01*
X572533Y293500D01*
X577007Y296084D01*
X581997Y297421D01*
X602403Y297421D01*
X606335Y296367D01*
X606457Y296342D01*
X606576Y296308D01*
X606805Y296269D01*
X607033Y296222D01*
X607156Y296210D01*
X607279Y296189D01*
X607516Y296176D01*
X607742Y296155D01*
X607859Y296157D01*
X607979Y296151D01*
X857569Y296151D01*
X857573Y296151D01*
X857578Y296151D01*
X857931Y296171D01*
X858280Y296191D01*
X858284Y296191D01*
X858289Y296192D01*
X858640Y296252D01*
X858983Y296310D01*
X858987Y296311D01*
X858991Y296312D01*
X859343Y296414D01*
X859667Y296507D01*
X859671Y296509D01*
X859675Y296510D01*
X860001Y296646D01*
X860325Y296780D01*
X860329Y296782D01*
X860333Y296784D01*
X860640Y296954D01*
X860949Y297125D01*
X860952Y297127D01*
X860956Y297130D01*
X861255Y297342D01*
X861530Y297537D01*
X861533Y297540D01*
X861536Y297543D01*
X862059Y298010D01*
X869790Y305741D01*
X869792Y305745D01*
X869796Y305748D01*
X870030Y306010D01*
X870264Y306273D01*
X870267Y306276D01*
X870270Y306279D01*
X870462Y306551D01*
X870677Y306854D01*
X870679Y306858D01*
X870681Y306861D01*
X870852Y307172D01*
X871021Y307477D01*
X871023Y307481D01*
X871025Y307485D01*
X871159Y307810D01*
X871294Y308136D01*
X871295Y308140D01*
X871296Y308144D01*
X871393Y308482D01*
X871491Y308820D01*
X871491Y308824D01*
X871492Y308829D01*
X871552Y309185D01*
X871610Y309523D01*
X871610Y309527D01*
X871611Y309531D01*
X871649Y310231D01*
X871649Y439769D01*
X871649Y439773D01*
X871649Y439777D01*
X871629Y440130D01*
X871609Y440480D01*
X871609Y440484D01*
X871608Y440489D01*
X871549Y440835D01*
X871490Y441183D01*
X871489Y441187D01*
X871488Y441191D01*
X871387Y441540D01*
X871293Y441867D01*
X871291Y441871D01*
X871290Y441875D01*
X871156Y442197D01*
X871020Y442525D01*
X871018Y442529D01*
X871016Y442533D01*
X870849Y442835D01*
X870675Y443149D01*
X870673Y443152D01*
X870670Y443156D01*
X870462Y443449D01*
X870263Y443730D01*
X870260Y443733D01*
X870257Y443736D01*
X869790Y444259D01*
X862180Y451869D01*
X862179Y451870D01*
X862178Y451871D01*
X861900Y452118D01*
X861648Y452343D01*
X861647Y452344D01*
X861646Y452345D01*
X861325Y452572D01*
X861067Y452755D01*
X861066Y452756D01*
X861065Y452757D01*
X860738Y452938D01*
X860444Y453100D01*
X860442Y453101D01*
X860441Y453101D01*
X860123Y453233D01*
X859785Y453372D01*
X859784Y453373D01*
X859783Y453373D01*
X859438Y453472D01*
X859101Y453569D01*
X859100Y453570D01*
X859098Y453570D01*
X858737Y453631D01*
X858398Y453689D01*
X858397Y453689D01*
X858396Y453689D01*
X858047Y453708D01*
X857687Y453728D01*
X857686Y453728D01*
X857684Y453728D01*
X857349Y453709D01*
X856976Y453688D01*
X856974Y453688D01*
X856973Y453688D01*
X856661Y453634D01*
X856274Y453568D01*
X856272Y453568D01*
X856271Y453568D01*
X855935Y453470D01*
X855589Y453371D01*
X855588Y453370D01*
X855586Y453370D01*
X855254Y453231D01*
X854931Y453098D01*
X854930Y453097D01*
X854929Y453096D01*
X854628Y452929D01*
X854308Y452752D01*
X854307Y452752D01*
X854305Y452751D01*
X854055Y452573D01*
X853727Y452340D01*
X853726Y452339D01*
X853725Y452338D01*
X853486Y452124D01*
X853196Y451865D01*
X853195Y451863D01*
X853194Y451863D01*
X852943Y451580D01*
X852722Y451333D01*
X852721Y451332D01*
X852720Y451331D01*
X852502Y451022D01*
X852310Y450751D01*
X852310Y450750D01*
X852309Y450749D01*
X852134Y450431D01*
X851967Y450128D01*
X851966Y450126D01*
X851965Y450125D01*
X851832Y449801D01*
X851695Y449469D01*
X851694Y449468D01*
X851694Y449466D01*
X851600Y449139D01*
X851498Y448784D01*
X851498Y448783D01*
X851498Y448781D01*
X851441Y448442D01*
X851380Y448082D01*
X851380Y448080D01*
X851379Y448079D01*
X851341Y447379D01*
X851341Y444417D01*
X850004Y439427D01*
X848877Y437475D01*
X848821Y437365D01*
X848758Y437260D01*
X848661Y437047D01*
X848556Y436839D01*
X848513Y436724D01*
X848462Y436612D01*
X848389Y436390D01*
X848308Y436171D01*
X848278Y436052D01*
X848240Y435935D01*
X848193Y435706D01*
X848136Y435479D01*
X848120Y435358D01*
X848096Y435237D01*
X848074Y435005D01*
X848044Y434773D01*
X848041Y434650D01*
X848030Y434528D01*
X848035Y434294D01*
X848030Y434061D01*
X848042Y433939D01*
X848044Y433816D01*
X848075Y433584D01*
X848097Y433351D01*
X848122Y433231D01*
X848139Y433110D01*
X848195Y432882D01*
X848243Y432654D01*
X848281Y432538D01*
X848311Y432418D01*
X848393Y432199D01*
X848466Y431977D01*
X848517Y431866D01*
X848560Y431751D01*
X848668Y431537D01*
X848763Y431330D01*
X848823Y431231D01*
X848877Y431125D01*
X850004Y429173D01*
X851341Y424183D01*
X851341Y419017D01*
X850004Y414027D01*
X848877Y412075D01*
X848821Y411965D01*
X848758Y411860D01*
X848661Y411647D01*
X848556Y411439D01*
X848513Y411324D01*
X848462Y411212D01*
X848389Y410990D01*
X848308Y410771D01*
X848278Y410652D01*
X848240Y410535D01*
X848193Y410306D01*
X848136Y410079D01*
X848120Y409958D01*
X848096Y409837D01*
X848074Y409605D01*
X848044Y409373D01*
X848041Y409250D01*
X848030Y409128D01*
X848035Y408894D01*
X848030Y408661D01*
X848042Y408539D01*
X848044Y408416D01*
X848075Y408184D01*
X848097Y407951D01*
X848122Y407831D01*
X848139Y407710D01*
X848195Y407482D01*
X848243Y407254D01*
X848281Y407138D01*
X848311Y407018D01*
X848393Y406799D01*
X848466Y406577D01*
X848517Y406466D01*
X848560Y406351D01*
X848668Y406137D01*
X848763Y405930D01*
X848823Y405831D01*
X848877Y405725D01*
X850004Y403773D01*
X851341Y398783D01*
X851341Y393617D01*
X850004Y388627D01*
X848877Y386675D01*
X848821Y386565D01*
X848758Y386460D01*
X848661Y386247D01*
X848556Y386039D01*
X848513Y385924D01*
X848462Y385812D01*
X848389Y385590D01*
X848308Y385371D01*
X848278Y385252D01*
X848240Y385135D01*
X848193Y384906D01*
X848136Y384679D01*
X848120Y384558D01*
X848096Y384437D01*
X848074Y384205D01*
X848044Y383973D01*
X848041Y383850D01*
X848030Y383728D01*
X848035Y383494D01*
X848030Y383261D01*
X848042Y383139D01*
X848044Y383016D01*
X848075Y382784D01*
X848097Y382551D01*
X848122Y382431D01*
X848139Y382310D01*
X848195Y382082D01*
X848243Y381854D01*
X848281Y381738D01*
X848311Y381618D01*
X848393Y381399D01*
X848466Y381177D01*
X848517Y381066D01*
X848560Y380951D01*
X848668Y380737D01*
X848763Y380530D01*
X848823Y380431D01*
X848877Y380325D01*
X850004Y378373D01*
X851341Y373383D01*
X851341Y368217D01*
X850004Y363227D01*
X847420Y358753D01*
X843479Y354811D01*
X843440Y354781D01*
X843357Y354701D01*
X843269Y354628D01*
X843102Y354454D01*
X842927Y354286D01*
X842854Y354198D01*
X842775Y354115D01*
X842628Y353924D01*
X842474Y353737D01*
X842411Y353641D01*
X842341Y353550D01*
X842216Y353343D01*
X842084Y353140D01*
X842032Y353038D01*
X841973Y352940D01*
X841873Y352720D01*
X841764Y352504D01*
X841724Y352397D01*
X841676Y352292D01*
X841601Y352062D01*
X841517Y351836D01*
X841496Y351749D01*
X837267Y351749D01*
X837196Y351745D01*
X837125Y351748D01*
X836840Y351725D01*
X836555Y351709D01*
X836486Y351698D01*
X836415Y351692D01*
X836122Y351636D01*
X835853Y351590D01*
X835852Y351590D01*
X835791Y351572D01*
X835727Y351560D01*
X835726Y351560D01*
X835447Y351473D01*
X835167Y351392D01*
X835107Y351367D01*
X835045Y351348D01*
X834779Y351231D01*
X834509Y351120D01*
X834452Y351088D01*
X834393Y351062D01*
X834140Y350916D01*
X833886Y350775D01*
X833833Y350737D01*
X833777Y350705D01*
X833542Y350530D01*
X833305Y350362D01*
X833257Y350319D01*
X833204Y350280D01*
X832991Y350081D01*
X832774Y349887D01*
X832731Y349839D01*
X832683Y349795D01*
X832494Y349574D01*
X832299Y349356D01*
X832262Y349303D01*
X832220Y349254D01*
X832056Y349013D01*
X831887Y348775D01*
X831856Y348718D01*
X831820Y348664D01*
X831684Y348406D01*
X831543Y348151D01*
X831518Y348091D01*
X831488Y348033D01*
X831382Y347762D01*
X831271Y347493D01*
X831253Y347430D01*
X831230Y347370D01*
X831155Y347088D01*
X831074Y346808D01*
X831063Y346744D01*
X831047Y346681D01*
X831004Y346392D01*
X830956Y346105D01*
X830952Y346041D01*
X830942Y345976D01*
X830932Y345685D01*
X830916Y345394D01*
X830920Y345329D01*
X830918Y345264D01*
X830940Y344973D01*
X830957Y344683D01*
X830968Y344619D01*
X830973Y344554D01*
X831028Y344267D01*
X831077Y343981D01*
X831095Y343918D01*
X831107Y343854D01*
X831194Y343576D01*
X831275Y343296D01*
X831300Y343236D01*
X831319Y343174D01*
X831436Y342908D01*
X831548Y342638D01*
X831580Y342582D01*
X831606Y342522D01*
X831752Y342270D01*
X831894Y342015D01*
X831931Y341962D01*
X831964Y341906D01*
X832138Y341672D01*
X832307Y341435D01*
X832350Y341386D01*
X832389Y341334D01*
X832588Y341121D01*
X832782Y340904D01*
X832830Y340861D01*
X832875Y340813D01*
X833096Y340624D01*
X833314Y340430D01*
X833367Y340393D01*
X833416Y340350D01*
X833658Y340187D01*
X833895Y340019D01*
X833952Y339987D01*
X834006Y339951D01*
X834265Y339815D01*
X834519Y339675D01*
X834579Y339650D01*
X834637Y339620D01*
X834909Y339514D01*
X835178Y339404D01*
X835241Y339386D01*
X835301Y339362D01*
X835583Y339287D01*
X835863Y339207D01*
X835927Y339197D01*
X835990Y339180D01*
X836278Y339138D01*
X836566Y339089D01*
X836631Y339086D01*
X836695Y339076D01*
X836968Y339067D01*
X837265Y339051D01*
X839655Y339051D01*
X839376Y338686D01*
X838434Y337744D01*
X837377Y336934D01*
X836224Y336268D01*
X834993Y335758D01*
X833707Y335413D01*
X832386Y335239D01*
X830449Y335239D01*
X830449Y344830D01*
X830449Y344833D01*
X830449Y344836D01*
X830430Y345183D01*
X830409Y345541D01*
X830409Y345544D01*
X830409Y345547D01*
X830351Y345887D01*
X830290Y346244D01*
X830289Y346246D01*
X830289Y346249D01*
X830193Y346580D01*
X830093Y346928D01*
X830092Y346931D01*
X830091Y346934D01*
X829956Y347258D01*
X829820Y347586D01*
X829818Y347589D01*
X829817Y347591D01*
X829649Y347896D01*
X829475Y348210D01*
X829474Y348212D01*
X829472Y348215D01*
X829261Y348512D01*
X829063Y348791D01*
X829061Y348793D01*
X829059Y348795D01*
X828819Y349063D01*
X828588Y349322D01*
X828586Y349324D01*
X828584Y349326D01*
X828316Y349564D01*
X828056Y349796D01*
X828054Y349798D01*
X828052Y349800D01*
X827771Y349998D01*
X827475Y350208D01*
X827472Y350210D01*
X827470Y350211D01*
X827174Y350374D01*
X826851Y350552D01*
X826849Y350553D01*
X826846Y350555D01*
X826528Y350686D01*
X826193Y350824D01*
X826190Y350825D01*
X826188Y350826D01*
X825865Y350919D01*
X825508Y351021D01*
X825505Y351022D01*
X825503Y351022D01*
X825149Y351082D01*
X824806Y351140D01*
X824803Y351140D01*
X824800Y351141D01*
X824100Y351179D01*
X824097Y351179D01*
X824094Y351179D01*
X823747Y351159D01*
X823389Y351139D01*
X823386Y351139D01*
X823383Y351139D01*
X823042Y351080D01*
X822686Y351020D01*
X822683Y351019D01*
X822681Y351019D01*
X822335Y350919D01*
X822002Y350823D01*
X821999Y350821D01*
X821996Y350821D01*
X821671Y350686D01*
X821344Y350550D01*
X821341Y350548D01*
X821338Y350547D01*
X821022Y350372D01*
X820720Y350205D01*
X820718Y350203D01*
X820715Y350202D01*
X820412Y349987D01*
X820139Y349793D01*
X820137Y349791D01*
X820135Y349789D01*
X819867Y349549D01*
X819608Y349318D01*
X819606Y349315D01*
X819604Y349314D01*
X819366Y349046D01*
X819134Y348786D01*
X819132Y348784D01*
X819130Y348782D01*
X818930Y348498D01*
X818722Y348205D01*
X818720Y348202D01*
X818719Y348200D01*
X818551Y347896D01*
X818378Y347581D01*
X818376Y347578D01*
X818375Y347576D01*
X818244Y347258D01*
X818105Y346923D01*
X818105Y346920D01*
X818104Y346917D01*
X818007Y346580D01*
X817909Y346238D01*
X817908Y346235D01*
X817907Y346233D01*
X817848Y345877D01*
X817790Y345536D01*
X817790Y345533D01*
X817789Y345530D01*
X817751Y344830D01*
X817751Y335239D01*
X815814Y335239D01*
X814493Y335413D01*
X813207Y335758D01*
X811976Y336268D01*
X810823Y336934D01*
X809766Y337744D01*
X808824Y338686D01*
X808014Y339743D01*
X807943Y339864D01*
X808061Y339925D01*
X808141Y339978D01*
X808226Y340025D01*
X808437Y340175D01*
X808654Y340319D01*
X808728Y340382D01*
X808807Y340437D01*
X809000Y340610D01*
X809199Y340778D01*
X809266Y340848D01*
X809338Y340912D01*
X809511Y341106D01*
X809690Y341295D01*
X809748Y341372D01*
X809812Y341444D01*
X809962Y341656D01*
X810119Y341863D01*
X810168Y341946D01*
X810224Y342025D01*
X810350Y342253D01*
X810482Y342476D01*
X810522Y342564D01*
X810568Y342649D01*
X810668Y342889D01*
X810774Y343126D01*
X810803Y343218D01*
X810840Y343307D01*
X810912Y343557D01*
X810991Y343804D01*
X811010Y343899D01*
X811037Y343992D01*
X811080Y344248D01*
X811132Y344503D01*
X811140Y344599D01*
X811156Y344694D01*
X811170Y344953D01*
X811192Y345213D01*
X811190Y345309D01*
X811195Y345406D01*
X811180Y345665D01*
X811173Y345925D01*
X811160Y346020D01*
X811155Y346117D01*
X811111Y346373D01*
X811075Y346630D01*
X811051Y346724D01*
X811035Y346819D01*
X810962Y347069D01*
X810898Y347320D01*
X810863Y347411D01*
X810837Y347503D01*
X810737Y347744D01*
X810644Y347986D01*
X810600Y348072D01*
X810563Y348161D01*
X810437Y348389D01*
X810318Y348620D01*
X810265Y348700D01*
X810218Y348784D01*
X810067Y348996D01*
X809923Y349212D01*
X809861Y349286D01*
X809805Y349365D01*
X809631Y349558D01*
X809464Y349757D01*
X809394Y349824D01*
X809329Y349895D01*
X809136Y350068D01*
X808947Y350247D01*
X808870Y350305D01*
X808798Y350369D01*
X808585Y350520D01*
X808378Y350676D01*
X808295Y350725D01*
X808216Y350781D01*
X807988Y350906D01*
X807765Y351038D01*
X807676Y351078D01*
X807592Y351125D01*
X807364Y351219D01*
X807125Y351326D01*
X807124Y351326D01*
X807027Y351357D01*
X806933Y351396D01*
X806688Y351466D01*
X806446Y351544D01*
X806346Y351564D01*
X806248Y351593D01*
X805997Y351635D01*
X805748Y351685D01*
X805646Y351694D01*
X805545Y351711D01*
X805283Y351725D01*
X805038Y351746D01*
X804943Y351744D01*
X804845Y351749D01*
X803024Y351749D01*
X802721Y351916D01*
X802718Y351917D01*
X802716Y351919D01*
X802398Y352050D01*
X802063Y352188D01*
X802060Y352189D01*
X802057Y352190D01*
X801728Y352285D01*
X801378Y352385D01*
X801375Y352386D01*
X801373Y352386D01*
X801019Y352446D01*
X800676Y352504D01*
X800673Y352504D01*
X800670Y352505D01*
X799970Y352543D01*
X745456Y352543D01*
X738711Y355337D01*
X732656Y361392D01*
X716065Y377984D01*
X716061Y377986D01*
X716058Y377990D01*
X715796Y378224D01*
X715533Y378458D01*
X715530Y378461D01*
X715527Y378464D01*
X715247Y378661D01*
X714952Y378871D01*
X714948Y378873D01*
X714945Y378875D01*
X714635Y379046D01*
X714329Y379215D01*
X714325Y379217D01*
X714321Y379219D01*
X713996Y379353D01*
X713670Y379488D01*
X713666Y379489D01*
X713662Y379490D01*
X713324Y379587D01*
X712986Y379685D01*
X712982Y379685D01*
X712977Y379686D01*
X712621Y379746D01*
X712283Y379804D01*
X712279Y379804D01*
X712275Y379805D01*
X711575Y379843D01*
X335339Y379843D01*
X335099Y379830D01*
X334858Y379825D01*
X334743Y379810D01*
X334628Y379803D01*
X334391Y379763D01*
X334152Y379731D01*
X334039Y379703D01*
X333926Y379684D01*
X333694Y379617D01*
X333460Y379559D01*
X333352Y379519D01*
X333241Y379487D01*
X333019Y379394D01*
X332793Y379310D01*
X332690Y379258D01*
X332583Y379214D01*
X332372Y379097D01*
X332157Y378988D01*
X332061Y378925D01*
X331960Y378869D01*
X331763Y378730D01*
X331562Y378597D01*
X331473Y378523D01*
X331379Y378457D01*
X331199Y378296D01*
X331014Y378142D01*
X330934Y378059D01*
X330848Y377982D01*
X330687Y377802D01*
X330520Y377628D01*
X330450Y377536D01*
X330373Y377450D01*
X330234Y377253D01*
X330088Y377062D01*
X330028Y376963D01*
X329961Y376869D01*
X329845Y376658D01*
X329721Y376451D01*
X329673Y376346D01*
X329617Y376245D01*
X329525Y376022D01*
X329425Y375803D01*
X329389Y375692D01*
X329345Y375587D01*
X329282Y375366D01*
X329206Y375137D01*
X329204Y375127D01*
X328077Y373175D01*
X328021Y373065D01*
X327958Y372960D01*
X327861Y372747D01*
X327756Y372539D01*
X327713Y372424D01*
X327662Y372312D01*
X327589Y372090D01*
X327508Y371871D01*
X327478Y371752D01*
X327440Y371635D01*
X327393Y371406D01*
X327336Y371179D01*
X327320Y371058D01*
X327296Y370937D01*
X327274Y370705D01*
X327244Y370473D01*
X327241Y370350D01*
X327230Y370228D01*
X327235Y369994D01*
X327230Y369761D01*
X327242Y369639D01*
X327244Y369516D01*
X327275Y369284D01*
X327297Y369051D01*
X327322Y368931D01*
X327339Y368810D01*
X327395Y368582D01*
X327443Y368354D01*
X327481Y368238D01*
X327511Y368118D01*
X327593Y367899D01*
X327666Y367677D01*
X327717Y367566D01*
X327760Y367451D01*
X327868Y367237D01*
X327963Y367030D01*
X328023Y366931D01*
X328077Y366825D01*
X329204Y364873D01*
X330541Y359883D01*
X330541Y356600D01*
X330541Y356597D01*
X330541Y356594D01*
X330561Y356247D01*
X330581Y355889D01*
X330581Y355886D01*
X330581Y355883D01*
X330642Y355529D01*
X330700Y355186D01*
X330701Y355184D01*
X330701Y355181D01*
X330808Y354813D01*
X330897Y354502D01*
X330899Y354499D01*
X330899Y354496D01*
X331034Y354172D01*
X331170Y353844D01*
X331172Y353841D01*
X331173Y353839D01*
X331349Y353521D01*
X331515Y353220D01*
X331517Y353218D01*
X331518Y353215D01*
X331733Y352914D01*
X331927Y352639D01*
X331929Y352637D01*
X331931Y352635D01*
X332176Y352362D01*
X332402Y352108D01*
X332405Y352106D01*
X332406Y352104D01*
X332680Y351860D01*
X332934Y351634D01*
X332936Y351632D01*
X332938Y351630D01*
X333219Y351432D01*
X333515Y351222D01*
X333518Y351220D01*
X333520Y351219D01*
X333816Y351056D01*
X334139Y350878D01*
X334142Y350877D01*
X334144Y350875D01*
X334462Y350744D01*
X334797Y350606D01*
X334800Y350605D01*
X334803Y350604D01*
X335132Y350509D01*
X335482Y350409D01*
X335485Y350408D01*
X335487Y350408D01*
X335841Y350348D01*
X336184Y350290D01*
X336187Y350290D01*
X336190Y350289D01*
X336890Y350251D01*
X441750Y350251D01*
X448495Y347457D01*
X523341Y272610D01*
X523345Y272608D01*
X523348Y272604D01*
X523617Y272364D01*
X523873Y272136D01*
X523876Y272133D01*
X523879Y272130D01*
X524164Y271929D01*
X524454Y271723D01*
X524458Y271721D01*
X524461Y271719D01*
X524772Y271548D01*
X525077Y271379D01*
X525081Y271377D01*
X525085Y271375D01*
X525410Y271241D01*
X525736Y271106D01*
X525740Y271105D01*
X525744Y271104D01*
X526082Y271007D01*
X526420Y270909D01*
X526424Y270909D01*
X526429Y270908D01*
X526785Y270848D01*
X527123Y270790D01*
X527127Y270790D01*
X527131Y270789D01*
X527831Y270751D01*
X558610Y270751D01*
X558613Y270751D01*
G37*
%LPC*%
G36*
X256479Y166193D02*
X256479Y166193D01*
X253285Y167516D01*
X253112Y167576D01*
X252943Y167646D01*
X252777Y167694D01*
X252613Y167751D01*
X252434Y167792D01*
X252258Y167842D01*
X252087Y167871D01*
X251918Y167910D01*
X251736Y167930D01*
X251556Y167961D01*
X251380Y167970D01*
X251210Y167989D01*
X251036Y167989D01*
X250856Y167999D01*
X244783Y167999D01*
X243007Y168646D01*
X242775Y168716D01*
X242546Y168794D01*
X242435Y168818D01*
X242325Y168851D01*
X242087Y168895D01*
X241850Y168947D01*
X241737Y168959D01*
X241624Y168979D01*
X241383Y168996D01*
X241142Y169021D01*
X241028Y169020D01*
X240914Y169028D01*
X240671Y169018D01*
X240429Y169016D01*
X240315Y169002D01*
X240202Y168997D01*
X239974Y168961D01*
X239733Y168932D01*
X232931Y167733D01*
X228667Y168485D01*
X228513Y168503D01*
X228359Y168531D01*
X228159Y168545D01*
X227960Y168569D01*
X227804Y168570D01*
X227649Y168580D01*
X227448Y168572D01*
X227248Y168573D01*
X227093Y168557D01*
X226937Y168550D01*
X226739Y168519D01*
X226539Y168498D01*
X226387Y168464D01*
X226233Y168440D01*
X226036Y168386D01*
X225844Y168343D01*
X225704Y168295D01*
X225557Y168255D01*
X224346Y167851D01*
X218919Y168237D01*
X218804Y168272D01*
X218707Y168290D01*
X218611Y168316D01*
X218357Y168355D01*
X218103Y168402D01*
X218005Y168409D01*
X217907Y168424D01*
X217649Y168434D01*
X217393Y168452D01*
X217294Y168448D01*
X217195Y168452D01*
X216938Y168433D01*
X216681Y168423D01*
X216584Y168407D01*
X216485Y168400D01*
X216231Y168353D01*
X215977Y168313D01*
X215882Y168287D01*
X215784Y168269D01*
X215679Y168237D01*
X210166Y167845D01*
X210141Y167849D01*
X210100Y167860D01*
X209789Y167908D01*
X209479Y167961D01*
X209437Y167963D01*
X209396Y167969D01*
X209107Y167981D01*
X208780Y167999D01*
X203017Y167999D01*
X202998Y168007D01*
X202787Y168071D01*
X202578Y168144D01*
X202446Y168174D01*
X202316Y168214D01*
X202099Y168254D01*
X201884Y168303D01*
X201749Y168318D01*
X201616Y168342D01*
X201395Y168358D01*
X201176Y168382D01*
X201040Y168382D01*
X200905Y168392D01*
X200684Y168382D01*
X200463Y168382D01*
X200329Y168367D01*
X200193Y168361D01*
X199975Y168327D01*
X199755Y168302D01*
X199623Y168272D01*
X199489Y168251D01*
X199272Y168192D01*
X199061Y168144D01*
X198940Y168101D01*
X198813Y168066D01*
X198168Y167851D01*
X194136Y168138D01*
X194084Y168139D01*
X194032Y168144D01*
X193728Y168144D01*
X193423Y168149D01*
X193371Y168143D01*
X193319Y168143D01*
X193017Y168109D01*
X192714Y168079D01*
X192663Y168068D01*
X192612Y168062D01*
X192337Y167999D01*
X188797Y167999D01*
X188796Y167999D01*
X188789Y167999D01*
X188788Y167999D01*
X182258Y167999D01*
X177053Y169691D01*
X172625Y172908D01*
X169408Y177336D01*
X167717Y182541D01*
X167717Y195239D01*
X169408Y200444D01*
X172625Y204872D01*
X177053Y208089D01*
X182258Y209781D01*
X192049Y209781D01*
X192556Y209571D01*
X192765Y209498D01*
X192972Y209415D01*
X193101Y209380D01*
X193228Y209336D01*
X193444Y209286D01*
X193659Y209228D01*
X193792Y209207D01*
X193923Y209177D01*
X194143Y209152D01*
X194363Y209118D01*
X194498Y209113D01*
X194631Y209098D01*
X194853Y209098D01*
X195075Y209088D01*
X195209Y209098D01*
X195343Y209098D01*
X195564Y209123D01*
X195786Y209138D01*
X195917Y209163D01*
X196051Y209178D01*
X196268Y209227D01*
X196486Y209268D01*
X196616Y209307D01*
X196745Y209336D01*
X196945Y209407D01*
X197157Y209471D01*
X198009Y209781D01*
X208110Y209781D01*
X208811Y209490D01*
X209028Y209415D01*
X209241Y209330D01*
X209363Y209297D01*
X209483Y209255D01*
X209707Y209204D01*
X209929Y209144D01*
X210054Y209125D01*
X210178Y209097D01*
X210406Y209071D01*
X210633Y209036D01*
X210760Y209031D01*
X210886Y209017D01*
X211115Y209017D01*
X211345Y209008D01*
X211472Y209017D01*
X211598Y209017D01*
X211826Y209043D01*
X212055Y209060D01*
X212180Y209083D01*
X212306Y209097D01*
X212530Y209148D01*
X212756Y209190D01*
X212877Y209228D01*
X213001Y209256D01*
X213217Y209332D01*
X213437Y209399D01*
X213555Y209450D01*
X213673Y209492D01*
X213828Y209566D01*
X213992Y209578D01*
X214080Y209589D01*
X214169Y209593D01*
X214433Y209634D01*
X214698Y209668D01*
X214785Y209689D01*
X214873Y209703D01*
X215140Y209776D01*
X215390Y209837D01*
X215468Y209865D01*
X215550Y209888D01*
X215672Y209929D01*
X216849Y209845D01*
X216950Y209843D01*
X217049Y209834D01*
X217312Y209838D01*
X217562Y209834D01*
X217655Y209843D01*
X217750Y209845D01*
X218927Y209929D01*
X219050Y209888D01*
X219136Y209864D01*
X219220Y209834D01*
X219479Y209771D01*
X219737Y209701D01*
X219826Y209687D01*
X219912Y209666D01*
X220186Y209631D01*
X220441Y209592D01*
X220524Y209588D01*
X220608Y209578D01*
X220737Y209569D01*
X221538Y209168D01*
X221803Y209053D01*
X222066Y208933D01*
X222130Y208912D01*
X222192Y208886D01*
X222469Y208801D01*
X222743Y208712D01*
X222809Y208698D01*
X222874Y208678D01*
X223157Y208626D01*
X223440Y208567D01*
X223508Y208561D01*
X223574Y208549D01*
X223862Y208528D01*
X224150Y208502D01*
X224217Y208503D01*
X224285Y208498D01*
X224574Y208510D01*
X224862Y208516D01*
X224929Y208525D01*
X224997Y208528D01*
X225283Y208572D01*
X225568Y208610D01*
X225634Y208627D01*
X225701Y208637D01*
X225980Y208713D01*
X226259Y208783D01*
X226323Y208807D01*
X226388Y208824D01*
X226657Y208931D01*
X226707Y208950D01*
X232931Y210047D01*
X239840Y208829D01*
X240081Y208800D01*
X240321Y208763D01*
X240435Y208758D01*
X240548Y208745D01*
X240790Y208743D01*
X241032Y208733D01*
X241146Y208741D01*
X241260Y208740D01*
X241501Y208766D01*
X241743Y208783D01*
X241856Y208804D01*
X241969Y208816D01*
X242205Y208868D01*
X242444Y208912D01*
X242554Y208946D01*
X242664Y208970D01*
X242882Y209045D01*
X243115Y209115D01*
X244943Y209781D01*
X254884Y209781D01*
X260095Y207622D01*
X260099Y207621D01*
X260103Y207619D01*
X260430Y207505D01*
X260767Y207387D01*
X260772Y207386D01*
X260776Y207385D01*
X261117Y207307D01*
X261462Y207229D01*
X261466Y207228D01*
X261470Y207227D01*
X261817Y207189D01*
X262170Y207149D01*
X262174Y207149D01*
X262179Y207149D01*
X262536Y207149D01*
X262882Y207149D01*
X262886Y207150D01*
X262891Y207150D01*
X263254Y207191D01*
X263590Y207229D01*
X263594Y207230D01*
X263599Y207231D01*
X263943Y207310D01*
X264285Y207388D01*
X264289Y207389D01*
X264293Y207390D01*
X264954Y207622D01*
X270165Y209781D01*
X275326Y209781D01*
X275462Y209733D01*
X275466Y209732D01*
X275470Y209731D01*
X275805Y209655D01*
X276157Y209575D01*
X276161Y209574D01*
X276165Y209573D01*
X276509Y209535D01*
X276865Y209495D01*
X276869Y209495D01*
X276873Y209494D01*
X277231Y209495D01*
X277577Y209495D01*
X277581Y209496D01*
X277585Y209496D01*
X277939Y209536D01*
X278285Y209575D01*
X278289Y209576D01*
X278293Y209577D01*
X278640Y209656D01*
X278979Y209734D01*
X278983Y209735D01*
X278988Y209736D01*
X279125Y209785D01*
X279234Y209791D01*
X279411Y209791D01*
X279590Y209811D01*
X279769Y209821D01*
X279943Y209850D01*
X280119Y209870D01*
X280297Y209910D01*
X280472Y209940D01*
X280633Y209987D01*
X280647Y209990D01*
X282105Y209822D01*
X282117Y209822D01*
X282129Y209819D01*
X282572Y209795D01*
X282816Y209781D01*
X282823Y209781D01*
X282829Y209781D01*
X284297Y209781D01*
X284312Y209775D01*
X284476Y209708D01*
X284649Y209658D01*
X284818Y209598D01*
X284990Y209559D01*
X285160Y209510D01*
X285341Y209479D01*
X285513Y209440D01*
X285680Y209421D01*
X285851Y209392D01*
X286404Y209328D01*
X286407Y209328D01*
X286723Y209255D01*
X286754Y209251D01*
X286785Y209244D01*
X287108Y209211D01*
X287431Y209173D01*
X287462Y209173D01*
X287494Y209170D01*
X287819Y209173D01*
X288143Y209172D01*
X288175Y209176D01*
X288206Y209176D01*
X288561Y209218D01*
X288851Y209250D01*
X288876Y209256D01*
X288902Y209259D01*
X293372Y210047D01*
X297724Y209280D01*
X297748Y209277D01*
X297772Y209272D01*
X298102Y209235D01*
X298431Y209196D01*
X298456Y209196D01*
X298480Y209193D01*
X298814Y209193D01*
X299144Y209191D01*
X299168Y209194D01*
X299193Y209194D01*
X299524Y209232D01*
X299852Y209267D01*
X299876Y209272D01*
X299901Y209275D01*
X300224Y209349D01*
X300548Y209421D01*
X300571Y209429D01*
X300595Y209435D01*
X300949Y209559D01*
X301222Y209652D01*
X301238Y209660D01*
X301256Y209667D01*
X301532Y209781D01*
X330556Y209781D01*
X330692Y209733D01*
X330696Y209732D01*
X330701Y209731D01*
X331050Y209651D01*
X331387Y209575D01*
X331391Y209574D01*
X331396Y209573D01*
X331746Y209534D01*
X332095Y209495D01*
X332099Y209495D01*
X332104Y209494D01*
X332450Y209495D01*
X332807Y209495D01*
X332812Y209496D01*
X332816Y209496D01*
X333164Y209535D01*
X333515Y209575D01*
X333519Y209576D01*
X333524Y209577D01*
X333873Y209657D01*
X334210Y209734D01*
X334214Y209735D01*
X334218Y209736D01*
X334345Y209781D01*
X339504Y209781D01*
X339785Y209664D01*
X339995Y209591D01*
X340201Y209509D01*
X340331Y209473D01*
X340458Y209429D01*
X340675Y209379D01*
X340889Y209321D01*
X341021Y209300D01*
X341152Y209270D01*
X341374Y209246D01*
X341593Y209211D01*
X341726Y209206D01*
X341860Y209191D01*
X342083Y209191D01*
X342304Y209182D01*
X342439Y209191D01*
X342573Y209191D01*
X342793Y209216D01*
X343015Y209231D01*
X343147Y209256D01*
X343281Y209271D01*
X343497Y209320D01*
X343716Y209361D01*
X343846Y209400D01*
X343975Y209430D01*
X344175Y209500D01*
X344387Y209564D01*
X344983Y209781D01*
X365452Y209781D01*
X365519Y209753D01*
X365730Y209679D01*
X365936Y209597D01*
X366065Y209562D01*
X366192Y209517D01*
X366409Y209468D01*
X366623Y209409D01*
X366756Y209389D01*
X366886Y209359D01*
X367107Y209334D01*
X367327Y209300D01*
X367461Y209294D01*
X367594Y209279D01*
X367816Y209279D01*
X368039Y209270D01*
X368173Y209279D01*
X368307Y209279D01*
X368528Y209304D01*
X368749Y209320D01*
X368881Y209344D01*
X369015Y209359D01*
X369231Y209409D01*
X369450Y209449D01*
X369580Y209489D01*
X369709Y209518D01*
X369909Y209588D01*
X370121Y209652D01*
X370474Y209781D01*
X395805Y209781D01*
X395966Y209732D01*
X396175Y209659D01*
X396307Y209629D01*
X396436Y209590D01*
X396654Y209550D01*
X396869Y209501D01*
X397004Y209485D01*
X397137Y209461D01*
X397358Y209446D01*
X397577Y209421D01*
X397713Y209421D01*
X397848Y209412D01*
X398068Y209421D01*
X398289Y209421D01*
X398424Y209436D01*
X398560Y209442D01*
X398778Y209476D01*
X398997Y209501D01*
X399130Y209531D01*
X399264Y209552D01*
X399481Y209612D01*
X399692Y209660D01*
X399813Y209702D01*
X399940Y209737D01*
X400071Y209781D01*
X405835Y209781D01*
X406182Y209668D01*
X406289Y209640D01*
X406395Y209603D01*
X406634Y209549D01*
X406871Y209486D01*
X406981Y209470D01*
X407090Y209445D01*
X407333Y209418D01*
X407575Y209383D01*
X407687Y209379D01*
X407798Y209367D01*
X408043Y209367D01*
X408287Y209359D01*
X408399Y209368D01*
X408510Y209368D01*
X408754Y209396D01*
X408998Y209415D01*
X409107Y209436D01*
X409218Y209449D01*
X409457Y209504D01*
X409697Y209550D01*
X409804Y209584D01*
X409913Y209609D01*
X410149Y209692D01*
X410377Y209763D01*
X410417Y209781D01*
X419119Y209781D01*
X419568Y209595D01*
X419673Y209558D01*
X419775Y209513D01*
X420009Y209440D01*
X420241Y209359D01*
X420349Y209335D01*
X420456Y209302D01*
X420696Y209256D01*
X420935Y209201D01*
X421046Y209188D01*
X421155Y209168D01*
X421399Y209149D01*
X421643Y209121D01*
X421755Y209121D01*
X421866Y209113D01*
X422111Y209121D01*
X422356Y209121D01*
X422466Y209134D01*
X422578Y209138D01*
X422820Y209174D01*
X423063Y209201D01*
X423172Y209226D01*
X423282Y209243D01*
X423525Y209307D01*
X423758Y209360D01*
X423857Y209395D01*
X423960Y209422D01*
X425064Y209781D01*
X434854Y209781D01*
X439268Y207952D01*
X439609Y207833D01*
X439933Y207719D01*
X439937Y207718D01*
X439941Y207717D01*
X440285Y207638D01*
X440628Y207560D01*
X440632Y207560D01*
X440635Y207559D01*
X440987Y207519D01*
X441336Y207479D01*
X441339Y207479D01*
X441343Y207479D01*
X441693Y207479D01*
X442048Y207479D01*
X442052Y207479D01*
X442056Y207479D01*
X442399Y207518D01*
X442756Y207558D01*
X442760Y207559D01*
X442764Y207559D01*
X443114Y207639D01*
X443451Y207716D01*
X443454Y207717D01*
X443458Y207718D01*
X443793Y207835D01*
X444123Y207951D01*
X444127Y207952D01*
X444130Y207954D01*
X444446Y208106D01*
X444765Y208259D01*
X444769Y208261D01*
X444772Y208263D01*
X444942Y208370D01*
X445360Y208631D01*
X445753Y208909D01*
X450705Y210026D01*
X455379Y209221D01*
X455399Y209218D01*
X455419Y209214D01*
X455749Y209178D01*
X456086Y209139D01*
X456107Y209139D01*
X456127Y209137D01*
X456462Y209138D01*
X456799Y209138D01*
X456819Y209140D01*
X456840Y209140D01*
X457229Y209185D01*
X457507Y209216D01*
X457521Y209219D01*
X457536Y209221D01*
X462209Y210026D01*
X465069Y209381D01*
X465112Y209374D01*
X465155Y209362D01*
X465462Y209315D01*
X465771Y209264D01*
X465815Y209261D01*
X465859Y209255D01*
X466171Y209242D01*
X466483Y209225D01*
X466526Y209228D01*
X466571Y209226D01*
X466883Y209249D01*
X467194Y209267D01*
X467237Y209275D01*
X467281Y209278D01*
X467588Y209335D01*
X467896Y209388D01*
X467938Y209401D01*
X467981Y209409D01*
X468280Y209500D01*
X468471Y209556D01*
X468781Y209578D01*
X468869Y209589D01*
X468958Y209593D01*
X469222Y209634D01*
X469487Y209668D01*
X469574Y209689D01*
X469662Y209703D01*
X469929Y209776D01*
X470179Y209837D01*
X470257Y209865D01*
X470339Y209888D01*
X470461Y209929D01*
X471639Y209845D01*
X471739Y209843D01*
X471838Y209834D01*
X472101Y209838D01*
X472351Y209834D01*
X472444Y209843D01*
X472539Y209845D01*
X473716Y209929D01*
X473839Y209888D01*
X473925Y209864D01*
X474009Y209834D01*
X474268Y209771D01*
X474526Y209701D01*
X474615Y209687D01*
X474701Y209666D01*
X474975Y209631D01*
X475230Y209592D01*
X475313Y209588D01*
X475397Y209578D01*
X475526Y209569D01*
X476582Y209041D01*
X476673Y209001D01*
X476761Y208954D01*
X477007Y208857D01*
X477236Y208758D01*
X477325Y208731D01*
X477413Y208696D01*
X479061Y208147D01*
X479191Y208112D01*
X479319Y208067D01*
X479535Y208018D01*
X479748Y207960D01*
X479882Y207939D01*
X480014Y207909D01*
X480234Y207885D01*
X480452Y207851D01*
X480587Y207846D01*
X480722Y207831D01*
X480943Y207831D01*
X481164Y207822D01*
X481299Y207832D01*
X481435Y207832D01*
X481654Y207857D01*
X481874Y207873D01*
X482008Y207897D01*
X482142Y207913D01*
X482357Y207962D01*
X482575Y208003D01*
X482705Y208042D01*
X482837Y208073D01*
X483050Y208147D01*
X483256Y208210D01*
X483374Y208261D01*
X483498Y208305D01*
X487062Y209781D01*
X505686Y209781D01*
X506207Y209565D01*
X506416Y209492D01*
X506623Y209410D01*
X506752Y209374D01*
X506879Y209330D01*
X507096Y209280D01*
X507310Y209222D01*
X507442Y209201D01*
X507574Y209171D01*
X507795Y209147D01*
X508014Y209112D01*
X508148Y209107D01*
X508281Y209092D01*
X508504Y209092D01*
X508726Y209083D01*
X508860Y209092D01*
X508994Y209092D01*
X509214Y209117D01*
X509436Y209132D01*
X509569Y209157D01*
X509702Y209172D01*
X509918Y209221D01*
X510137Y209262D01*
X510267Y209301D01*
X510396Y209331D01*
X510596Y209401D01*
X510808Y209465D01*
X511676Y209781D01*
X521777Y209781D01*
X526468Y207838D01*
X530058Y204248D01*
X532001Y199557D01*
X532001Y178223D01*
X530058Y173532D01*
X526468Y169942D01*
X521777Y167999D01*
X516684Y167999D01*
X516665Y168007D01*
X516453Y168071D01*
X516245Y168144D01*
X516113Y168174D01*
X515983Y168214D01*
X515766Y168254D01*
X515550Y168303D01*
X515416Y168318D01*
X515282Y168342D01*
X515062Y168358D01*
X514842Y168382D01*
X514707Y168382D01*
X514572Y168392D01*
X514351Y168382D01*
X514130Y168382D01*
X513995Y168367D01*
X513860Y168361D01*
X513641Y168327D01*
X513422Y168302D01*
X513290Y168272D01*
X513156Y168251D01*
X512939Y168192D01*
X512728Y168144D01*
X512606Y168101D01*
X512480Y168066D01*
X511834Y167851D01*
X507777Y168140D01*
X507725Y168141D01*
X507673Y168146D01*
X507369Y168146D01*
X507065Y168150D01*
X507013Y168145D01*
X506961Y168145D01*
X506659Y168111D01*
X506356Y168081D01*
X506304Y168070D01*
X506253Y168064D01*
X505970Y167999D01*
X480609Y167999D01*
X480295Y167982D01*
X479981Y167968D01*
X479939Y167962D01*
X479897Y167959D01*
X479589Y167907D01*
X479277Y167858D01*
X479236Y167847D01*
X479225Y167845D01*
X473708Y168237D01*
X473593Y168272D01*
X473496Y168290D01*
X473400Y168316D01*
X473146Y168355D01*
X472893Y168402D01*
X472794Y168409D01*
X472696Y168424D01*
X472438Y168434D01*
X472182Y168452D01*
X472083Y168448D01*
X471984Y168452D01*
X471727Y168433D01*
X471470Y168423D01*
X471373Y168407D01*
X471274Y168400D01*
X471020Y168353D01*
X470766Y168313D01*
X470671Y168287D01*
X470573Y168269D01*
X470468Y168237D01*
X465042Y167851D01*
X463743Y168285D01*
X463612Y168320D01*
X463484Y168365D01*
X463268Y168414D01*
X463055Y168472D01*
X462921Y168492D01*
X462789Y168522D01*
X462569Y168547D01*
X462351Y168581D01*
X462216Y168586D01*
X462081Y168601D01*
X461860Y168601D01*
X461639Y168610D01*
X461504Y168600D01*
X461369Y168600D01*
X461149Y168575D01*
X460929Y168559D01*
X460795Y168534D01*
X460661Y168519D01*
X460446Y168470D01*
X460228Y168429D01*
X460098Y168390D01*
X459966Y168359D01*
X459754Y168285D01*
X459547Y168222D01*
X459429Y168171D01*
X459305Y168127D01*
X458996Y167999D01*
X454164Y167999D01*
X453981Y167989D01*
X453798Y167989D01*
X453626Y167969D01*
X453453Y167959D01*
X453272Y167929D01*
X453090Y167908D01*
X452921Y167869D01*
X452750Y167840D01*
X452574Y167789D01*
X452396Y167748D01*
X452230Y167690D01*
X452066Y167643D01*
X451904Y167576D01*
X451734Y167516D01*
X448540Y166193D01*
X436238Y166193D01*
X433045Y167516D01*
X432872Y167576D01*
X432702Y167646D01*
X432536Y167694D01*
X432372Y167751D01*
X432193Y167792D01*
X432017Y167842D01*
X431847Y167871D01*
X431678Y167910D01*
X431495Y167930D01*
X431315Y167961D01*
X431139Y167970D01*
X430970Y167989D01*
X430795Y167989D01*
X430615Y167999D01*
X425064Y167999D01*
X423960Y168358D01*
X423852Y168386D01*
X423747Y168423D01*
X423508Y168477D01*
X423271Y168540D01*
X423161Y168556D01*
X423052Y168580D01*
X422808Y168608D01*
X422566Y168643D01*
X422455Y168647D01*
X422344Y168659D01*
X422099Y168659D01*
X421854Y168667D01*
X421743Y168658D01*
X421632Y168658D01*
X421388Y168630D01*
X421144Y168611D01*
X421035Y168590D01*
X420924Y168577D01*
X420685Y168522D01*
X420445Y168476D01*
X420338Y168442D01*
X420230Y168417D01*
X419992Y168334D01*
X419765Y168263D01*
X419669Y168221D01*
X419568Y168185D01*
X419119Y167999D01*
X410429Y167999D01*
X410122Y168126D01*
X409834Y168227D01*
X409547Y168333D01*
X409498Y168345D01*
X409450Y168362D01*
X409151Y168430D01*
X408855Y168502D01*
X408805Y168509D01*
X408755Y168520D01*
X408450Y168554D01*
X408148Y168593D01*
X408098Y168594D01*
X408047Y168600D01*
X407741Y168600D01*
X407436Y168605D01*
X407385Y168600D01*
X407335Y168600D01*
X407032Y168565D01*
X406727Y168536D01*
X406677Y168525D01*
X406627Y168520D01*
X406351Y168457D01*
X406041Y168391D01*
X404586Y167999D01*
X399294Y167999D01*
X397020Y168738D01*
X396912Y168767D01*
X396807Y168803D01*
X396568Y168857D01*
X396331Y168920D01*
X396221Y168936D01*
X396112Y168961D01*
X395868Y168988D01*
X395626Y169023D01*
X395515Y169027D01*
X395404Y169039D01*
X395159Y169039D01*
X394914Y169047D01*
X394803Y169038D01*
X394691Y169038D01*
X394448Y169010D01*
X394204Y168991D01*
X394094Y168970D01*
X393984Y168957D01*
X393745Y168903D01*
X393504Y168856D01*
X393398Y168823D01*
X393289Y168798D01*
X393053Y168715D01*
X392824Y168643D01*
X392729Y168601D01*
X392628Y168566D01*
X391261Y167999D01*
X386183Y167999D01*
X385809Y168154D01*
X385805Y168156D01*
X385801Y168158D01*
X385464Y168275D01*
X385136Y168390D01*
X385132Y168391D01*
X385128Y168392D01*
X384774Y168472D01*
X384442Y168548D01*
X384438Y168549D01*
X384433Y168550D01*
X384068Y168590D01*
X383734Y168628D01*
X383730Y168628D01*
X383725Y168628D01*
X383368Y168628D01*
X383021Y168628D01*
X383017Y168627D01*
X383013Y168627D01*
X382667Y168588D01*
X382314Y168548D01*
X382309Y168547D01*
X382305Y168546D01*
X381961Y168467D01*
X381619Y168389D01*
X381615Y168388D01*
X381611Y168387D01*
X380949Y168154D01*
X380575Y167999D01*
X375481Y167999D01*
X375463Y168007D01*
X375251Y168071D01*
X375043Y168144D01*
X374910Y168174D01*
X374781Y168214D01*
X374564Y168254D01*
X374348Y168303D01*
X374213Y168318D01*
X374080Y168342D01*
X373860Y168358D01*
X373640Y168382D01*
X373505Y168382D01*
X373369Y168392D01*
X373149Y168382D01*
X372928Y168382D01*
X372793Y168367D01*
X372658Y168361D01*
X372439Y168327D01*
X372220Y168302D01*
X372088Y168272D01*
X371954Y168251D01*
X371736Y168192D01*
X371525Y168144D01*
X371404Y168101D01*
X371278Y168066D01*
X370632Y167851D01*
X367401Y168081D01*
X367348Y168082D01*
X367296Y168088D01*
X366992Y168087D01*
X366689Y168092D01*
X366636Y168087D01*
X366584Y168086D01*
X366282Y168052D01*
X365979Y168022D01*
X365928Y168011D01*
X365876Y168005D01*
X365849Y167999D01*
X351672Y167999D01*
X351671Y167999D01*
X344823Y167999D01*
X342856Y168715D01*
X342585Y168797D01*
X342316Y168885D01*
X342244Y168900D01*
X342174Y168921D01*
X341895Y168972D01*
X341618Y169029D01*
X341545Y169036D01*
X341473Y169049D01*
X341191Y169068D01*
X340909Y169094D01*
X340835Y169093D01*
X340762Y169098D01*
X340480Y169085D01*
X340196Y169080D01*
X340124Y169070D01*
X340050Y169067D01*
X339772Y169023D01*
X339490Y168985D01*
X339419Y168967D01*
X339347Y168956D01*
X339276Y168936D01*
X332450Y167733D01*
X326075Y168857D01*
X325910Y168918D01*
X325849Y168933D01*
X325788Y168954D01*
X325502Y169019D01*
X325219Y169089D01*
X325156Y169097D01*
X325094Y169112D01*
X324802Y169144D01*
X324513Y169182D01*
X324449Y169183D01*
X324386Y169190D01*
X324093Y169190D01*
X323800Y169195D01*
X323737Y169189D01*
X323673Y169189D01*
X323382Y169156D01*
X323091Y169129D01*
X323029Y169116D01*
X322965Y169108D01*
X322680Y169043D01*
X322394Y168983D01*
X322333Y168963D01*
X322271Y168949D01*
X321982Y168847D01*
X321717Y168760D01*
X321665Y168736D01*
X321610Y168716D01*
X319878Y167999D01*
X314776Y167999D01*
X314605Y168059D01*
X314268Y168177D01*
X314264Y168177D01*
X314260Y168179D01*
X313926Y168255D01*
X313574Y168335D01*
X313570Y168335D01*
X313565Y168336D01*
X313222Y168375D01*
X312866Y168415D01*
X312862Y168415D01*
X312857Y168415D01*
X312500Y168415D01*
X312154Y168414D01*
X312149Y168414D01*
X312145Y168414D01*
X311791Y168374D01*
X311446Y168334D01*
X311441Y168334D01*
X311437Y168333D01*
X311102Y168256D01*
X310751Y168176D01*
X310747Y168174D01*
X310743Y168173D01*
X310247Y167999D01*
X301532Y167999D01*
X301256Y168113D01*
X301233Y168121D01*
X301211Y168132D01*
X300897Y168239D01*
X300584Y168349D01*
X300560Y168354D01*
X300537Y168362D01*
X300214Y168433D01*
X299889Y168507D01*
X299865Y168510D01*
X299841Y168515D01*
X299513Y168549D01*
X299181Y168587D01*
X299157Y168587D01*
X299132Y168589D01*
X298801Y168587D01*
X298469Y168587D01*
X298445Y168584D01*
X298420Y168584D01*
X298046Y168539D01*
X297761Y168507D01*
X297743Y168502D01*
X297724Y168500D01*
X293372Y167733D01*
X288361Y168616D01*
X288337Y168619D01*
X288313Y168624D01*
X287983Y168661D01*
X287654Y168700D01*
X287629Y168700D01*
X287605Y168703D01*
X287271Y168703D01*
X286941Y168705D01*
X286917Y168702D01*
X286893Y168702D01*
X286562Y168664D01*
X286233Y168629D01*
X286209Y168624D01*
X286185Y168621D01*
X285862Y168547D01*
X285538Y168475D01*
X285514Y168467D01*
X285490Y168461D01*
X285138Y168338D01*
X284864Y168244D01*
X284847Y168236D01*
X284829Y168229D01*
X284274Y167999D01*
X279113Y167999D01*
X278977Y168047D01*
X278972Y168048D01*
X278968Y168049D01*
X278635Y168125D01*
X278282Y168205D01*
X278278Y168206D01*
X278274Y168207D01*
X277930Y168245D01*
X277574Y168285D01*
X277570Y168285D01*
X277566Y168286D01*
X277208Y168285D01*
X276862Y168285D01*
X276858Y168284D01*
X276853Y168284D01*
X276498Y168244D01*
X276154Y168205D01*
X276150Y168204D01*
X276145Y168203D01*
X275799Y168124D01*
X275459Y168046D01*
X275455Y168045D01*
X275451Y168044D01*
X275313Y167995D01*
X275204Y167989D01*
X275028Y167989D01*
X274849Y167969D01*
X274669Y167959D01*
X274495Y167930D01*
X274320Y167910D01*
X274141Y167870D01*
X273967Y167840D01*
X273805Y167793D01*
X273636Y167755D01*
X273575Y167737D01*
X273432Y167737D01*
X273266Y167718D01*
X273100Y167709D01*
X272913Y167678D01*
X272724Y167656D01*
X272562Y167619D01*
X272397Y167591D01*
X272215Y167539D01*
X272029Y167497D01*
X271870Y167441D01*
X271712Y167396D01*
X271545Y167327D01*
X271368Y167265D01*
X268781Y166193D01*
X256479Y166193D01*
G37*
%LPD*%
%LPC*%
G36*
X876660Y567849D02*
X876660Y567849D01*
X876620Y567860D01*
X876309Y567908D01*
X875999Y567961D01*
X875957Y567963D01*
X875916Y567969D01*
X875627Y567981D01*
X875299Y567999D01*
X869537Y567999D01*
X869518Y568007D01*
X869306Y568071D01*
X869098Y568144D01*
X868966Y568174D01*
X868836Y568214D01*
X868619Y568254D01*
X868403Y568303D01*
X868269Y568318D01*
X868135Y568342D01*
X867915Y568358D01*
X867695Y568382D01*
X867560Y568382D01*
X867425Y568392D01*
X867204Y568382D01*
X866983Y568382D01*
X866848Y568367D01*
X866713Y568361D01*
X866495Y568327D01*
X866275Y568302D01*
X866143Y568272D01*
X866009Y568251D01*
X865792Y568192D01*
X865581Y568144D01*
X865459Y568101D01*
X865333Y568066D01*
X864688Y567851D01*
X859019Y568254D01*
X858943Y568268D01*
X858614Y568331D01*
X858595Y568333D01*
X858576Y568336D01*
X858239Y568360D01*
X857904Y568386D01*
X857885Y568385D01*
X857865Y568387D01*
X857529Y568373D01*
X857192Y568361D01*
X857173Y568358D01*
X857153Y568357D01*
X856819Y568305D01*
X856487Y568256D01*
X856469Y568251D01*
X856449Y568248D01*
X856170Y568172D01*
X855810Y568077D01*
X855572Y567999D01*
X846827Y567999D01*
X842136Y569942D01*
X838546Y573532D01*
X836603Y578223D01*
X836603Y583301D01*
X837912Y586460D01*
X837913Y586464D01*
X837915Y586468D01*
X837983Y586663D01*
X838040Y586799D01*
X838080Y586941D01*
X838147Y587133D01*
X838148Y587137D01*
X838150Y587141D01*
X838195Y587339D01*
X838236Y587484D01*
X838261Y587633D01*
X838306Y587827D01*
X838306Y587832D01*
X838307Y587836D01*
X838329Y588034D01*
X838355Y588187D01*
X838364Y588341D01*
X838385Y588535D01*
X838385Y588540D01*
X838386Y588544D01*
X838386Y588739D01*
X838394Y588898D01*
X838385Y589057D01*
X838385Y589248D01*
X838385Y589252D01*
X838385Y589256D01*
X838363Y589446D01*
X838354Y589609D01*
X838326Y589771D01*
X838305Y589956D01*
X838304Y589960D01*
X838304Y589964D01*
X838262Y590145D01*
X838234Y590311D01*
X838187Y590474D01*
X838147Y590650D01*
X838145Y590654D01*
X838144Y590658D01*
X838083Y590832D01*
X838036Y590996D01*
X837971Y591152D01*
X837912Y591320D01*
X836603Y594479D01*
X836603Y599557D01*
X838546Y604248D01*
X842136Y607838D01*
X846827Y609781D01*
X855572Y609781D01*
X858225Y608919D01*
X858542Y608835D01*
X858861Y608748D01*
X858888Y608744D01*
X858914Y608737D01*
X859238Y608689D01*
X859565Y608638D01*
X859592Y608637D01*
X859619Y608633D01*
X859946Y608622D01*
X860277Y608609D01*
X860304Y608610D01*
X860331Y608610D01*
X860659Y608635D01*
X860987Y608659D01*
X861014Y608663D01*
X861041Y608666D01*
X861365Y608728D01*
X861688Y608788D01*
X861714Y608796D01*
X861740Y608801D01*
X862020Y608888D01*
X862359Y608991D01*
X864529Y609781D01*
X874630Y609781D01*
X875331Y609490D01*
X875547Y609415D01*
X875761Y609330D01*
X875883Y609297D01*
X876003Y609255D01*
X876227Y609204D01*
X876448Y609144D01*
X876574Y609125D01*
X876698Y609097D01*
X876926Y609071D01*
X877153Y609036D01*
X877279Y609031D01*
X877406Y609017D01*
X877635Y609017D01*
X877864Y609008D01*
X877991Y609017D01*
X878118Y609017D01*
X878345Y609043D01*
X878575Y609060D01*
X878700Y609083D01*
X878826Y609097D01*
X879049Y609148D01*
X879275Y609190D01*
X879397Y609228D01*
X879520Y609256D01*
X879737Y609332D01*
X879956Y609399D01*
X880074Y609450D01*
X880193Y609492D01*
X880348Y609566D01*
X880511Y609578D01*
X880600Y609589D01*
X880689Y609593D01*
X880953Y609634D01*
X881218Y609668D01*
X881305Y609689D01*
X881393Y609703D01*
X881659Y609776D01*
X881910Y609837D01*
X881988Y609865D01*
X882069Y609888D01*
X882192Y609929D01*
X883369Y609845D01*
X883469Y609843D01*
X883569Y609834D01*
X883832Y609838D01*
X884082Y609834D01*
X884174Y609843D01*
X884269Y609845D01*
X885447Y609929D01*
X885569Y609888D01*
X885656Y609864D01*
X885739Y609834D01*
X885998Y609771D01*
X886257Y609701D01*
X886345Y609687D01*
X886432Y609666D01*
X886705Y609631D01*
X886961Y609592D01*
X887043Y609588D01*
X887127Y609578D01*
X887256Y609569D01*
X888312Y609041D01*
X888404Y609001D01*
X888492Y608954D01*
X888737Y608857D01*
X888966Y608758D01*
X889055Y608731D01*
X889144Y608696D01*
X890264Y608323D01*
X890361Y608238D01*
X890432Y608184D01*
X890498Y608123D01*
X890714Y607966D01*
X890925Y607802D01*
X891001Y607756D01*
X891073Y607703D01*
X891313Y607567D01*
X891534Y607432D01*
X891609Y607398D01*
X891682Y607356D01*
X891798Y607298D01*
X892571Y606406D01*
X892641Y606335D01*
X892704Y606258D01*
X892894Y606074D01*
X893067Y605895D01*
X893139Y605836D01*
X893208Y605770D01*
X894099Y604996D01*
X894157Y604881D01*
X894202Y604803D01*
X894239Y604722D01*
X894378Y604494D01*
X894511Y604262D01*
X894564Y604190D01*
X894610Y604114D01*
X894779Y603896D01*
X894932Y603688D01*
X894988Y603627D01*
X895040Y603560D01*
X895124Y603462D01*
X895498Y602343D01*
X895534Y602250D01*
X895564Y602154D01*
X895669Y601912D01*
X895760Y601680D01*
X895804Y601598D01*
X895842Y601511D01*
X896370Y600455D01*
X896379Y600326D01*
X896390Y600238D01*
X896394Y600148D01*
X896436Y599884D01*
X896469Y599619D01*
X896491Y599533D01*
X896504Y599444D01*
X896577Y599178D01*
X896638Y598927D01*
X896667Y598850D01*
X896689Y598768D01*
X899777Y589506D01*
X899858Y589301D01*
X899934Y589084D01*
X900680Y587283D01*
X900684Y587258D01*
X900686Y587216D01*
X900739Y586906D01*
X900787Y586596D01*
X900798Y586555D01*
X900805Y586514D01*
X900885Y586238D01*
X900972Y585920D01*
X902149Y582390D01*
X901789Y577325D01*
X899518Y572784D01*
X895682Y569457D01*
X890866Y567851D01*
X885438Y568237D01*
X885324Y568272D01*
X885226Y568290D01*
X885131Y568316D01*
X884876Y568355D01*
X884623Y568402D01*
X884525Y568409D01*
X884427Y568424D01*
X884169Y568434D01*
X883913Y568452D01*
X883814Y568448D01*
X883715Y568452D01*
X883457Y568433D01*
X883201Y568423D01*
X883103Y568407D01*
X883004Y568400D01*
X882751Y568353D01*
X882497Y568313D01*
X882401Y568287D01*
X882304Y568269D01*
X882199Y568237D01*
X876685Y567845D01*
X876660Y567849D01*
G37*
%LPD*%
D10*
X889238Y580762D02*
X883819Y597018D01*
X878401Y580762D01*
X879755Y584826D02*
X887883Y584826D01*
X872091Y580762D02*
X872091Y597018D01*
X867576Y597018D01*
X867443Y597016D01*
X867311Y597010D01*
X867179Y597000D01*
X867047Y596987D01*
X866915Y596969D01*
X866785Y596948D01*
X866654Y596923D01*
X866525Y596894D01*
X866397Y596861D01*
X866269Y596825D01*
X866143Y596785D01*
X866018Y596741D01*
X865894Y596693D01*
X865772Y596642D01*
X865651Y596587D01*
X865532Y596529D01*
X865414Y596467D01*
X865299Y596402D01*
X865185Y596333D01*
X865074Y596262D01*
X864965Y596186D01*
X864858Y596108D01*
X864753Y596027D01*
X864651Y595942D01*
X864551Y595855D01*
X864454Y595765D01*
X864359Y595672D01*
X864268Y595576D01*
X864179Y595478D01*
X864093Y595377D01*
X864010Y595273D01*
X863930Y595167D01*
X863854Y595059D01*
X863780Y594949D01*
X863710Y594836D01*
X863643Y594722D01*
X863580Y594605D01*
X863520Y594487D01*
X863463Y594367D01*
X863410Y594245D01*
X863361Y594122D01*
X863315Y593998D01*
X863273Y593872D01*
X863235Y593745D01*
X863200Y593617D01*
X863169Y593488D01*
X863142Y593359D01*
X863119Y593228D01*
X863099Y593097D01*
X863084Y592965D01*
X863072Y592833D01*
X863064Y592701D01*
X863060Y592568D01*
X863060Y592436D01*
X863064Y592303D01*
X863072Y592171D01*
X863084Y592039D01*
X863099Y591907D01*
X863119Y591776D01*
X863142Y591645D01*
X863169Y591516D01*
X863200Y591387D01*
X863235Y591259D01*
X863273Y591132D01*
X863315Y591006D01*
X863361Y590882D01*
X863410Y590759D01*
X863463Y590637D01*
X863520Y590517D01*
X863580Y590399D01*
X863643Y590282D01*
X863710Y590168D01*
X863780Y590055D01*
X863854Y589945D01*
X863930Y589837D01*
X864010Y589731D01*
X864093Y589627D01*
X864179Y589526D01*
X864268Y589428D01*
X864359Y589332D01*
X864454Y589239D01*
X864551Y589149D01*
X864651Y589062D01*
X864753Y588977D01*
X864858Y588896D01*
X864965Y588818D01*
X865074Y588742D01*
X865185Y588671D01*
X865299Y588602D01*
X865414Y588537D01*
X865532Y588475D01*
X865651Y588417D01*
X865772Y588362D01*
X865894Y588311D01*
X866018Y588263D01*
X866143Y588219D01*
X866269Y588179D01*
X866397Y588143D01*
X866525Y588110D01*
X866654Y588081D01*
X866785Y588056D01*
X866915Y588035D01*
X867047Y588017D01*
X867179Y588004D01*
X867311Y587994D01*
X867443Y587988D01*
X867576Y587986D01*
X867576Y587987D02*
X872091Y587987D01*
X866672Y587987D02*
X863060Y580762D01*
X852978Y580762D02*
X849366Y580762D01*
X852978Y580762D02*
X853096Y580764D01*
X853214Y580770D01*
X853332Y580779D01*
X853449Y580793D01*
X853566Y580810D01*
X853683Y580831D01*
X853798Y580856D01*
X853913Y580885D01*
X854027Y580918D01*
X854139Y580954D01*
X854250Y580994D01*
X854360Y581037D01*
X854469Y581084D01*
X854576Y581134D01*
X854681Y581189D01*
X854784Y581246D01*
X854885Y581307D01*
X854985Y581371D01*
X855082Y581438D01*
X855177Y581508D01*
X855269Y581582D01*
X855360Y581658D01*
X855447Y581738D01*
X855532Y581820D01*
X855614Y581905D01*
X855694Y581992D01*
X855770Y582083D01*
X855844Y582175D01*
X855914Y582270D01*
X855981Y582367D01*
X856045Y582467D01*
X856106Y582568D01*
X856163Y582671D01*
X856218Y582776D01*
X856268Y582883D01*
X856315Y582992D01*
X856358Y583102D01*
X856398Y583213D01*
X856434Y583325D01*
X856467Y583439D01*
X856496Y583554D01*
X856521Y583669D01*
X856542Y583786D01*
X856559Y583903D01*
X856573Y584020D01*
X856582Y584138D01*
X856588Y584256D01*
X856590Y584374D01*
X856591Y584374D02*
X856591Y593406D01*
X856590Y593406D02*
X856588Y593524D01*
X856582Y593642D01*
X856573Y593760D01*
X856559Y593877D01*
X856542Y593994D01*
X856521Y594111D01*
X856496Y594226D01*
X856467Y594341D01*
X856434Y594455D01*
X856398Y594567D01*
X856358Y594678D01*
X856315Y594788D01*
X856268Y594897D01*
X856218Y595004D01*
X856163Y595109D01*
X856106Y595212D01*
X856045Y595313D01*
X855981Y595413D01*
X855914Y595510D01*
X855844Y595605D01*
X855770Y595697D01*
X855694Y595788D01*
X855614Y595875D01*
X855532Y595960D01*
X855447Y596042D01*
X855360Y596122D01*
X855269Y596198D01*
X855177Y596272D01*
X855082Y596342D01*
X854985Y596409D01*
X854885Y596473D01*
X854784Y596534D01*
X854681Y596591D01*
X854576Y596646D01*
X854469Y596696D01*
X854360Y596743D01*
X854250Y596786D01*
X854139Y596826D01*
X854027Y596862D01*
X853913Y596895D01*
X853798Y596924D01*
X853683Y596949D01*
X853566Y596970D01*
X853449Y596987D01*
X853332Y597001D01*
X853214Y597010D01*
X853096Y597016D01*
X852978Y597018D01*
X849366Y597018D01*
X883819Y597018D02*
X889238Y580762D01*
X878401Y580762D02*
X883819Y597018D01*
X879755Y584826D02*
X887883Y584826D01*
X872091Y580762D02*
X872091Y597018D01*
X867576Y597018D01*
X867443Y597016D01*
X867311Y597010D01*
X867179Y597000D01*
X867047Y596987D01*
X866915Y596969D01*
X866785Y596948D01*
X866654Y596923D01*
X866525Y596894D01*
X866397Y596861D01*
X866269Y596825D01*
X866143Y596785D01*
X866018Y596741D01*
X865894Y596693D01*
X865772Y596642D01*
X865651Y596587D01*
X865532Y596529D01*
X865414Y596467D01*
X865299Y596402D01*
X865185Y596333D01*
X865074Y596262D01*
X864965Y596186D01*
X864858Y596108D01*
X864753Y596027D01*
X864651Y595942D01*
X864551Y595855D01*
X864454Y595765D01*
X864359Y595672D01*
X864268Y595576D01*
X864179Y595478D01*
X864093Y595377D01*
X864010Y595273D01*
X863930Y595167D01*
X863854Y595059D01*
X863780Y594949D01*
X863710Y594836D01*
X863643Y594722D01*
X863580Y594605D01*
X863520Y594487D01*
X863463Y594367D01*
X863410Y594245D01*
X863361Y594122D01*
X863315Y593998D01*
X863273Y593872D01*
X863235Y593745D01*
X863200Y593617D01*
X863169Y593488D01*
X863142Y593359D01*
X863119Y593228D01*
X863099Y593097D01*
X863084Y592965D01*
X863072Y592833D01*
X863064Y592701D01*
X863060Y592568D01*
X863060Y592436D01*
X863064Y592303D01*
X863072Y592171D01*
X863084Y592039D01*
X863099Y591907D01*
X863119Y591776D01*
X863142Y591645D01*
X863169Y591516D01*
X863200Y591387D01*
X863235Y591259D01*
X863273Y591132D01*
X863315Y591006D01*
X863361Y590882D01*
X863410Y590759D01*
X863463Y590637D01*
X863520Y590517D01*
X863580Y590399D01*
X863643Y590282D01*
X863710Y590168D01*
X863780Y590055D01*
X863854Y589945D01*
X863930Y589837D01*
X864010Y589731D01*
X864093Y589627D01*
X864179Y589526D01*
X864268Y589428D01*
X864359Y589332D01*
X864454Y589239D01*
X864551Y589149D01*
X864651Y589062D01*
X864753Y588977D01*
X864858Y588896D01*
X864965Y588818D01*
X865074Y588742D01*
X865185Y588671D01*
X865299Y588602D01*
X865414Y588537D01*
X865532Y588475D01*
X865651Y588417D01*
X865772Y588362D01*
X865894Y588311D01*
X866018Y588263D01*
X866143Y588219D01*
X866269Y588179D01*
X866397Y588143D01*
X866525Y588110D01*
X866654Y588081D01*
X866785Y588056D01*
X866915Y588035D01*
X867047Y588017D01*
X867179Y588004D01*
X867311Y587994D01*
X867443Y587988D01*
X867576Y587986D01*
X867576Y587987D02*
X872091Y587987D01*
X866672Y587987D02*
X863060Y580762D01*
X852978Y580762D02*
X849366Y580762D01*
X852978Y580762D02*
X853096Y580764D01*
X853214Y580770D01*
X853332Y580779D01*
X853449Y580793D01*
X853566Y580810D01*
X853683Y580831D01*
X853798Y580856D01*
X853913Y580885D01*
X854027Y580918D01*
X854139Y580954D01*
X854250Y580994D01*
X854360Y581037D01*
X854469Y581084D01*
X854576Y581134D01*
X854681Y581189D01*
X854784Y581246D01*
X854885Y581307D01*
X854985Y581371D01*
X855082Y581438D01*
X855177Y581508D01*
X855269Y581582D01*
X855360Y581658D01*
X855447Y581738D01*
X855532Y581820D01*
X855614Y581905D01*
X855694Y581992D01*
X855770Y582083D01*
X855844Y582175D01*
X855914Y582270D01*
X855981Y582367D01*
X856045Y582467D01*
X856106Y582568D01*
X856163Y582671D01*
X856218Y582776D01*
X856268Y582883D01*
X856315Y582992D01*
X856358Y583102D01*
X856398Y583213D01*
X856434Y583325D01*
X856467Y583439D01*
X856496Y583554D01*
X856521Y583669D01*
X856542Y583786D01*
X856559Y583903D01*
X856573Y584020D01*
X856582Y584138D01*
X856588Y584256D01*
X856590Y584374D01*
X856591Y584374D02*
X856591Y593406D01*
X856590Y593406D02*
X856588Y593524D01*
X856582Y593642D01*
X856573Y593760D01*
X856559Y593877D01*
X856542Y593994D01*
X856521Y594111D01*
X856496Y594226D01*
X856467Y594341D01*
X856434Y594455D01*
X856398Y594567D01*
X856358Y594678D01*
X856315Y594788D01*
X856268Y594897D01*
X856218Y595004D01*
X856163Y595109D01*
X856106Y595212D01*
X856045Y595313D01*
X855981Y595413D01*
X855914Y595510D01*
X855844Y595605D01*
X855770Y595697D01*
X855694Y595788D01*
X855614Y595875D01*
X855532Y595960D01*
X855447Y596042D01*
X855360Y596122D01*
X855269Y596198D01*
X855177Y596272D01*
X855082Y596342D01*
X854985Y596409D01*
X854885Y596473D01*
X854784Y596534D01*
X854681Y596591D01*
X854576Y596646D01*
X854469Y596696D01*
X854360Y596743D01*
X854250Y596786D01*
X854139Y596826D01*
X854027Y596862D01*
X853913Y596895D01*
X853798Y596924D01*
X853683Y596949D01*
X853566Y596970D01*
X853449Y596987D01*
X853332Y597001D01*
X853214Y597010D01*
X853096Y597016D01*
X852978Y597018D01*
X849366Y597018D01*
X883819Y597018D02*
X889238Y580762D01*
X878401Y580762D02*
X883819Y597018D01*
X879755Y584826D02*
X887883Y584826D01*
X872091Y580762D02*
X872091Y597018D01*
X867576Y597018D01*
X867443Y597016D01*
X867311Y597010D01*
X867179Y597000D01*
X867047Y596987D01*
X866915Y596969D01*
X866785Y596948D01*
X866654Y596923D01*
X866525Y596894D01*
X866397Y596861D01*
X866269Y596825D01*
X866143Y596785D01*
X866018Y596741D01*
X865894Y596693D01*
X865772Y596642D01*
X865651Y596587D01*
X865532Y596529D01*
X865414Y596467D01*
X865299Y596402D01*
X865185Y596333D01*
X865074Y596262D01*
X864965Y596186D01*
X864858Y596108D01*
X864753Y596027D01*
X864651Y595942D01*
X864551Y595855D01*
X864454Y595765D01*
X864359Y595672D01*
X864268Y595576D01*
X864179Y595478D01*
X864093Y595377D01*
X864010Y595273D01*
X863930Y595167D01*
X863854Y595059D01*
X863780Y594949D01*
X863710Y594836D01*
X863643Y594722D01*
X863580Y594605D01*
X863520Y594487D01*
X863463Y594367D01*
X863410Y594245D01*
X863361Y594122D01*
X863315Y593998D01*
X863273Y593872D01*
X863235Y593745D01*
X863200Y593617D01*
X863169Y593488D01*
X863142Y593359D01*
X863119Y593228D01*
X863099Y593097D01*
X863084Y592965D01*
X863072Y592833D01*
X863064Y592701D01*
X863060Y592568D01*
X863060Y592436D01*
X863064Y592303D01*
X863072Y592171D01*
X863084Y592039D01*
X863099Y591907D01*
X863119Y591776D01*
X863142Y591645D01*
X863169Y591516D01*
X863200Y591387D01*
X863235Y591259D01*
X863273Y591132D01*
X863315Y591006D01*
X863361Y590882D01*
X863410Y590759D01*
X863463Y590637D01*
X863520Y590517D01*
X863580Y590399D01*
X863643Y590282D01*
X863710Y590168D01*
X863780Y590055D01*
X863854Y589945D01*
X863930Y589837D01*
X864010Y589731D01*
X864093Y589627D01*
X864179Y589526D01*
X864268Y589428D01*
X864359Y589332D01*
X864454Y589239D01*
X864551Y589149D01*
X864651Y589062D01*
X864753Y588977D01*
X864858Y588896D01*
X864965Y588818D01*
X865074Y588742D01*
X865185Y588671D01*
X865299Y588602D01*
X865414Y588537D01*
X865532Y588475D01*
X865651Y588417D01*
X865772Y588362D01*
X865894Y588311D01*
X866018Y588263D01*
X866143Y588219D01*
X866269Y588179D01*
X866397Y588143D01*
X866525Y588110D01*
X866654Y588081D01*
X866785Y588056D01*
X866915Y588035D01*
X867047Y588017D01*
X867179Y588004D01*
X867311Y587994D01*
X867443Y587988D01*
X867576Y587986D01*
X867576Y587987D02*
X872091Y587987D01*
X866672Y587987D02*
X863060Y580762D01*
X852978Y580762D02*
X849366Y580762D01*
X852978Y580762D02*
X853096Y580764D01*
X853214Y580770D01*
X853332Y580779D01*
X853449Y580793D01*
X853566Y580810D01*
X853683Y580831D01*
X853798Y580856D01*
X853913Y580885D01*
X854027Y580918D01*
X854139Y580954D01*
X854250Y580994D01*
X854360Y581037D01*
X854469Y581084D01*
X854576Y581134D01*
X854681Y581189D01*
X854784Y581246D01*
X854885Y581307D01*
X854985Y581371D01*
X855082Y581438D01*
X855177Y581508D01*
X855269Y581582D01*
X855360Y581658D01*
X855447Y581738D01*
X855532Y581820D01*
X855614Y581905D01*
X855694Y581992D01*
X855770Y582083D01*
X855844Y582175D01*
X855914Y582270D01*
X855981Y582367D01*
X856045Y582467D01*
X856106Y582568D01*
X856163Y582671D01*
X856218Y582776D01*
X856268Y582883D01*
X856315Y582992D01*
X856358Y583102D01*
X856398Y583213D01*
X856434Y583325D01*
X856467Y583439D01*
X856496Y583554D01*
X856521Y583669D01*
X856542Y583786D01*
X856559Y583903D01*
X856573Y584020D01*
X856582Y584138D01*
X856588Y584256D01*
X856590Y584374D01*
X856591Y584374D02*
X856591Y593406D01*
X856590Y593406D02*
X856588Y593524D01*
X856582Y593642D01*
X856573Y593760D01*
X856559Y593877D01*
X856542Y593994D01*
X856521Y594111D01*
X856496Y594226D01*
X856467Y594341D01*
X856434Y594455D01*
X856398Y594567D01*
X856358Y594678D01*
X856315Y594788D01*
X856268Y594897D01*
X856218Y595004D01*
X856163Y595109D01*
X856106Y595212D01*
X856045Y595313D01*
X855981Y595413D01*
X855914Y595510D01*
X855844Y595605D01*
X855770Y595697D01*
X855694Y595788D01*
X855614Y595875D01*
X855532Y595960D01*
X855447Y596042D01*
X855360Y596122D01*
X855269Y596198D01*
X855177Y596272D01*
X855082Y596342D01*
X854985Y596409D01*
X854885Y596473D01*
X854784Y596534D01*
X854681Y596591D01*
X854576Y596646D01*
X854469Y596696D01*
X854360Y596743D01*
X854250Y596786D01*
X854139Y596826D01*
X854027Y596862D01*
X853913Y596895D01*
X853798Y596924D01*
X853683Y596949D01*
X853566Y596970D01*
X853449Y596987D01*
X853332Y597001D01*
X853214Y597010D01*
X853096Y597016D01*
X852978Y597018D01*
X849366Y597018D01*
X883819Y597018D02*
X889238Y580762D01*
X878401Y580762D02*
X883819Y597018D01*
X879755Y584826D02*
X887883Y584826D01*
X872091Y580762D02*
X872091Y597018D01*
X867576Y597018D01*
X867443Y597016D01*
X867311Y597010D01*
X867179Y597000D01*
X867047Y596987D01*
X866915Y596969D01*
X866785Y596948D01*
X866654Y596923D01*
X866525Y596894D01*
X866397Y596861D01*
X866269Y596825D01*
X866143Y596785D01*
X866018Y596741D01*
X865894Y596693D01*
X865772Y596642D01*
X865651Y596587D01*
X865532Y596529D01*
X865414Y596467D01*
X865299Y596402D01*
X865185Y596333D01*
X865074Y596262D01*
X864965Y596186D01*
X864858Y596108D01*
X864753Y596027D01*
X864651Y595942D01*
X864551Y595855D01*
X864454Y595765D01*
X864359Y595672D01*
X864268Y595576D01*
X864179Y595478D01*
X864093Y595377D01*
X864010Y595273D01*
X863930Y595167D01*
X863854Y595059D01*
X863780Y594949D01*
X863710Y594836D01*
X863643Y594722D01*
X863580Y594605D01*
X863520Y594487D01*
X863463Y594367D01*
X863410Y594245D01*
X863361Y594122D01*
X863315Y593998D01*
X863273Y593872D01*
X863235Y593745D01*
X863200Y593617D01*
X863169Y593488D01*
X863142Y593359D01*
X863119Y593228D01*
X863099Y593097D01*
X863084Y592965D01*
X863072Y592833D01*
X863064Y592701D01*
X863060Y592568D01*
X863060Y592436D01*
X863064Y592303D01*
X863072Y592171D01*
X863084Y592039D01*
X863099Y591907D01*
X863119Y591776D01*
X863142Y591645D01*
X863169Y591516D01*
X863200Y591387D01*
X863235Y591259D01*
X863273Y591132D01*
X863315Y591006D01*
X863361Y590882D01*
X863410Y590759D01*
X863463Y590637D01*
X863520Y590517D01*
X863580Y590399D01*
X863643Y590282D01*
X863710Y590168D01*
X863780Y590055D01*
X863854Y589945D01*
X863930Y589837D01*
X864010Y589731D01*
X864093Y589627D01*
X864179Y589526D01*
X864268Y589428D01*
X864359Y589332D01*
X864454Y589239D01*
X864551Y589149D01*
X864651Y589062D01*
X864753Y588977D01*
X864858Y588896D01*
X864965Y588818D01*
X865074Y588742D01*
X865185Y588671D01*
X865299Y588602D01*
X865414Y588537D01*
X865532Y588475D01*
X865651Y588417D01*
X865772Y588362D01*
X865894Y588311D01*
X866018Y588263D01*
X866143Y588219D01*
X866269Y588179D01*
X866397Y588143D01*
X866525Y588110D01*
X866654Y588081D01*
X866785Y588056D01*
X866915Y588035D01*
X867047Y588017D01*
X867179Y588004D01*
X867311Y587994D01*
X867443Y587988D01*
X867576Y587986D01*
X867576Y587987D02*
X872091Y587987D01*
X866672Y587987D02*
X863060Y580762D01*
X852978Y580762D02*
X849366Y580762D01*
X852978Y580762D02*
X853096Y580764D01*
X853214Y580770D01*
X853332Y580779D01*
X853449Y580793D01*
X853566Y580810D01*
X853683Y580831D01*
X853798Y580856D01*
X853913Y580885D01*
X854027Y580918D01*
X854139Y580954D01*
X854250Y580994D01*
X854360Y581037D01*
X854469Y581084D01*
X854576Y581134D01*
X854681Y581189D01*
X854784Y581246D01*
X854885Y581307D01*
X854985Y581371D01*
X855082Y581438D01*
X855177Y581508D01*
X855269Y581582D01*
X855360Y581658D01*
X855447Y581738D01*
X855532Y581820D01*
X855614Y581905D01*
X855694Y581992D01*
X855770Y582083D01*
X855844Y582175D01*
X855914Y582270D01*
X855981Y582367D01*
X856045Y582467D01*
X856106Y582568D01*
X856163Y582671D01*
X856218Y582776D01*
X856268Y582883D01*
X856315Y582992D01*
X856358Y583102D01*
X856398Y583213D01*
X856434Y583325D01*
X856467Y583439D01*
X856496Y583554D01*
X856521Y583669D01*
X856542Y583786D01*
X856559Y583903D01*
X856573Y584020D01*
X856582Y584138D01*
X856588Y584256D01*
X856590Y584374D01*
X856591Y584374D02*
X856591Y593406D01*
X856590Y593406D02*
X856588Y593524D01*
X856582Y593642D01*
X856573Y593760D01*
X856559Y593877D01*
X856542Y593994D01*
X856521Y594111D01*
X856496Y594226D01*
X856467Y594341D01*
X856434Y594455D01*
X856398Y594567D01*
X856358Y594678D01*
X856315Y594788D01*
X856268Y594897D01*
X856218Y595004D01*
X856163Y595109D01*
X856106Y595212D01*
X856045Y595313D01*
X855981Y595413D01*
X855914Y595510D01*
X855844Y595605D01*
X855770Y595697D01*
X855694Y595788D01*
X855614Y595875D01*
X855532Y595960D01*
X855447Y596042D01*
X855360Y596122D01*
X855269Y596198D01*
X855177Y596272D01*
X855082Y596342D01*
X854985Y596409D01*
X854885Y596473D01*
X854784Y596534D01*
X854681Y596591D01*
X854576Y596646D01*
X854469Y596696D01*
X854360Y596743D01*
X854250Y596786D01*
X854139Y596826D01*
X854027Y596862D01*
X853913Y596895D01*
X853798Y596924D01*
X853683Y596949D01*
X853566Y596970D01*
X853449Y596987D01*
X853332Y597001D01*
X853214Y597010D01*
X853096Y597016D01*
X852978Y597018D01*
X849366Y597018D01*
X883819Y597018D02*
X889238Y580762D01*
X878401Y580762D02*
X883819Y597018D01*
X879755Y584826D02*
X887883Y584826D01*
X872091Y580762D02*
X872091Y597018D01*
X867576Y597018D01*
X867443Y597016D01*
X867311Y597010D01*
X867179Y597000D01*
X867047Y596987D01*
X866915Y596969D01*
X866785Y596948D01*
X866654Y596923D01*
X866525Y596894D01*
X866397Y596861D01*
X866269Y596825D01*
X866143Y596785D01*
X866018Y596741D01*
X865894Y596693D01*
X865772Y596642D01*
X865651Y596587D01*
X865532Y596529D01*
X865414Y596467D01*
X865299Y596402D01*
X865185Y596333D01*
X865074Y596262D01*
X864965Y596186D01*
X864858Y596108D01*
X864753Y596027D01*
X864651Y595942D01*
X864551Y595855D01*
X864454Y595765D01*
X864359Y595672D01*
X864268Y595576D01*
X864179Y595478D01*
X864093Y595377D01*
X864010Y595273D01*
X863930Y595167D01*
X863854Y595059D01*
X863780Y594949D01*
X863710Y594836D01*
X863643Y594722D01*
X863580Y594605D01*
X863520Y594487D01*
X863463Y594367D01*
X863410Y594245D01*
X863361Y594122D01*
X863315Y593998D01*
X863273Y593872D01*
X863235Y593745D01*
X863200Y593617D01*
X863169Y593488D01*
X863142Y593359D01*
X863119Y593228D01*
X863099Y593097D01*
X863084Y592965D01*
X863072Y592833D01*
X863064Y592701D01*
X863060Y592568D01*
X863060Y592436D01*
X863064Y592303D01*
X863072Y592171D01*
X863084Y592039D01*
X863099Y591907D01*
X863119Y591776D01*
X863142Y591645D01*
X863169Y591516D01*
X863200Y591387D01*
X863235Y591259D01*
X863273Y591132D01*
X863315Y591006D01*
X863361Y590882D01*
X863410Y590759D01*
X863463Y590637D01*
X863520Y590517D01*
X863580Y590399D01*
X863643Y590282D01*
X863710Y590168D01*
X863780Y590055D01*
X863854Y589945D01*
X863930Y589837D01*
X864010Y589731D01*
X864093Y589627D01*
X864179Y589526D01*
X864268Y589428D01*
X864359Y589332D01*
X864454Y589239D01*
X864551Y589149D01*
X864651Y589062D01*
X864753Y588977D01*
X864858Y588896D01*
X864965Y588818D01*
X865074Y588742D01*
X865185Y588671D01*
X865299Y588602D01*
X865414Y588537D01*
X865532Y588475D01*
X865651Y588417D01*
X865772Y588362D01*
X865894Y588311D01*
X866018Y588263D01*
X866143Y588219D01*
X866269Y588179D01*
X866397Y588143D01*
X866525Y588110D01*
X866654Y588081D01*
X866785Y588056D01*
X866915Y588035D01*
X867047Y588017D01*
X867179Y588004D01*
X867311Y587994D01*
X867443Y587988D01*
X867576Y587986D01*
X867576Y587987D02*
X872091Y587987D01*
X866672Y587987D02*
X863060Y580762D01*
X852978Y580762D02*
X849366Y580762D01*
X852978Y580762D02*
X853096Y580764D01*
X853214Y580770D01*
X853332Y580779D01*
X853449Y580793D01*
X853566Y580810D01*
X853683Y580831D01*
X853798Y580856D01*
X853913Y580885D01*
X854027Y580918D01*
X854139Y580954D01*
X854250Y580994D01*
X854360Y581037D01*
X854469Y581084D01*
X854576Y581134D01*
X854681Y581189D01*
X854784Y581246D01*
X854885Y581307D01*
X854985Y581371D01*
X855082Y581438D01*
X855177Y581508D01*
X855269Y581582D01*
X855360Y581658D01*
X855447Y581738D01*
X855532Y581820D01*
X855614Y581905D01*
X855694Y581992D01*
X855770Y582083D01*
X855844Y582175D01*
X855914Y582270D01*
X855981Y582367D01*
X856045Y582467D01*
X856106Y582568D01*
X856163Y582671D01*
X856218Y582776D01*
X856268Y582883D01*
X856315Y582992D01*
X856358Y583102D01*
X856398Y583213D01*
X856434Y583325D01*
X856467Y583439D01*
X856496Y583554D01*
X856521Y583669D01*
X856542Y583786D01*
X856559Y583903D01*
X856573Y584020D01*
X856582Y584138D01*
X856588Y584256D01*
X856590Y584374D01*
X856591Y584374D02*
X856591Y593406D01*
X856590Y593406D02*
X856588Y593524D01*
X856582Y593642D01*
X856573Y593760D01*
X856559Y593877D01*
X856542Y593994D01*
X856521Y594111D01*
X856496Y594226D01*
X856467Y594341D01*
X856434Y594455D01*
X856398Y594567D01*
X856358Y594678D01*
X856315Y594788D01*
X856268Y594897D01*
X856218Y595004D01*
X856163Y595109D01*
X856106Y595212D01*
X856045Y595313D01*
X855981Y595413D01*
X855914Y595510D01*
X855844Y595605D01*
X855770Y595697D01*
X855694Y595788D01*
X855614Y595875D01*
X855532Y595960D01*
X855447Y596042D01*
X855360Y596122D01*
X855269Y596198D01*
X855177Y596272D01*
X855082Y596342D01*
X854985Y596409D01*
X854885Y596473D01*
X854784Y596534D01*
X854681Y596591D01*
X854576Y596646D01*
X854469Y596696D01*
X854360Y596743D01*
X854250Y596786D01*
X854139Y596826D01*
X854027Y596862D01*
X853913Y596895D01*
X853798Y596924D01*
X853683Y596949D01*
X853566Y596970D01*
X853449Y596987D01*
X853332Y597001D01*
X853214Y597010D01*
X853096Y597016D01*
X852978Y597018D01*
X849366Y597018D01*
X883819Y597018D02*
X889238Y580762D01*
X878401Y580762D02*
X883819Y597018D01*
X879755Y584826D02*
X887883Y584826D01*
X872091Y580762D02*
X872091Y597018D01*
X867576Y597018D01*
X867443Y597016D01*
X867311Y597010D01*
X867179Y597000D01*
X867047Y596987D01*
X866915Y596969D01*
X866785Y596948D01*
X866654Y596923D01*
X866525Y596894D01*
X866397Y596861D01*
X866269Y596825D01*
X866143Y596785D01*
X866018Y596741D01*
X865894Y596693D01*
X865772Y596642D01*
X865651Y596587D01*
X865532Y596529D01*
X865414Y596467D01*
X865299Y596402D01*
X865185Y596333D01*
X865074Y596262D01*
X864965Y596186D01*
X864858Y596108D01*
X864753Y596027D01*
X864651Y595942D01*
X864551Y595855D01*
X864454Y595765D01*
X864359Y595672D01*
X864268Y595576D01*
X864179Y595478D01*
X864093Y595377D01*
X864010Y595273D01*
X863930Y595167D01*
X863854Y595059D01*
X863780Y594949D01*
X863710Y594836D01*
X863643Y594722D01*
X863580Y594605D01*
X863520Y594487D01*
X863463Y594367D01*
X863410Y594245D01*
X863361Y594122D01*
X863315Y593998D01*
X863273Y593872D01*
X863235Y593745D01*
X863200Y593617D01*
X863169Y593488D01*
X863142Y593359D01*
X863119Y593228D01*
X863099Y593097D01*
X863084Y592965D01*
X863072Y592833D01*
X863064Y592701D01*
X863060Y592568D01*
X863060Y592436D01*
X863064Y592303D01*
X863072Y592171D01*
X863084Y592039D01*
X863099Y591907D01*
X863119Y591776D01*
X863142Y591645D01*
X863169Y591516D01*
X863200Y591387D01*
X863235Y591259D01*
X863273Y591132D01*
X863315Y591006D01*
X863361Y590882D01*
X863410Y590759D01*
X863463Y590637D01*
X863520Y590517D01*
X863580Y590399D01*
X863643Y590282D01*
X863710Y590168D01*
X863780Y590055D01*
X863854Y589945D01*
X863930Y589837D01*
X864010Y589731D01*
X864093Y589627D01*
X864179Y589526D01*
X864268Y589428D01*
X864359Y589332D01*
X864454Y589239D01*
X864551Y589149D01*
X864651Y589062D01*
X864753Y588977D01*
X864858Y588896D01*
X864965Y588818D01*
X865074Y588742D01*
X865185Y588671D01*
X865299Y588602D01*
X865414Y588537D01*
X865532Y588475D01*
X865651Y588417D01*
X865772Y588362D01*
X865894Y588311D01*
X866018Y588263D01*
X866143Y588219D01*
X866269Y588179D01*
X866397Y588143D01*
X866525Y588110D01*
X866654Y588081D01*
X866785Y588056D01*
X866915Y588035D01*
X867047Y588017D01*
X867179Y588004D01*
X867311Y587994D01*
X867443Y587988D01*
X867576Y587986D01*
X867576Y587987D02*
X872091Y587987D01*
X866672Y587987D02*
X863060Y580762D01*
X852978Y580762D02*
X849366Y580762D01*
X852978Y580762D02*
X853096Y580764D01*
X853214Y580770D01*
X853332Y580779D01*
X853449Y580793D01*
X853566Y580810D01*
X853683Y580831D01*
X853798Y580856D01*
X853913Y580885D01*
X854027Y580918D01*
X854139Y580954D01*
X854250Y580994D01*
X854360Y581037D01*
X854469Y581084D01*
X854576Y581134D01*
X854681Y581189D01*
X854784Y581246D01*
X854885Y581307D01*
X854985Y581371D01*
X855082Y581438D01*
X855177Y581508D01*
X855269Y581582D01*
X855360Y581658D01*
X855447Y581738D01*
X855532Y581820D01*
X855614Y581905D01*
X855694Y581992D01*
X855770Y582083D01*
X855844Y582175D01*
X855914Y582270D01*
X855981Y582367D01*
X856045Y582467D01*
X856106Y582568D01*
X856163Y582671D01*
X856218Y582776D01*
X856268Y582883D01*
X856315Y582992D01*
X856358Y583102D01*
X856398Y583213D01*
X856434Y583325D01*
X856467Y583439D01*
X856496Y583554D01*
X856521Y583669D01*
X856542Y583786D01*
X856559Y583903D01*
X856573Y584020D01*
X856582Y584138D01*
X856588Y584256D01*
X856590Y584374D01*
X856591Y584374D02*
X856591Y593406D01*
X856590Y593406D02*
X856588Y593524D01*
X856582Y593642D01*
X856573Y593760D01*
X856559Y593877D01*
X856542Y593994D01*
X856521Y594111D01*
X856496Y594226D01*
X856467Y594341D01*
X856434Y594455D01*
X856398Y594567D01*
X856358Y594678D01*
X856315Y594788D01*
X856268Y594897D01*
X856218Y595004D01*
X856163Y595109D01*
X856106Y595212D01*
X856045Y595313D01*
X855981Y595413D01*
X855914Y595510D01*
X855844Y595605D01*
X855770Y595697D01*
X855694Y595788D01*
X855614Y595875D01*
X855532Y595960D01*
X855447Y596042D01*
X855360Y596122D01*
X855269Y596198D01*
X855177Y596272D01*
X855082Y596342D01*
X854985Y596409D01*
X854885Y596473D01*
X854784Y596534D01*
X854681Y596591D01*
X854576Y596646D01*
X854469Y596696D01*
X854360Y596743D01*
X854250Y596786D01*
X854139Y596826D01*
X854027Y596862D01*
X853913Y596895D01*
X853798Y596924D01*
X853683Y596949D01*
X853566Y596970D01*
X853449Y596987D01*
X853332Y597001D01*
X853214Y597010D01*
X853096Y597016D01*
X852978Y597018D01*
X849366Y597018D01*
X883819Y597018D02*
X889238Y580762D01*
X878401Y580762D02*
X883819Y597018D01*
X879755Y584826D02*
X887883Y584826D01*
X872091Y580762D02*
X872091Y597018D01*
X867576Y597018D01*
X867443Y597016D01*
X867311Y597010D01*
X867179Y597000D01*
X867047Y596987D01*
X866915Y596969D01*
X866785Y596948D01*
X866654Y596923D01*
X866525Y596894D01*
X866397Y596861D01*
X866269Y596825D01*
X866143Y596785D01*
X866018Y596741D01*
X865894Y596693D01*
X865772Y596642D01*
X865651Y596587D01*
X865532Y596529D01*
X865414Y596467D01*
X865299Y596402D01*
X865185Y596333D01*
X865074Y596262D01*
X864965Y596186D01*
X864858Y596108D01*
X864753Y596027D01*
X864651Y595942D01*
X864551Y595855D01*
X864454Y595765D01*
X864359Y595672D01*
X864268Y595576D01*
X864179Y595478D01*
X864093Y595377D01*
X864010Y595273D01*
X863930Y595167D01*
X863854Y595059D01*
X863780Y594949D01*
X863710Y594836D01*
X863643Y594722D01*
X863580Y594605D01*
X863520Y594487D01*
X863463Y594367D01*
X863410Y594245D01*
X863361Y594122D01*
X863315Y593998D01*
X863273Y593872D01*
X863235Y593745D01*
X863200Y593617D01*
X863169Y593488D01*
X863142Y593359D01*
X863119Y593228D01*
X863099Y593097D01*
X863084Y592965D01*
X863072Y592833D01*
X863064Y592701D01*
X863060Y592568D01*
X863060Y592436D01*
X863064Y592303D01*
X863072Y592171D01*
X863084Y592039D01*
X863099Y591907D01*
X863119Y591776D01*
X863142Y591645D01*
X863169Y591516D01*
X863200Y591387D01*
X863235Y591259D01*
X863273Y591132D01*
X863315Y591006D01*
X863361Y590882D01*
X863410Y590759D01*
X863463Y590637D01*
X863520Y590517D01*
X863580Y590399D01*
X863643Y590282D01*
X863710Y590168D01*
X863780Y590055D01*
X863854Y589945D01*
X863930Y589837D01*
X864010Y589731D01*
X864093Y589627D01*
X864179Y589526D01*
X864268Y589428D01*
X864359Y589332D01*
X864454Y589239D01*
X864551Y589149D01*
X864651Y589062D01*
X864753Y588977D01*
X864858Y588896D01*
X864965Y588818D01*
X865074Y588742D01*
X865185Y588671D01*
X865299Y588602D01*
X865414Y588537D01*
X865532Y588475D01*
X865651Y588417D01*
X865772Y588362D01*
X865894Y588311D01*
X866018Y588263D01*
X866143Y588219D01*
X866269Y588179D01*
X866397Y588143D01*
X866525Y588110D01*
X866654Y588081D01*
X866785Y588056D01*
X866915Y588035D01*
X867047Y588017D01*
X867179Y588004D01*
X867311Y587994D01*
X867443Y587988D01*
X867576Y587986D01*
X867576Y587987D02*
X872091Y587987D01*
X866672Y587987D02*
X863060Y580762D01*
X852978Y580762D02*
X849366Y580762D01*
X852978Y580762D02*
X853096Y580764D01*
X853214Y580770D01*
X853332Y580779D01*
X853449Y580793D01*
X853566Y580810D01*
X853683Y580831D01*
X853798Y580856D01*
X853913Y580885D01*
X854027Y580918D01*
X854139Y580954D01*
X854250Y580994D01*
X854360Y581037D01*
X854469Y581084D01*
X854576Y581134D01*
X854681Y581189D01*
X854784Y581246D01*
X854885Y581307D01*
X854985Y581371D01*
X855082Y581438D01*
X855177Y581508D01*
X855269Y581582D01*
X855360Y581658D01*
X855447Y581738D01*
X855532Y581820D01*
X855614Y581905D01*
X855694Y581992D01*
X855770Y582083D01*
X855844Y582175D01*
X855914Y582270D01*
X855981Y582367D01*
X856045Y582467D01*
X856106Y582568D01*
X856163Y582671D01*
X856218Y582776D01*
X856268Y582883D01*
X856315Y582992D01*
X856358Y583102D01*
X856398Y583213D01*
X856434Y583325D01*
X856467Y583439D01*
X856496Y583554D01*
X856521Y583669D01*
X856542Y583786D01*
X856559Y583903D01*
X856573Y584020D01*
X856582Y584138D01*
X856588Y584256D01*
X856590Y584374D01*
X856591Y584374D02*
X856591Y593406D01*
X856590Y593406D02*
X856588Y593524D01*
X856582Y593642D01*
X856573Y593760D01*
X856559Y593877D01*
X856542Y593994D01*
X856521Y594111D01*
X856496Y594226D01*
X856467Y594341D01*
X856434Y594455D01*
X856398Y594567D01*
X856358Y594678D01*
X856315Y594788D01*
X856268Y594897D01*
X856218Y595004D01*
X856163Y595109D01*
X856106Y595212D01*
X856045Y595313D01*
X855981Y595413D01*
X855914Y595510D01*
X855844Y595605D01*
X855770Y595697D01*
X855694Y595788D01*
X855614Y595875D01*
X855532Y595960D01*
X855447Y596042D01*
X855360Y596122D01*
X855269Y596198D01*
X855177Y596272D01*
X855082Y596342D01*
X854985Y596409D01*
X854885Y596473D01*
X854784Y596534D01*
X854681Y596591D01*
X854576Y596646D01*
X854469Y596696D01*
X854360Y596743D01*
X854250Y596786D01*
X854139Y596826D01*
X854027Y596862D01*
X853913Y596895D01*
X853798Y596924D01*
X853683Y596949D01*
X853566Y596970D01*
X853449Y596987D01*
X853332Y597001D01*
X853214Y597010D01*
X853096Y597016D01*
X852978Y597018D01*
X849366Y597018D01*
X883819Y597018D02*
X889238Y580762D01*
X878401Y580762D02*
X883819Y597018D01*
X879755Y584826D02*
X887883Y584826D01*
X872091Y580762D02*
X872091Y597018D01*
X867576Y597018D01*
X867443Y597016D01*
X867311Y597010D01*
X867179Y597000D01*
X867047Y596987D01*
X866915Y596969D01*
X866785Y596948D01*
X866654Y596923D01*
X866525Y596894D01*
X866397Y596861D01*
X866269Y596825D01*
X866143Y596785D01*
X866018Y596741D01*
X865894Y596693D01*
X865772Y596642D01*
X865651Y596587D01*
X865532Y596529D01*
X865414Y596467D01*
X865299Y596402D01*
X865185Y596333D01*
X865074Y596262D01*
X864965Y596186D01*
X864858Y596108D01*
X864753Y596027D01*
X864651Y595942D01*
X864551Y595855D01*
X864454Y595765D01*
X864359Y595672D01*
X864268Y595576D01*
X864179Y595478D01*
X864093Y595377D01*
X864010Y595273D01*
X863930Y595167D01*
X863854Y595059D01*
X863780Y594949D01*
X863710Y594836D01*
X863643Y594722D01*
X863580Y594605D01*
X863520Y594487D01*
X863463Y594367D01*
X863410Y594245D01*
X863361Y594122D01*
X863315Y593998D01*
X863273Y593872D01*
X863235Y593745D01*
X863200Y593617D01*
X863169Y593488D01*
X863142Y593359D01*
X863119Y593228D01*
X863099Y593097D01*
X863084Y592965D01*
X863072Y592833D01*
X863064Y592701D01*
X863060Y592568D01*
X863060Y592436D01*
X863064Y592303D01*
X863072Y592171D01*
X863084Y592039D01*
X863099Y591907D01*
X863119Y591776D01*
X863142Y591645D01*
X863169Y591516D01*
X863200Y591387D01*
X863235Y591259D01*
X863273Y591132D01*
X863315Y591006D01*
X863361Y590882D01*
X863410Y590759D01*
X863463Y590637D01*
X863520Y590517D01*
X863580Y590399D01*
X863643Y590282D01*
X863710Y590168D01*
X863780Y590055D01*
X863854Y589945D01*
X863930Y589837D01*
X864010Y589731D01*
X864093Y589627D01*
X864179Y589526D01*
X864268Y589428D01*
X864359Y589332D01*
X864454Y589239D01*
X864551Y589149D01*
X864651Y589062D01*
X864753Y588977D01*
X864858Y588896D01*
X864965Y588818D01*
X865074Y588742D01*
X865185Y588671D01*
X865299Y588602D01*
X865414Y588537D01*
X865532Y588475D01*
X865651Y588417D01*
X865772Y588362D01*
X865894Y588311D01*
X866018Y588263D01*
X866143Y588219D01*
X866269Y588179D01*
X866397Y588143D01*
X866525Y588110D01*
X866654Y588081D01*
X866785Y588056D01*
X866915Y588035D01*
X867047Y588017D01*
X867179Y588004D01*
X867311Y587994D01*
X867443Y587988D01*
X867576Y587986D01*
X867576Y587987D02*
X872091Y587987D01*
X866672Y587987D02*
X863060Y580762D01*
X852978Y580762D02*
X849366Y580762D01*
X852978Y580762D02*
X853096Y580764D01*
X853214Y580770D01*
X853332Y580779D01*
X853449Y580793D01*
X853566Y580810D01*
X853683Y580831D01*
X853798Y580856D01*
X853913Y580885D01*
X854027Y580918D01*
X854139Y580954D01*
X854250Y580994D01*
X854360Y581037D01*
X854469Y581084D01*
X854576Y581134D01*
X854681Y581189D01*
X854784Y581246D01*
X854885Y581307D01*
X854985Y581371D01*
X855082Y581438D01*
X855177Y581508D01*
X855269Y581582D01*
X855360Y581658D01*
X855447Y581738D01*
X855532Y581820D01*
X855614Y581905D01*
X855694Y581992D01*
X855770Y582083D01*
X855844Y582175D01*
X855914Y582270D01*
X855981Y582367D01*
X856045Y582467D01*
X856106Y582568D01*
X856163Y582671D01*
X856218Y582776D01*
X856268Y582883D01*
X856315Y582992D01*
X856358Y583102D01*
X856398Y583213D01*
X856434Y583325D01*
X856467Y583439D01*
X856496Y583554D01*
X856521Y583669D01*
X856542Y583786D01*
X856559Y583903D01*
X856573Y584020D01*
X856582Y584138D01*
X856588Y584256D01*
X856590Y584374D01*
X856591Y584374D02*
X856591Y593406D01*
X856590Y593406D02*
X856588Y593524D01*
X856582Y593642D01*
X856573Y593760D01*
X856559Y593877D01*
X856542Y593994D01*
X856521Y594111D01*
X856496Y594226D01*
X856467Y594341D01*
X856434Y594455D01*
X856398Y594567D01*
X856358Y594678D01*
X856315Y594788D01*
X856268Y594897D01*
X856218Y595004D01*
X856163Y595109D01*
X856106Y595212D01*
X856045Y595313D01*
X855981Y595413D01*
X855914Y595510D01*
X855844Y595605D01*
X855770Y595697D01*
X855694Y595788D01*
X855614Y595875D01*
X855532Y595960D01*
X855447Y596042D01*
X855360Y596122D01*
X855269Y596198D01*
X855177Y596272D01*
X855082Y596342D01*
X854985Y596409D01*
X854885Y596473D01*
X854784Y596534D01*
X854681Y596591D01*
X854576Y596646D01*
X854469Y596696D01*
X854360Y596743D01*
X854250Y596786D01*
X854139Y596826D01*
X854027Y596862D01*
X853913Y596895D01*
X853798Y596924D01*
X853683Y596949D01*
X853566Y596970D01*
X853449Y596987D01*
X853332Y597001D01*
X853214Y597010D01*
X853096Y597016D01*
X852978Y597018D01*
X849366Y597018D01*
X519238Y197018D02*
X519238Y180762D01*
X519238Y197018D02*
X514722Y197018D01*
X514589Y197016D01*
X514457Y197010D01*
X514325Y197000D01*
X514193Y196987D01*
X514061Y196969D01*
X513931Y196948D01*
X513800Y196923D01*
X513671Y196894D01*
X513543Y196861D01*
X513415Y196825D01*
X513289Y196785D01*
X513164Y196741D01*
X513040Y196693D01*
X512918Y196642D01*
X512797Y196587D01*
X512678Y196529D01*
X512560Y196467D01*
X512445Y196402D01*
X512331Y196333D01*
X512220Y196262D01*
X512111Y196186D01*
X512004Y196108D01*
X511899Y196027D01*
X511797Y195942D01*
X511697Y195855D01*
X511600Y195765D01*
X511505Y195672D01*
X511414Y195576D01*
X511325Y195478D01*
X511239Y195377D01*
X511156Y195273D01*
X511076Y195167D01*
X511000Y195059D01*
X510926Y194949D01*
X510856Y194836D01*
X510789Y194722D01*
X510726Y194605D01*
X510666Y194487D01*
X510609Y194367D01*
X510556Y194245D01*
X510507Y194122D01*
X510461Y193998D01*
X510419Y193872D01*
X510381Y193745D01*
X510346Y193617D01*
X510315Y193488D01*
X510288Y193359D01*
X510265Y193228D01*
X510245Y193097D01*
X510230Y192965D01*
X510218Y192833D01*
X510210Y192701D01*
X510206Y192568D01*
X510206Y192436D01*
X510210Y192303D01*
X510218Y192171D01*
X510230Y192039D01*
X510245Y191907D01*
X510265Y191776D01*
X510288Y191645D01*
X510315Y191516D01*
X510346Y191387D01*
X510381Y191259D01*
X510419Y191132D01*
X510461Y191006D01*
X510507Y190882D01*
X510556Y190759D01*
X510609Y190637D01*
X510666Y190517D01*
X510726Y190399D01*
X510789Y190282D01*
X510856Y190168D01*
X510926Y190055D01*
X511000Y189945D01*
X511076Y189837D01*
X511156Y189731D01*
X511239Y189627D01*
X511325Y189526D01*
X511414Y189428D01*
X511505Y189332D01*
X511600Y189239D01*
X511697Y189149D01*
X511797Y189062D01*
X511899Y188977D01*
X512004Y188896D01*
X512111Y188818D01*
X512220Y188742D01*
X512331Y188671D01*
X512445Y188602D01*
X512560Y188537D01*
X512678Y188475D01*
X512797Y188417D01*
X512918Y188362D01*
X513040Y188311D01*
X513164Y188263D01*
X513289Y188219D01*
X513415Y188179D01*
X513543Y188143D01*
X513671Y188110D01*
X513800Y188081D01*
X513931Y188056D01*
X514061Y188035D01*
X514193Y188017D01*
X514325Y188004D01*
X514457Y187994D01*
X514589Y187988D01*
X514722Y187986D01*
X514722Y187987D02*
X519238Y187987D01*
X513819Y187987D02*
X510207Y180762D01*
X503148Y180762D02*
X495923Y180762D01*
X503148Y180762D02*
X503148Y197018D01*
X495923Y197018D01*
X497729Y189793D02*
X503148Y189793D01*
X489600Y197018D02*
X489600Y180762D01*
X482376Y180762D01*
X477507Y180762D02*
X472089Y197018D01*
X466670Y180762D01*
X468025Y184826D02*
X476153Y184826D01*
X461876Y197018D02*
X456457Y189342D01*
X451039Y197018D01*
X456457Y189342D02*
X456457Y180762D01*
X446002Y178956D02*
X438777Y178956D01*
X432316Y180762D02*
X432316Y197018D01*
X427800Y197018D01*
X427669Y197016D01*
X427537Y197010D01*
X427406Y197001D01*
X427276Y196987D01*
X427145Y196970D01*
X427016Y196949D01*
X426887Y196925D01*
X426759Y196896D01*
X426631Y196864D01*
X426505Y196828D01*
X426380Y196789D01*
X426255Y196746D01*
X426133Y196699D01*
X426011Y196649D01*
X425891Y196595D01*
X425773Y196538D01*
X425657Y196477D01*
X425542Y196413D01*
X425429Y196346D01*
X425318Y196275D01*
X425210Y196201D01*
X425103Y196124D01*
X424999Y196044D01*
X424897Y195961D01*
X424798Y195876D01*
X424701Y195787D01*
X424607Y195695D01*
X424515Y195601D01*
X424426Y195504D01*
X424341Y195405D01*
X424258Y195303D01*
X424178Y195199D01*
X424101Y195092D01*
X424027Y194984D01*
X423956Y194873D01*
X423889Y194760D01*
X423825Y194645D01*
X423764Y194529D01*
X423707Y194411D01*
X423653Y194291D01*
X423603Y194169D01*
X423556Y194047D01*
X423513Y193922D01*
X423474Y193797D01*
X423438Y193671D01*
X423406Y193543D01*
X423377Y193415D01*
X423353Y193286D01*
X423332Y193157D01*
X423315Y193026D01*
X423301Y192896D01*
X423292Y192765D01*
X423286Y192633D01*
X423284Y192502D01*
X423285Y192502D02*
X423285Y185278D01*
X423284Y185278D02*
X423286Y185147D01*
X423292Y185015D01*
X423301Y184884D01*
X423315Y184754D01*
X423332Y184623D01*
X423353Y184494D01*
X423377Y184365D01*
X423406Y184237D01*
X423438Y184109D01*
X423474Y183983D01*
X423513Y183858D01*
X423556Y183733D01*
X423603Y183611D01*
X423653Y183489D01*
X423707Y183369D01*
X423764Y183251D01*
X423825Y183135D01*
X423889Y183020D01*
X423956Y182907D01*
X424027Y182796D01*
X424101Y182688D01*
X424178Y182581D01*
X424258Y182477D01*
X424341Y182375D01*
X424426Y182276D01*
X424515Y182179D01*
X424607Y182085D01*
X424701Y181993D01*
X424798Y181904D01*
X424897Y181819D01*
X424999Y181736D01*
X425103Y181656D01*
X425210Y181579D01*
X425318Y181505D01*
X425429Y181434D01*
X425542Y181367D01*
X425657Y181303D01*
X425773Y181242D01*
X425891Y181185D01*
X426011Y181131D01*
X426133Y181081D01*
X426255Y181034D01*
X426380Y180991D01*
X426505Y180952D01*
X426631Y180916D01*
X426759Y180884D01*
X426887Y180855D01*
X427016Y180831D01*
X427145Y180810D01*
X427276Y180793D01*
X427406Y180779D01*
X427537Y180770D01*
X427669Y180764D01*
X427800Y180762D01*
X432316Y180762D01*
X414774Y180762D02*
X414774Y197018D01*
X416580Y180762D02*
X412968Y180762D01*
X412968Y197018D02*
X416580Y197018D01*
X401887Y180762D02*
X401769Y180764D01*
X401651Y180770D01*
X401533Y180779D01*
X401416Y180793D01*
X401299Y180810D01*
X401182Y180831D01*
X401067Y180856D01*
X400952Y180885D01*
X400838Y180918D01*
X400726Y180954D01*
X400615Y180994D01*
X400505Y181037D01*
X400396Y181084D01*
X400289Y181134D01*
X400184Y181189D01*
X400081Y181246D01*
X399980Y181307D01*
X399880Y181371D01*
X399783Y181438D01*
X399688Y181508D01*
X399596Y181582D01*
X399505Y181658D01*
X399418Y181738D01*
X399333Y181820D01*
X399251Y181905D01*
X399171Y181992D01*
X399095Y182083D01*
X399021Y182175D01*
X398951Y182270D01*
X398884Y182367D01*
X398820Y182467D01*
X398759Y182568D01*
X398702Y182671D01*
X398647Y182776D01*
X398597Y182883D01*
X398550Y182992D01*
X398507Y183102D01*
X398467Y183213D01*
X398431Y183325D01*
X398398Y183439D01*
X398369Y183554D01*
X398344Y183669D01*
X398323Y183786D01*
X398306Y183903D01*
X398292Y184020D01*
X398283Y184138D01*
X398277Y184256D01*
X398275Y184374D01*
X401887Y180762D02*
X402070Y180764D01*
X402252Y180771D01*
X402434Y180782D01*
X402616Y180797D01*
X402798Y180817D01*
X402979Y180841D01*
X403159Y180869D01*
X403339Y180901D01*
X403518Y180938D01*
X403695Y180979D01*
X403872Y181025D01*
X404048Y181074D01*
X404223Y181128D01*
X404396Y181186D01*
X404567Y181248D01*
X404738Y181314D01*
X404906Y181385D01*
X405073Y181459D01*
X405238Y181537D01*
X405401Y181619D01*
X405562Y181705D01*
X405721Y181795D01*
X405878Y181889D01*
X406032Y181986D01*
X406184Y182087D01*
X406334Y182192D01*
X406481Y182300D01*
X406625Y182411D01*
X406767Y182526D01*
X406906Y182645D01*
X407042Y182767D01*
X407175Y182892D01*
X407305Y183020D01*
X406854Y193406D02*
X406852Y193524D01*
X406846Y193642D01*
X406837Y193760D01*
X406823Y193877D01*
X406806Y193994D01*
X406785Y194111D01*
X406760Y194226D01*
X406731Y194341D01*
X406698Y194455D01*
X406662Y194567D01*
X406622Y194678D01*
X406579Y194788D01*
X406532Y194897D01*
X406482Y195004D01*
X406427Y195109D01*
X406370Y195212D01*
X406309Y195313D01*
X406245Y195413D01*
X406178Y195510D01*
X406108Y195605D01*
X406034Y195697D01*
X405958Y195788D01*
X405878Y195875D01*
X405796Y195960D01*
X405711Y196042D01*
X405624Y196122D01*
X405533Y196198D01*
X405441Y196272D01*
X405346Y196342D01*
X405249Y196409D01*
X405149Y196473D01*
X405048Y196534D01*
X404945Y196591D01*
X404840Y196646D01*
X404733Y196696D01*
X404624Y196743D01*
X404514Y196786D01*
X404403Y196826D01*
X404291Y196862D01*
X404177Y196895D01*
X404062Y196924D01*
X403947Y196949D01*
X403830Y196970D01*
X403713Y196987D01*
X403596Y197001D01*
X403478Y197010D01*
X403360Y197016D01*
X403242Y197018D01*
X403081Y197016D01*
X402919Y197010D01*
X402758Y197001D01*
X402597Y196987D01*
X402437Y196970D01*
X402277Y196949D01*
X402117Y196924D01*
X401958Y196895D01*
X401800Y196863D01*
X401643Y196827D01*
X401487Y196787D01*
X401331Y196743D01*
X401177Y196695D01*
X401024Y196644D01*
X400872Y196590D01*
X400721Y196531D01*
X400572Y196470D01*
X400425Y196404D01*
X400279Y196335D01*
X400134Y196263D01*
X399992Y196187D01*
X399851Y196108D01*
X399712Y196026D01*
X399576Y195940D01*
X399441Y195851D01*
X399308Y195759D01*
X399178Y195663D01*
X405048Y190245D02*
X405149Y190307D01*
X405249Y190372D01*
X405346Y190441D01*
X405441Y190513D01*
X405534Y190587D01*
X405624Y190665D01*
X405712Y190746D01*
X405797Y190829D01*
X405879Y190915D01*
X405958Y191004D01*
X406035Y191095D01*
X406108Y191189D01*
X406179Y191285D01*
X406246Y191383D01*
X406310Y191483D01*
X406371Y191586D01*
X406428Y191690D01*
X406482Y191796D01*
X406532Y191904D01*
X406579Y192013D01*
X406623Y192124D01*
X406663Y192236D01*
X406699Y192350D01*
X406731Y192464D01*
X406760Y192580D01*
X406785Y192696D01*
X406806Y192813D01*
X406823Y192931D01*
X406837Y193049D01*
X406846Y193168D01*
X406852Y193287D01*
X406854Y193406D01*
X400081Y187535D02*
X399980Y187473D01*
X399880Y187408D01*
X399783Y187339D01*
X399688Y187267D01*
X399595Y187193D01*
X399505Y187115D01*
X399417Y187034D01*
X399332Y186951D01*
X399250Y186865D01*
X399171Y186776D01*
X399094Y186685D01*
X399021Y186591D01*
X398950Y186495D01*
X398883Y186397D01*
X398819Y186297D01*
X398758Y186194D01*
X398701Y186090D01*
X398647Y185984D01*
X398597Y185876D01*
X398550Y185767D01*
X398506Y185656D01*
X398466Y185544D01*
X398430Y185430D01*
X398398Y185316D01*
X398369Y185200D01*
X398344Y185084D01*
X398323Y184967D01*
X398306Y184849D01*
X398292Y184731D01*
X398283Y184612D01*
X398277Y184493D01*
X398275Y184374D01*
X400081Y187535D02*
X405048Y190245D01*
X388722Y197018D02*
X388722Y180762D01*
X393238Y197018D02*
X384207Y197018D01*
X378036Y197018D02*
X378036Y180762D01*
X378036Y197018D02*
X373520Y197018D01*
X373387Y197016D01*
X373255Y197010D01*
X373123Y197000D01*
X372991Y196987D01*
X372859Y196969D01*
X372729Y196948D01*
X372598Y196923D01*
X372469Y196894D01*
X372341Y196861D01*
X372213Y196825D01*
X372087Y196785D01*
X371962Y196741D01*
X371838Y196693D01*
X371716Y196642D01*
X371595Y196587D01*
X371476Y196529D01*
X371358Y196467D01*
X371243Y196402D01*
X371129Y196333D01*
X371018Y196262D01*
X370909Y196186D01*
X370802Y196108D01*
X370697Y196027D01*
X370595Y195942D01*
X370495Y195855D01*
X370398Y195765D01*
X370303Y195672D01*
X370212Y195576D01*
X370123Y195478D01*
X370037Y195377D01*
X369954Y195273D01*
X369874Y195167D01*
X369798Y195059D01*
X369724Y194949D01*
X369654Y194836D01*
X369587Y194722D01*
X369524Y194605D01*
X369464Y194487D01*
X369407Y194367D01*
X369354Y194245D01*
X369305Y194122D01*
X369259Y193998D01*
X369217Y193872D01*
X369179Y193745D01*
X369144Y193617D01*
X369113Y193488D01*
X369086Y193359D01*
X369063Y193228D01*
X369043Y193097D01*
X369028Y192965D01*
X369016Y192833D01*
X369008Y192701D01*
X369004Y192568D01*
X369004Y192436D01*
X369008Y192303D01*
X369016Y192171D01*
X369028Y192039D01*
X369043Y191907D01*
X369063Y191776D01*
X369086Y191645D01*
X369113Y191516D01*
X369144Y191387D01*
X369179Y191259D01*
X369217Y191132D01*
X369259Y191006D01*
X369305Y190882D01*
X369354Y190759D01*
X369407Y190637D01*
X369464Y190517D01*
X369524Y190399D01*
X369587Y190282D01*
X369654Y190168D01*
X369724Y190055D01*
X369798Y189945D01*
X369874Y189837D01*
X369954Y189731D01*
X370037Y189627D01*
X370123Y189526D01*
X370212Y189428D01*
X370303Y189332D01*
X370398Y189239D01*
X370495Y189149D01*
X370595Y189062D01*
X370697Y188977D01*
X370802Y188896D01*
X370909Y188818D01*
X371018Y188742D01*
X371129Y188671D01*
X371243Y188602D01*
X371358Y188537D01*
X371476Y188475D01*
X371595Y188417D01*
X371716Y188362D01*
X371838Y188311D01*
X371962Y188263D01*
X372087Y188219D01*
X372213Y188179D01*
X372341Y188143D01*
X372469Y188110D01*
X372598Y188081D01*
X372729Y188056D01*
X372859Y188035D01*
X372991Y188017D01*
X373123Y188004D01*
X373255Y187994D01*
X373387Y187988D01*
X373520Y187986D01*
X373520Y187987D02*
X378036Y187987D01*
X372617Y187987D02*
X369005Y180762D01*
X361107Y180762D02*
X361107Y197018D01*
X362913Y180762D02*
X359301Y180762D01*
X359301Y197018D02*
X362913Y197018D01*
X352386Y189793D02*
X347870Y189793D01*
X347870Y189794D02*
X347737Y189792D01*
X347605Y189786D01*
X347473Y189776D01*
X347341Y189763D01*
X347209Y189745D01*
X347079Y189724D01*
X346948Y189699D01*
X346819Y189670D01*
X346691Y189637D01*
X346563Y189601D01*
X346437Y189561D01*
X346312Y189517D01*
X346188Y189469D01*
X346066Y189418D01*
X345945Y189363D01*
X345826Y189305D01*
X345708Y189243D01*
X345593Y189178D01*
X345479Y189109D01*
X345368Y189038D01*
X345259Y188962D01*
X345152Y188884D01*
X345047Y188803D01*
X344945Y188718D01*
X344845Y188631D01*
X344748Y188541D01*
X344653Y188448D01*
X344562Y188352D01*
X344473Y188254D01*
X344387Y188153D01*
X344304Y188049D01*
X344224Y187943D01*
X344148Y187835D01*
X344074Y187725D01*
X344004Y187612D01*
X343937Y187498D01*
X343874Y187381D01*
X343814Y187263D01*
X343757Y187143D01*
X343704Y187021D01*
X343655Y186898D01*
X343609Y186774D01*
X343567Y186648D01*
X343529Y186521D01*
X343494Y186393D01*
X343463Y186264D01*
X343436Y186135D01*
X343413Y186004D01*
X343393Y185873D01*
X343378Y185741D01*
X343366Y185609D01*
X343358Y185477D01*
X343354Y185344D01*
X343354Y185212D01*
X343358Y185079D01*
X343366Y184947D01*
X343378Y184815D01*
X343393Y184683D01*
X343413Y184552D01*
X343436Y184421D01*
X343463Y184292D01*
X343494Y184163D01*
X343529Y184035D01*
X343567Y183908D01*
X343609Y183782D01*
X343655Y183658D01*
X343704Y183535D01*
X343757Y183413D01*
X343814Y183293D01*
X343874Y183175D01*
X343937Y183058D01*
X344004Y182944D01*
X344074Y182831D01*
X344148Y182721D01*
X344224Y182613D01*
X344304Y182507D01*
X344387Y182403D01*
X344473Y182302D01*
X344562Y182204D01*
X344653Y182108D01*
X344748Y182015D01*
X344845Y181925D01*
X344945Y181838D01*
X345047Y181753D01*
X345152Y181672D01*
X345259Y181594D01*
X345368Y181518D01*
X345479Y181447D01*
X345593Y181378D01*
X345708Y181313D01*
X345826Y181251D01*
X345945Y181193D01*
X346066Y181138D01*
X346188Y181087D01*
X346312Y181039D01*
X346437Y180995D01*
X346563Y180955D01*
X346691Y180919D01*
X346819Y180886D01*
X346948Y180857D01*
X347079Y180832D01*
X347209Y180811D01*
X347341Y180793D01*
X347473Y180780D01*
X347605Y180770D01*
X347737Y180764D01*
X347870Y180762D01*
X352386Y180762D01*
X352386Y197018D01*
X347870Y197018D01*
X347751Y197016D01*
X347631Y197010D01*
X347512Y197000D01*
X347394Y196986D01*
X347275Y196969D01*
X347158Y196947D01*
X347041Y196922D01*
X346926Y196892D01*
X346811Y196859D01*
X346697Y196822D01*
X346585Y196782D01*
X346474Y196737D01*
X346365Y196689D01*
X346257Y196638D01*
X346151Y196583D01*
X346047Y196524D01*
X345945Y196462D01*
X345845Y196397D01*
X345747Y196328D01*
X345651Y196256D01*
X345558Y196181D01*
X345468Y196104D01*
X345380Y196023D01*
X345295Y195939D01*
X345213Y195852D01*
X345133Y195763D01*
X345057Y195671D01*
X344983Y195577D01*
X344913Y195480D01*
X344846Y195382D01*
X344782Y195281D01*
X344722Y195177D01*
X344665Y195072D01*
X344612Y194965D01*
X344562Y194857D01*
X344516Y194747D01*
X344474Y194635D01*
X344435Y194522D01*
X344400Y194408D01*
X344369Y194293D01*
X344341Y194176D01*
X344318Y194059D01*
X344298Y193942D01*
X344282Y193823D01*
X344270Y193704D01*
X344262Y193585D01*
X344258Y193466D01*
X344258Y193346D01*
X344262Y193227D01*
X344270Y193108D01*
X344282Y192989D01*
X344298Y192870D01*
X344318Y192753D01*
X344341Y192636D01*
X344369Y192519D01*
X344400Y192404D01*
X344435Y192290D01*
X344474Y192177D01*
X344516Y192065D01*
X344562Y191955D01*
X344612Y191847D01*
X344665Y191740D01*
X344722Y191635D01*
X344782Y191531D01*
X344846Y191430D01*
X344913Y191332D01*
X344983Y191235D01*
X345057Y191141D01*
X345133Y191049D01*
X345213Y190960D01*
X345295Y190873D01*
X345380Y190789D01*
X345468Y190708D01*
X345558Y190631D01*
X345651Y190556D01*
X345747Y190484D01*
X345845Y190415D01*
X345945Y190350D01*
X346047Y190288D01*
X346151Y190229D01*
X346257Y190174D01*
X346365Y190123D01*
X346474Y190075D01*
X346585Y190030D01*
X346697Y189990D01*
X346811Y189953D01*
X346926Y189920D01*
X347041Y189890D01*
X347158Y189865D01*
X347275Y189843D01*
X347394Y189826D01*
X347512Y189812D01*
X347631Y189802D01*
X347751Y189796D01*
X347870Y189794D01*
X336965Y185278D02*
X336965Y197018D01*
X336966Y185278D02*
X336964Y185145D01*
X336958Y185013D01*
X336948Y184881D01*
X336935Y184749D01*
X336917Y184617D01*
X336896Y184487D01*
X336871Y184356D01*
X336842Y184227D01*
X336809Y184099D01*
X336773Y183971D01*
X336733Y183845D01*
X336689Y183720D01*
X336641Y183596D01*
X336590Y183474D01*
X336535Y183353D01*
X336477Y183234D01*
X336415Y183116D01*
X336350Y183001D01*
X336281Y182887D01*
X336210Y182776D01*
X336134Y182667D01*
X336056Y182560D01*
X335975Y182455D01*
X335890Y182353D01*
X335803Y182253D01*
X335713Y182156D01*
X335620Y182061D01*
X335524Y181970D01*
X335426Y181881D01*
X335325Y181795D01*
X335221Y181712D01*
X335115Y181632D01*
X335007Y181556D01*
X334897Y181482D01*
X334784Y181412D01*
X334670Y181345D01*
X334553Y181282D01*
X334435Y181222D01*
X334315Y181165D01*
X334193Y181112D01*
X334070Y181063D01*
X333946Y181017D01*
X333820Y180975D01*
X333693Y180937D01*
X333565Y180902D01*
X333436Y180871D01*
X333307Y180844D01*
X333176Y180821D01*
X333045Y180801D01*
X332913Y180786D01*
X332781Y180774D01*
X332649Y180766D01*
X332516Y180762D01*
X332384Y180762D01*
X332251Y180766D01*
X332119Y180774D01*
X331987Y180786D01*
X331855Y180801D01*
X331724Y180821D01*
X331593Y180844D01*
X331464Y180871D01*
X331335Y180902D01*
X331207Y180937D01*
X331080Y180975D01*
X330954Y181017D01*
X330830Y181063D01*
X330707Y181112D01*
X330585Y181165D01*
X330465Y181222D01*
X330347Y181282D01*
X330230Y181345D01*
X330116Y181412D01*
X330003Y181482D01*
X329893Y181556D01*
X329785Y181632D01*
X329679Y181712D01*
X329575Y181795D01*
X329474Y181881D01*
X329376Y181970D01*
X329280Y182061D01*
X329187Y182156D01*
X329097Y182253D01*
X329010Y182353D01*
X328925Y182455D01*
X328844Y182560D01*
X328766Y182667D01*
X328690Y182776D01*
X328619Y182887D01*
X328550Y183001D01*
X328485Y183116D01*
X328423Y183234D01*
X328365Y183353D01*
X328310Y183474D01*
X328259Y183596D01*
X328211Y183720D01*
X328167Y183845D01*
X328127Y183971D01*
X328091Y184099D01*
X328058Y184227D01*
X328029Y184356D01*
X328004Y184487D01*
X327983Y184617D01*
X327965Y184749D01*
X327952Y184881D01*
X327942Y185013D01*
X327936Y185145D01*
X327934Y185278D01*
X327934Y197018D01*
X317339Y197018D02*
X317339Y180762D01*
X321855Y197018D02*
X312824Y197018D01*
X305877Y197018D02*
X305877Y180762D01*
X307683Y180762D02*
X304070Y180762D01*
X304070Y197018D02*
X307683Y197018D01*
X297887Y192502D02*
X297887Y185278D01*
X297888Y192502D02*
X297886Y192635D01*
X297880Y192767D01*
X297870Y192899D01*
X297857Y193031D01*
X297839Y193163D01*
X297818Y193293D01*
X297793Y193424D01*
X297764Y193553D01*
X297731Y193681D01*
X297695Y193809D01*
X297655Y193935D01*
X297611Y194060D01*
X297563Y194184D01*
X297512Y194306D01*
X297457Y194427D01*
X297399Y194546D01*
X297337Y194664D01*
X297272Y194779D01*
X297203Y194893D01*
X297132Y195004D01*
X297056Y195113D01*
X296978Y195220D01*
X296897Y195325D01*
X296812Y195427D01*
X296725Y195527D01*
X296635Y195624D01*
X296542Y195719D01*
X296446Y195810D01*
X296348Y195899D01*
X296247Y195985D01*
X296143Y196068D01*
X296037Y196148D01*
X295929Y196224D01*
X295819Y196298D01*
X295706Y196368D01*
X295592Y196435D01*
X295475Y196498D01*
X295357Y196558D01*
X295237Y196615D01*
X295115Y196668D01*
X294992Y196717D01*
X294868Y196763D01*
X294742Y196805D01*
X294615Y196843D01*
X294487Y196878D01*
X294358Y196909D01*
X294229Y196936D01*
X294098Y196959D01*
X293967Y196979D01*
X293835Y196994D01*
X293703Y197006D01*
X293571Y197014D01*
X293438Y197018D01*
X293306Y197018D01*
X293173Y197014D01*
X293041Y197006D01*
X292909Y196994D01*
X292777Y196979D01*
X292646Y196959D01*
X292515Y196936D01*
X292386Y196909D01*
X292257Y196878D01*
X292129Y196843D01*
X292002Y196805D01*
X291876Y196763D01*
X291752Y196717D01*
X291629Y196668D01*
X291507Y196615D01*
X291387Y196558D01*
X291269Y196498D01*
X291152Y196435D01*
X291038Y196368D01*
X290925Y196298D01*
X290815Y196224D01*
X290707Y196148D01*
X290601Y196068D01*
X290497Y195985D01*
X290396Y195899D01*
X290298Y195810D01*
X290202Y195719D01*
X290109Y195624D01*
X290019Y195527D01*
X289932Y195427D01*
X289847Y195325D01*
X289766Y195220D01*
X289688Y195113D01*
X289612Y195004D01*
X289541Y194893D01*
X289472Y194779D01*
X289407Y194664D01*
X289345Y194546D01*
X289287Y194427D01*
X289232Y194306D01*
X289181Y194184D01*
X289133Y194060D01*
X289089Y193935D01*
X289049Y193809D01*
X289013Y193681D01*
X288980Y193553D01*
X288951Y193424D01*
X288926Y193293D01*
X288905Y193163D01*
X288887Y193031D01*
X288874Y192899D01*
X288864Y192767D01*
X288858Y192635D01*
X288856Y192502D01*
X288856Y185278D01*
X288858Y185145D01*
X288864Y185013D01*
X288874Y184881D01*
X288887Y184749D01*
X288905Y184617D01*
X288926Y184487D01*
X288951Y184356D01*
X288980Y184227D01*
X289013Y184099D01*
X289049Y183971D01*
X289089Y183845D01*
X289133Y183720D01*
X289181Y183596D01*
X289232Y183474D01*
X289287Y183353D01*
X289345Y183234D01*
X289407Y183116D01*
X289472Y183001D01*
X289541Y182887D01*
X289612Y182776D01*
X289688Y182667D01*
X289766Y182560D01*
X289847Y182455D01*
X289932Y182353D01*
X290019Y182253D01*
X290109Y182156D01*
X290202Y182061D01*
X290298Y181970D01*
X290396Y181881D01*
X290497Y181795D01*
X290601Y181712D01*
X290707Y181632D01*
X290815Y181556D01*
X290925Y181482D01*
X291038Y181412D01*
X291152Y181345D01*
X291269Y181282D01*
X291387Y181222D01*
X291507Y181165D01*
X291629Y181112D01*
X291752Y181063D01*
X291876Y181017D01*
X292002Y180975D01*
X292129Y180937D01*
X292257Y180902D01*
X292386Y180871D01*
X292515Y180844D01*
X292646Y180821D01*
X292777Y180801D01*
X292909Y180786D01*
X293041Y180774D01*
X293173Y180766D01*
X293306Y180762D01*
X293438Y180762D01*
X293571Y180766D01*
X293703Y180774D01*
X293835Y180786D01*
X293967Y180801D01*
X294098Y180821D01*
X294229Y180844D01*
X294358Y180871D01*
X294487Y180902D01*
X294615Y180937D01*
X294742Y180975D01*
X294868Y181017D01*
X294992Y181063D01*
X295115Y181112D01*
X295237Y181165D01*
X295357Y181222D01*
X295475Y181282D01*
X295592Y181345D01*
X295706Y181412D01*
X295819Y181482D01*
X295929Y181556D01*
X296037Y181632D01*
X296143Y181712D01*
X296247Y181795D01*
X296348Y181881D01*
X296446Y181970D01*
X296542Y182061D01*
X296635Y182156D01*
X296725Y182253D01*
X296812Y182353D01*
X296897Y182455D01*
X296978Y182560D01*
X297056Y182667D01*
X297132Y182776D01*
X297203Y182887D01*
X297272Y183001D01*
X297337Y183116D01*
X297399Y183234D01*
X297457Y183353D01*
X297512Y183474D01*
X297563Y183596D01*
X297611Y183720D01*
X297655Y183845D01*
X297695Y183971D01*
X297731Y184099D01*
X297764Y184227D01*
X297793Y184356D01*
X297818Y184487D01*
X297839Y184617D01*
X297857Y184749D01*
X297870Y184881D01*
X297880Y185013D01*
X297886Y185145D01*
X297888Y185278D01*
X281735Y180762D02*
X281735Y197018D01*
X272704Y180762D01*
X272704Y197018D01*
X266243Y178956D02*
X259018Y178956D01*
X252346Y189793D02*
X247830Y189793D01*
X247830Y189794D02*
X247697Y189792D01*
X247565Y189786D01*
X247433Y189776D01*
X247301Y189763D01*
X247169Y189745D01*
X247039Y189724D01*
X246908Y189699D01*
X246779Y189670D01*
X246651Y189637D01*
X246523Y189601D01*
X246397Y189561D01*
X246272Y189517D01*
X246148Y189469D01*
X246026Y189418D01*
X245905Y189363D01*
X245786Y189305D01*
X245668Y189243D01*
X245553Y189178D01*
X245439Y189109D01*
X245328Y189038D01*
X245219Y188962D01*
X245112Y188884D01*
X245007Y188803D01*
X244905Y188718D01*
X244805Y188631D01*
X244708Y188541D01*
X244613Y188448D01*
X244522Y188352D01*
X244433Y188254D01*
X244347Y188153D01*
X244264Y188049D01*
X244184Y187943D01*
X244108Y187835D01*
X244034Y187725D01*
X243964Y187612D01*
X243897Y187498D01*
X243834Y187381D01*
X243774Y187263D01*
X243717Y187143D01*
X243664Y187021D01*
X243615Y186898D01*
X243569Y186774D01*
X243527Y186648D01*
X243489Y186521D01*
X243454Y186393D01*
X243423Y186264D01*
X243396Y186135D01*
X243373Y186004D01*
X243353Y185873D01*
X243338Y185741D01*
X243326Y185609D01*
X243318Y185477D01*
X243314Y185344D01*
X243314Y185212D01*
X243318Y185079D01*
X243326Y184947D01*
X243338Y184815D01*
X243353Y184683D01*
X243373Y184552D01*
X243396Y184421D01*
X243423Y184292D01*
X243454Y184163D01*
X243489Y184035D01*
X243527Y183908D01*
X243569Y183782D01*
X243615Y183658D01*
X243664Y183535D01*
X243717Y183413D01*
X243774Y183293D01*
X243834Y183175D01*
X243897Y183058D01*
X243964Y182944D01*
X244034Y182831D01*
X244108Y182721D01*
X244184Y182613D01*
X244264Y182507D01*
X244347Y182403D01*
X244433Y182302D01*
X244522Y182204D01*
X244613Y182108D01*
X244708Y182015D01*
X244805Y181925D01*
X244905Y181838D01*
X245007Y181753D01*
X245112Y181672D01*
X245219Y181594D01*
X245328Y181518D01*
X245439Y181447D01*
X245553Y181378D01*
X245668Y181313D01*
X245786Y181251D01*
X245905Y181193D01*
X246026Y181138D01*
X246148Y181087D01*
X246272Y181039D01*
X246397Y180995D01*
X246523Y180955D01*
X246651Y180919D01*
X246779Y180886D01*
X246908Y180857D01*
X247039Y180832D01*
X247169Y180811D01*
X247301Y180793D01*
X247433Y180780D01*
X247565Y180770D01*
X247697Y180764D01*
X247830Y180762D01*
X252346Y180762D01*
X252346Y197018D01*
X247830Y197018D01*
X247711Y197016D01*
X247591Y197010D01*
X247472Y197000D01*
X247354Y196986D01*
X247235Y196969D01*
X247118Y196947D01*
X247001Y196922D01*
X246886Y196892D01*
X246771Y196859D01*
X246657Y196822D01*
X246545Y196782D01*
X246434Y196737D01*
X246325Y196689D01*
X246217Y196638D01*
X246111Y196583D01*
X246007Y196524D01*
X245905Y196462D01*
X245805Y196397D01*
X245707Y196328D01*
X245611Y196256D01*
X245518Y196181D01*
X245428Y196104D01*
X245340Y196023D01*
X245255Y195939D01*
X245173Y195852D01*
X245093Y195763D01*
X245017Y195671D01*
X244943Y195577D01*
X244873Y195480D01*
X244806Y195382D01*
X244742Y195281D01*
X244682Y195177D01*
X244625Y195072D01*
X244572Y194965D01*
X244522Y194857D01*
X244476Y194747D01*
X244434Y194635D01*
X244395Y194522D01*
X244360Y194408D01*
X244329Y194293D01*
X244301Y194176D01*
X244278Y194059D01*
X244258Y193942D01*
X244242Y193823D01*
X244230Y193704D01*
X244222Y193585D01*
X244218Y193466D01*
X244218Y193346D01*
X244222Y193227D01*
X244230Y193108D01*
X244242Y192989D01*
X244258Y192870D01*
X244278Y192753D01*
X244301Y192636D01*
X244329Y192519D01*
X244360Y192404D01*
X244395Y192290D01*
X244434Y192177D01*
X244476Y192065D01*
X244522Y191955D01*
X244572Y191847D01*
X244625Y191740D01*
X244682Y191635D01*
X244742Y191531D01*
X244806Y191430D01*
X244873Y191332D01*
X244943Y191235D01*
X245017Y191141D01*
X245093Y191049D01*
X245173Y190960D01*
X245255Y190873D01*
X245340Y190789D01*
X245428Y190708D01*
X245518Y190631D01*
X245611Y190556D01*
X245707Y190484D01*
X245805Y190415D01*
X245905Y190350D01*
X246007Y190288D01*
X246111Y190229D01*
X246217Y190174D01*
X246325Y190123D01*
X246434Y190075D01*
X246545Y190030D01*
X246657Y189990D01*
X246771Y189953D01*
X246886Y189920D01*
X247001Y189890D01*
X247118Y189865D01*
X247235Y189843D01*
X247354Y189826D01*
X247472Y189812D01*
X247591Y189802D01*
X247711Y189796D01*
X247830Y189794D01*
X237446Y192502D02*
X237446Y185278D01*
X237447Y192502D02*
X237445Y192635D01*
X237439Y192767D01*
X237429Y192899D01*
X237416Y193031D01*
X237398Y193163D01*
X237377Y193293D01*
X237352Y193424D01*
X237323Y193553D01*
X237290Y193681D01*
X237254Y193809D01*
X237214Y193935D01*
X237170Y194060D01*
X237122Y194184D01*
X237071Y194306D01*
X237016Y194427D01*
X236958Y194546D01*
X236896Y194664D01*
X236831Y194779D01*
X236762Y194893D01*
X236691Y195004D01*
X236615Y195113D01*
X236537Y195220D01*
X236456Y195325D01*
X236371Y195427D01*
X236284Y195527D01*
X236194Y195624D01*
X236101Y195719D01*
X236005Y195810D01*
X235907Y195899D01*
X235806Y195985D01*
X235702Y196068D01*
X235596Y196148D01*
X235488Y196224D01*
X235378Y196298D01*
X235265Y196368D01*
X235151Y196435D01*
X235034Y196498D01*
X234916Y196558D01*
X234796Y196615D01*
X234674Y196668D01*
X234551Y196717D01*
X234427Y196763D01*
X234301Y196805D01*
X234174Y196843D01*
X234046Y196878D01*
X233917Y196909D01*
X233788Y196936D01*
X233657Y196959D01*
X233526Y196979D01*
X233394Y196994D01*
X233262Y197006D01*
X233130Y197014D01*
X232997Y197018D01*
X232865Y197018D01*
X232732Y197014D01*
X232600Y197006D01*
X232468Y196994D01*
X232336Y196979D01*
X232205Y196959D01*
X232074Y196936D01*
X231945Y196909D01*
X231816Y196878D01*
X231688Y196843D01*
X231561Y196805D01*
X231435Y196763D01*
X231311Y196717D01*
X231188Y196668D01*
X231066Y196615D01*
X230946Y196558D01*
X230828Y196498D01*
X230711Y196435D01*
X230597Y196368D01*
X230484Y196298D01*
X230374Y196224D01*
X230266Y196148D01*
X230160Y196068D01*
X230056Y195985D01*
X229955Y195899D01*
X229857Y195810D01*
X229761Y195719D01*
X229668Y195624D01*
X229578Y195527D01*
X229491Y195427D01*
X229406Y195325D01*
X229325Y195220D01*
X229247Y195113D01*
X229171Y195004D01*
X229100Y194893D01*
X229031Y194779D01*
X228966Y194664D01*
X228904Y194546D01*
X228846Y194427D01*
X228791Y194306D01*
X228740Y194184D01*
X228692Y194060D01*
X228648Y193935D01*
X228608Y193809D01*
X228572Y193681D01*
X228539Y193553D01*
X228510Y193424D01*
X228485Y193293D01*
X228464Y193163D01*
X228446Y193031D01*
X228433Y192899D01*
X228423Y192767D01*
X228417Y192635D01*
X228415Y192502D01*
X228415Y185278D01*
X228417Y185145D01*
X228423Y185013D01*
X228433Y184881D01*
X228446Y184749D01*
X228464Y184617D01*
X228485Y184487D01*
X228510Y184356D01*
X228539Y184227D01*
X228572Y184099D01*
X228608Y183971D01*
X228648Y183845D01*
X228692Y183720D01*
X228740Y183596D01*
X228791Y183474D01*
X228846Y183353D01*
X228904Y183234D01*
X228966Y183116D01*
X229031Y183001D01*
X229100Y182887D01*
X229171Y182776D01*
X229247Y182667D01*
X229325Y182560D01*
X229406Y182455D01*
X229491Y182353D01*
X229578Y182253D01*
X229668Y182156D01*
X229761Y182061D01*
X229857Y181970D01*
X229955Y181881D01*
X230056Y181795D01*
X230160Y181712D01*
X230266Y181632D01*
X230374Y181556D01*
X230484Y181482D01*
X230597Y181412D01*
X230711Y181345D01*
X230828Y181282D01*
X230946Y181222D01*
X231066Y181165D01*
X231188Y181112D01*
X231311Y181063D01*
X231435Y181017D01*
X231561Y180975D01*
X231688Y180937D01*
X231816Y180902D01*
X231945Y180871D01*
X232074Y180844D01*
X232205Y180821D01*
X232336Y180801D01*
X232468Y180786D01*
X232600Y180774D01*
X232732Y180766D01*
X232865Y180762D01*
X232997Y180762D01*
X233130Y180766D01*
X233262Y180774D01*
X233394Y180786D01*
X233526Y180801D01*
X233657Y180821D01*
X233788Y180844D01*
X233917Y180871D01*
X234046Y180902D01*
X234174Y180937D01*
X234301Y180975D01*
X234427Y181017D01*
X234551Y181063D01*
X234674Y181112D01*
X234796Y181165D01*
X234916Y181222D01*
X235034Y181282D01*
X235151Y181345D01*
X235265Y181412D01*
X235378Y181482D01*
X235488Y181556D01*
X235596Y181632D01*
X235702Y181712D01*
X235806Y181795D01*
X235907Y181881D01*
X236005Y181970D01*
X236101Y182061D01*
X236194Y182156D01*
X236284Y182253D01*
X236371Y182353D01*
X236456Y182455D01*
X236537Y182560D01*
X236615Y182667D01*
X236691Y182776D01*
X236762Y182887D01*
X236831Y183001D01*
X236896Y183116D01*
X236958Y183234D01*
X237016Y183353D01*
X237071Y183474D01*
X237122Y183596D01*
X237170Y183720D01*
X237214Y183845D01*
X237254Y183971D01*
X237290Y184099D01*
X237323Y184227D01*
X237352Y184356D01*
X237377Y184487D01*
X237398Y184617D01*
X237416Y184749D01*
X237429Y184881D01*
X237439Y185013D01*
X237445Y185145D01*
X237447Y185278D01*
X222718Y180762D02*
X217300Y197018D01*
X211881Y180762D01*
X213236Y184826D02*
X221364Y184826D01*
X205571Y180762D02*
X205571Y197018D01*
X201056Y197018D01*
X200923Y197016D01*
X200791Y197010D01*
X200659Y197000D01*
X200527Y196987D01*
X200395Y196969D01*
X200265Y196948D01*
X200134Y196923D01*
X200005Y196894D01*
X199877Y196861D01*
X199749Y196825D01*
X199623Y196785D01*
X199498Y196741D01*
X199374Y196693D01*
X199252Y196642D01*
X199131Y196587D01*
X199012Y196529D01*
X198894Y196467D01*
X198779Y196402D01*
X198665Y196333D01*
X198554Y196262D01*
X198445Y196186D01*
X198338Y196108D01*
X198233Y196027D01*
X198131Y195942D01*
X198031Y195855D01*
X197934Y195765D01*
X197839Y195672D01*
X197748Y195576D01*
X197659Y195478D01*
X197573Y195377D01*
X197490Y195273D01*
X197410Y195167D01*
X197334Y195059D01*
X197260Y194949D01*
X197190Y194836D01*
X197123Y194722D01*
X197060Y194605D01*
X197000Y194487D01*
X196943Y194367D01*
X196890Y194245D01*
X196841Y194122D01*
X196795Y193998D01*
X196753Y193872D01*
X196715Y193745D01*
X196680Y193617D01*
X196649Y193488D01*
X196622Y193359D01*
X196599Y193228D01*
X196579Y193097D01*
X196564Y192965D01*
X196552Y192833D01*
X196544Y192701D01*
X196540Y192568D01*
X196540Y192436D01*
X196544Y192303D01*
X196552Y192171D01*
X196564Y192039D01*
X196579Y191907D01*
X196599Y191776D01*
X196622Y191645D01*
X196649Y191516D01*
X196680Y191387D01*
X196715Y191259D01*
X196753Y191132D01*
X196795Y191006D01*
X196841Y190882D01*
X196890Y190759D01*
X196943Y190637D01*
X197000Y190517D01*
X197060Y190399D01*
X197123Y190282D01*
X197190Y190168D01*
X197260Y190055D01*
X197334Y189945D01*
X197410Y189837D01*
X197490Y189731D01*
X197573Y189627D01*
X197659Y189526D01*
X197748Y189428D01*
X197839Y189332D01*
X197934Y189239D01*
X198031Y189149D01*
X198131Y189062D01*
X198233Y188977D01*
X198338Y188896D01*
X198445Y188818D01*
X198554Y188742D01*
X198665Y188671D01*
X198779Y188602D01*
X198894Y188537D01*
X199012Y188475D01*
X199131Y188417D01*
X199252Y188362D01*
X199374Y188311D01*
X199498Y188263D01*
X199623Y188219D01*
X199749Y188179D01*
X199877Y188143D01*
X200005Y188110D01*
X200134Y188081D01*
X200265Y188056D01*
X200395Y188035D01*
X200527Y188017D01*
X200659Y188004D01*
X200791Y187994D01*
X200923Y187988D01*
X201056Y187986D01*
X201056Y187987D02*
X205571Y187987D01*
X200153Y187987D02*
X196540Y180762D01*
X189511Y180762D02*
X189511Y197018D01*
X184995Y197018D01*
X184864Y197016D01*
X184732Y197010D01*
X184601Y197001D01*
X184471Y196987D01*
X184340Y196970D01*
X184211Y196949D01*
X184082Y196925D01*
X183954Y196896D01*
X183826Y196864D01*
X183700Y196828D01*
X183575Y196789D01*
X183450Y196746D01*
X183328Y196699D01*
X183206Y196649D01*
X183086Y196595D01*
X182968Y196538D01*
X182852Y196477D01*
X182737Y196413D01*
X182624Y196346D01*
X182513Y196275D01*
X182405Y196201D01*
X182298Y196124D01*
X182194Y196044D01*
X182092Y195961D01*
X181993Y195876D01*
X181896Y195787D01*
X181802Y195695D01*
X181710Y195601D01*
X181621Y195504D01*
X181536Y195405D01*
X181453Y195303D01*
X181373Y195199D01*
X181296Y195092D01*
X181222Y194984D01*
X181151Y194873D01*
X181084Y194760D01*
X181020Y194645D01*
X180959Y194529D01*
X180902Y194411D01*
X180848Y194291D01*
X180798Y194169D01*
X180751Y194047D01*
X180708Y193922D01*
X180669Y193797D01*
X180633Y193671D01*
X180601Y193543D01*
X180572Y193415D01*
X180548Y193286D01*
X180527Y193157D01*
X180510Y193026D01*
X180496Y192896D01*
X180487Y192765D01*
X180481Y192633D01*
X180479Y192502D01*
X180480Y192502D02*
X180480Y185278D01*
X180479Y185278D02*
X180481Y185147D01*
X180487Y185015D01*
X180496Y184884D01*
X180510Y184754D01*
X180527Y184623D01*
X180548Y184494D01*
X180572Y184365D01*
X180601Y184237D01*
X180633Y184109D01*
X180669Y183983D01*
X180708Y183858D01*
X180751Y183733D01*
X180798Y183611D01*
X180848Y183489D01*
X180902Y183369D01*
X180959Y183251D01*
X181020Y183135D01*
X181084Y183020D01*
X181151Y182907D01*
X181222Y182796D01*
X181296Y182688D01*
X181373Y182581D01*
X181453Y182477D01*
X181536Y182375D01*
X181621Y182276D01*
X181710Y182179D01*
X181802Y182085D01*
X181896Y181993D01*
X181993Y181904D01*
X182092Y181819D01*
X182194Y181736D01*
X182298Y181656D01*
X182405Y181579D01*
X182513Y181505D01*
X182624Y181434D01*
X182737Y181367D01*
X182852Y181303D01*
X182968Y181242D01*
X183086Y181185D01*
X183206Y181131D01*
X183328Y181081D01*
X183450Y181034D01*
X183575Y180991D01*
X183700Y180952D01*
X183826Y180916D01*
X183954Y180884D01*
X184082Y180855D01*
X184211Y180831D01*
X184340Y180810D01*
X184471Y180793D01*
X184601Y180779D01*
X184732Y180770D01*
X184864Y180764D01*
X184995Y180762D01*
X189511Y180762D01*
D11*
X295680Y509700D02*
X310920Y509700D01*
X310920Y484300D02*
X295680Y484300D01*
X295680Y458900D02*
X310920Y458900D01*
X310920Y433500D02*
X295680Y433500D01*
X295680Y408100D02*
X310920Y408100D01*
X310920Y382700D02*
X295680Y382700D01*
X295680Y357300D02*
X310920Y357300D01*
X310920Y331900D02*
X295680Y331900D01*
X295680Y306500D02*
X310920Y306500D01*
X310920Y281100D02*
X295680Y281100D01*
X584580Y277800D02*
X599820Y277800D01*
X599820Y252400D02*
X584580Y252400D01*
X584580Y227000D02*
X599820Y227000D01*
X595680Y527000D02*
X610920Y527000D01*
X610920Y552400D02*
X595680Y552400D01*
X595680Y577800D02*
X610920Y577800D01*
X816480Y472400D02*
X831720Y472400D01*
X831720Y447000D02*
X816480Y447000D01*
X816480Y421600D02*
X831720Y421600D01*
X831720Y396200D02*
X816480Y396200D01*
X816480Y370800D02*
X831720Y370800D01*
X831720Y345400D02*
X816480Y345400D01*
D12*
X323600Y530000D02*
X303300Y509700D01*
X600300Y530000D02*
X603300Y527000D01*
X600300Y530000D02*
X323600Y530000D01*
X603300Y527000D02*
X769500Y527000D01*
X824100Y472400D01*
X867600Y472400D01*
X890000Y450000D02*
X890000Y300000D01*
X867800Y277800D02*
X592200Y277800D01*
X867600Y472400D02*
X890000Y450000D01*
X890000Y300000D02*
X867800Y277800D01*
X303300Y306500D02*
X273500Y306500D01*
X250000Y330000D01*
X250000Y520000D01*
X290000Y560000D01*
X595700Y560000D02*
X603300Y552400D01*
X595700Y560000D02*
X290000Y560000D01*
X303300Y331900D02*
X438100Y331900D01*
X517600Y252400D02*
X592200Y252400D01*
X517600Y252400D02*
X438100Y331900D01*
X313300Y474300D02*
X765700Y474300D01*
X313300Y474300D02*
X303300Y484300D01*
X793000Y447000D02*
X824100Y447000D01*
X793000Y447000D02*
X765700Y474300D01*
X751100Y448900D02*
X313300Y448900D01*
X303300Y458900D01*
X751100Y448900D02*
X780000Y420000D01*
X822500Y420000D01*
X824100Y421600D01*
X313206Y423594D02*
X303300Y433500D01*
X313206Y423594D02*
X736406Y423594D01*
X770000Y390000D01*
X817900Y390000D01*
X824100Y396200D01*
X313206Y398194D02*
X303300Y408100D01*
X313206Y398194D02*
X721806Y398194D01*
X749106Y370894D01*
X810894Y370894D01*
X810000Y370000D01*
X823300Y370000D01*
X824100Y370800D01*
M02*
