M48
;GenerationSoftware,Autodesk,EAGLE,9.2.1*%
;CreationDate,2019-01-07T06:44:36Z*%
FMAT,2
ICI,OFF
METRIC,TZ,000.000
T1C1.016
%
G90
M71
T1
X30330Y50970
X30330Y48430
X30330Y45890
X30330Y43350
X30330Y40810
X30330Y38270
X30330Y35730
X30330Y33190
X30330Y30650
X30330Y28110
X59220Y27780
X59220Y25240
X59220Y22700
X60330Y52700
X60330Y55240
X60330Y57780
X82410Y47240
X82410Y44700
X82410Y42160
X82410Y39620
X82410Y37080
X82410Y34540
M30